<svg version="1.1" id="Layer_1" xmlns="http://www.w3.org/2000/svg" xmlns:xlink="http://www.w3.org/1999/xlink" x="0px" y="0px"
	 width="100%" viewBox="0 0 400 400" enable-background="new 0 0 400 400" xml:space="preserve">
<path fill="none" opacity="1.000000" stroke="#000000" stroke-linecap="round" stroke-linejoin="round" stroke-width="4.000000"
	d="
M115.750000,370.500000 
	C113.272537,369.739532 112.864021,367.914307 112.347084,365.533203 
	C111.587639,362.035065 112.299507,358.341431 110.589905,354.954620 
	C109.909836,353.607391 110.860733,351.451447 112.489708,351.607452 
	C119.828842,352.310333 127.144569,350.813446 134.514832,351.899323 
	C142.114761,353.019043 149.933853,354.408264 157.472244,353.703247 
	C165.299240,352.971252 173.080246,351.636505 180.993240,351.327118 
	C182.374268,351.273132 183.819519,351.244568 184.973282,351.589386 
	C189.732101,353.011475 194.645462,353.289642 199.500000,354.000000 
"/>
<path fill="none" opacity="1.000000" stroke="#000000" stroke-linecap="round" stroke-linejoin="round" stroke-width="4.000000"
	d="
M33.000000,273.500000 
	C30.098364,276.196136 30.664413,279.767120 31.082182,282.989349 
	C32.202457,291.630066 30.507612,300.022675 29.554733,308.506134 
	C29.052023,312.981750 29.442707,317.475616 28.662188,322.027802 
	C27.393930,329.424652 27.415787,337.033173 26.423197,344.489777 
	C25.590752,350.743317 27.574612,356.765442 27.275928,363.013184 
	C27.131432,366.035675 27.558298,369.378143 27.396713,372.494659 
	C26.940912,381.285736 29.928116,389.749115 29.500000,398.500000 
"/>
<path fill="none" opacity="1.000000" stroke="#000000" stroke-linecap="round" stroke-linejoin="round" stroke-width="4.000000"
	d="
M142.000000,97.000000 
	C138.638748,104.535019 139.640137,112.277512 141.045242,119.991760 
	C141.501266,122.495415 142.406921,124.855080 142.635117,127.488289 
	C142.954742,131.176254 142.273514,136.036621 148.498550,136.115265 
	C149.508911,136.128052 150.875916,137.468307 151.437653,138.532898 
	C154.567459,144.464401 157.444778,150.528534 160.523697,156.487747 
	C162.024155,159.391876 160.989883,162.069382 160.664246,165.018143 
	C159.664886,174.067825 161.775513,182.731323 166.561508,190.461914 
	C172.131226,199.458450 177.636169,208.589554 184.208282,216.833954 
	C187.875351,221.434082 192.762497,225.686996 198.537506,227.902237 
	C203.674500,229.872742 206.657028,234.134979 210.500000,237.500000 
"/>
<path fill="none" opacity="1.000000" stroke="#000000" stroke-linecap="round" stroke-linejoin="round" stroke-width="3.000000"
	d="
M116.000000,313.000000 
	C114.866585,313.066895 113.353424,313.268494 113.059258,311.986389 
	C111.246033,304.083496 105.908173,297.629486 104.377731,289.523071 
	C102.474625,279.442780 98.048096,270.094391 94.693291,260.432892 
	C90.858604,249.389389 88.595856,237.806686 85.456482,226.512100 
	C84.046844,221.440659 82.104927,216.519470 80.520332,211.493591 
	C79.339462,207.748230 75.590164,207.387299 72.721420,205.526672 
	C71.425392,206.388000 69.924019,207.385818 68.123062,208.582718 
	C65.833336,206.765610 63.166668,205.876923 60.500000,208.500000 
"/>
<path fill="none" opacity="1.000000" stroke="#000000" stroke-linecap="round" stroke-linejoin="round" stroke-width="4.000000"
	d="
M237.500000,17.500000 
	C239.467896,16.327208 240.975937,17.382219 242.503250,18.495535 
	C251.188202,24.826384 258.964294,32.243698 263.248718,42.109127 
	C265.456909,47.193783 267.569031,53.035473 266.430908,58.986786 
	C265.755829,62.516785 265.501984,66.104591 266.126190,69.476639 
	C267.298676,75.810692 266.263123,81.693939 263.955505,87.482254 
	C263.442169,88.769859 263.809418,89.797493 263.878632,91.006950 
	C264.061676,94.204407 263.835602,97.300507 262.691040,100.566940 
	C260.743225,106.126045 259.859467,112.106133 262.008331,117.996964 
	C262.655090,119.769989 263.001312,121.342979 261.532318,123.028168 
	C258.132080,126.928772 260.567261,132.217316 258.575928,136.535019 
	C258.213806,137.320236 258.656036,138.511948 259.974487,139.061218 
	C261.258545,139.596115 262.286407,139.737152 263.509186,139.015564 
	C266.634613,137.171234 267.081848,133.737885 266.825867,131.016388 
	C266.162781,123.967545 268.400208,117.086807 267.301605,109.953552 
	C266.909851,107.410141 266.537384,104.333336 267.000000,101.500000 
"/>
<path fill="none" opacity="1.000000" stroke="#000000" stroke-linecap="round" stroke-linejoin="round" stroke-width="4.000000"
	d="
M242.000000,170.500000 
	C245.581650,176.833420 245.964966,183.212036 243.087280,190.036804 
	C241.130493,194.677536 240.008636,199.669373 238.498016,204.499374 
	C236.154434,211.992767 231.910187,217.834793 225.063843,222.102417 
	C218.063416,226.466064 213.284378,232.785110 210.863205,240.959488 
	C209.853043,244.369965 207.333344,247.333344 205.500015,250.500000 
"/>
<path fill="none" opacity="1.000000" stroke="#000000" stroke-linecap="round" stroke-linejoin="round" stroke-width="3.000000"
	d="
M374.500000,293.500000 
	C371.617310,292.015198 373.091675,289.099884 372.667847,286.966644 
	C371.722687,282.209320 370.954193,277.515259 367.631805,272.988129 
	C360.464935,278.634521 359.445129,288.142487 353.687622,294.665588 
	C348.193329,300.890442 344.661652,308.709381 341.500000,316.500000 
"/>
<path fill="none" opacity="1.000000" stroke="#000000" stroke-linecap="round" stroke-linejoin="round" stroke-width="4.000000"
	d="
M142.000000,93.500000 
	C137.913849,89.692741 140.061752,84.752625 140.183228,80.505241 
	C140.513489,68.957001 143.752014,57.762775 147.765457,47.099915 
	C150.823776,38.974560 155.961716,31.596762 161.926071,24.933823 
	C167.092651,19.162106 173.024902,14.958362 180.511810,13.046224 
	C181.559769,12.778580 182.539429,12.899677 183.538162,12.044572 
	C192.652878,4.240539 202.570023,5.772523 212.475922,10.055674 
	C218.392868,12.614065 223.640427,16.458460 229.166504,19.717690 
	C233.441574,22.239101 237.063202,25.332693 240.350357,28.648357 
	C244.003983,32.333675 246.856369,36.967033 249.420532,41.544510 
	C253.801147,49.364651 257.306580,57.588181 259.044434,66.491325 
	C259.860535,70.672272 259.461914,74.835083 259.445862,78.999794 
	C259.434784,81.876305 259.855286,84.437126 262.000000,86.500000 
"/>
<path fill="none" opacity="1.000000" stroke="#000000" stroke-linecap="round" stroke-linejoin="round" stroke-width="3.000000"
	d="
M314.500000,223.500000 
	C315.819275,223.779099 317.303650,222.737427 318.609344,224.739349 
	C319.663849,231.673935 315.528564,238.127533 313.371063,244.959274 
	C310.382599,254.422424 310.777618,263.902527 311.500000,273.500000 
"/>
<path fill="none" opacity="1.000000" stroke="#000000" stroke-linecap="round" stroke-linejoin="round" stroke-width="3.000000"
	d="
M65.500000,213.000000 
	C63.224625,213.978104 60.711197,213.845901 58.529675,213.365311 
	C55.660126,212.733139 54.020470,212.868240 52.916649,215.970337 
	C51.950787,218.684738 52.987263,219.868835 54.935486,221.573715 
	C62.923279,228.563889 70.633553,235.869980 78.512093,242.986618 
	C83.451042,247.447968 87.902252,252.247711 90.500000,258.500000 
"/>
<path fill="none" opacity="1.000000" stroke="#000000" stroke-linecap="round" stroke-linejoin="round" stroke-width="4.000000"
	d="
M153.500000,52.500000 
	C151.356781,57.684410 149.412750,62.874611 148.297150,68.459480 
	C147.703979,71.429031 147.787109,74.099205 147.907379,77.003838 
	C148.167191,83.278496 148.521072,89.708389 144.000000,95.000000 
"/>
<path fill="none" opacity="1.000000" stroke="#000000" stroke-linecap="round" stroke-linejoin="round" stroke-width="4.000000"
	d="
M108.000000,256.500000 
	C109.777786,271.289764 111.307381,286.079102 115.310959,300.552307 
	C117.022446,306.739502 117.883957,313.416351 115.630508,320.044373 
	C114.817818,322.434723 115.320587,325.348541 115.545006,327.996185 
	C115.831573,331.377167 115.552567,334.719635 114.928421,337.986328 
	C114.377144,340.871613 113.931549,343.550232 116.000000,346.000000 
"/>
<path fill="none" opacity="1.000000" stroke="#000000" stroke-linecap="round" stroke-linejoin="round" stroke-width="5.000000"
	d="
M186.500000,228.500000 
	C185.380951,231.388535 185.342850,231.460159 183.508331,230.484344 
	C180.182724,228.715393 177.873932,225.952393 176.534637,222.486618 
	C175.453415,219.688721 173.822983,219.190582 170.982376,219.932541 
	C164.107101,221.728333 159.161484,225.702286 156.000351,232.000183 
	C155.077805,233.838181 154.218155,235.719376 152.500000,237.000000 
"/>
<path fill="none" opacity="1.000000" stroke="#000000" stroke-linecap="round" stroke-linejoin="round" stroke-width="4.000000"
	d="
M336.500000,310.000000 
	C338.574310,314.904510 336.735565,318.632904 333.614899,322.590607 
	C330.114777,327.029602 326.854370,331.897949 324.696777,337.081909 
	C322.848175,341.523468 319.803894,344.982941 317.460846,348.977051 
	C317.071960,349.639984 316.107849,350.493469 315.509277,350.422089 
	C310.610138,349.838135 306.396545,352.004791 301.982544,353.446533 
	C301.103546,353.733643 299.873291,353.599487 299.025696,353.196014 
	C297.110626,352.284454 295.186340,349.968323 293.524719,350.187408 
	C285.018097,351.309021 276.504272,350.063324 267.985748,350.844696 
	C260.056274,351.572021 252.007645,351.000000 244.562576,351.000000 
	C238.414551,356.464203 236.540405,365.098389 240.077209,371.457062 
	C241.606445,374.206390 242.372604,377.106140 242.391327,380.000702 
	C242.428024,385.664978 241.833328,391.333344 241.500000,397.000000 
"/>
<path fill="none" opacity="1.000000" stroke="#000000" stroke-linecap="round" stroke-linejoin="round" stroke-width="3.000000"
	d="
M162.500000,162.000000 
	C166.259933,164.028687 169.063812,167.356720 171.339417,170.612244 
	C176.612930,178.156708 184.171158,182.138992 191.990585,186.018951 
	C194.418594,187.223724 196.961853,186.952744 199.500000,187.000000 
"/>
<path fill="none" opacity="1.000000" stroke="#000000" stroke-linecap="round" stroke-linejoin="round" stroke-width="3.000000"
	d="
M147.500000,192.000000 
	C142.644272,193.784958 137.190536,192.658234 132.443390,195.402054 
	C130.007965,196.809708 127.074852,197.131714 124.929390,199.434204 
	C122.766479,201.755432 119.403702,201.762314 116.495171,201.889435 
	C113.182732,202.034241 109.833336,201.333344 106.500000,201.000000 
"/>
<path fill="none" opacity="1.000000" stroke="#000000" stroke-linecap="round" stroke-linejoin="round" stroke-width="8.000000"
	d="
M110.000000,351.000000 
	C108.118057,350.184906 109.131348,348.296234 108.601517,346.959747 
	C106.668320,342.083405 104.843468,340.409210 100.008972,341.066010 
	C95.045181,341.740417 90.584381,338.404572 85.430550,339.729919 
	C84.234245,340.037537 82.166664,340.555450 80.500000,340.000000 
"/>
<path fill="none" opacity="1.000000" stroke="#000000" stroke-linecap="round" stroke-linejoin="round" stroke-width="3.000000"
	d="
M329.000000,236.500000 
	C328.265137,241.967239 325.393829,246.753418 324.034546,252.008926 
	C322.585999,257.609467 318.206329,262.607330 320.404480,269.032684 
	C320.487762,269.276093 319.166656,270.000000 318.500000,270.500000 
"/>
<path fill="none" opacity="1.000000" stroke="#000000" stroke-linecap="round" stroke-linejoin="round" stroke-width="4.000000"
	d="
M275.000000,396.500000 
	C279.968292,399.049744 285.310028,398.250000 290.495453,397.927094 
	C298.179688,397.448547 305.821320,397.301788 313.505615,397.931427 
	C316.806702,398.201874 320.163330,397.863251 323.508423,397.612030 
	C329.979614,397.126007 336.484680,397.774475 343.002899,397.640442 
	C362.161438,397.246460 381.333344,397.500000 400.500000,397.500000 
"/>
<path fill="none" opacity="1.000000" stroke="#000000" stroke-linecap="round" stroke-linejoin="round" stroke-width="4.000000"
	d="
M30.500000,397.500000 
	C50.833332,397.500000 71.166725,397.473572 91.499954,397.519867 
	C96.167679,397.530487 100.824730,397.441833 105.509567,397.902802 
	C110.612228,398.404968 114.940903,395.857086 119.000000,393.000000 
"/>
<path fill="none" opacity="1.000000" stroke="#000000" stroke-linecap="round" stroke-linejoin="round" stroke-width="3.000000"
	d="
M356.500000,278.500000 
	C353.886688,279.308685 352.180115,281.309265 351.062042,283.531219 
	C347.893188,289.828461 343.780457,295.473724 339.416718,300.933441 
	C338.603394,301.951050 338.247375,303.125458 338.125549,304.017151 
	C337.702850,307.110413 336.169678,308.858307 333.600739,310.644836 
	C330.665710,312.685974 328.433655,315.775482 326.032837,318.528625 
	C325.078583,319.622864 326.312103,320.308502 327.000000,321.000000 
"/>
<path fill="none" opacity="1.000000" stroke="#000000" stroke-linecap="round" stroke-linejoin="round" stroke-width="3.000000"
	d="
M357.500000,362.500000 
	C359.984436,373.667542 364.891266,383.873840 370.000000,394.000000 
"/>
<path fill="none" opacity="1.000000" stroke="#000000" stroke-linecap="round" stroke-linejoin="round" stroke-width="3.000000"
	d="
M333.000000,333.000000 
	C335.166687,330.166687 337.344696,327.341949 339.496185,324.497131 
	C341.036743,322.460083 343.001892,322.526489 344.985382,323.528900 
	C347.106262,324.600677 347.437561,326.314575 346.522522,328.509399 
	C343.594421,335.532745 340.227905,342.484192 334.288025,347.234985 
	C332.386139,348.756165 331.834686,350.362244 330.705170,352.067810 
	C329.650269,351.716370 328.482819,351.519104 327.519318,350.966339 
	C325.544830,349.833527 323.892456,348.176544 321.417755,350.408844 
	C320.409302,351.318542 318.792419,349.996979 317.500000,349.500000 
"/>
<path fill="none" opacity="1.000000" stroke="#000000" stroke-linecap="round" stroke-linejoin="round" stroke-width="3.000000"
	d="
M105.000000,199.000000 
	C99.666946,196.754379 94.561707,198.441025 89.511848,200.037476 
	C86.336266,201.041397 83.475647,203.393494 79.908447,200.617661 
	C78.944336,199.867447 76.789536,200.219574 75.500000,201.500000 
"/>
<path fill="none" opacity="1.000000" stroke="#000000" stroke-linecap="round" stroke-linejoin="round" stroke-width="3.000000"
	d="
M214.000000,102.000000 
	C218.845352,106.605949 221.745728,112.613205 225.462326,118.025871 
	C227.841721,121.491135 229.678284,125.325584 232.500000,128.500000 
"/>
<path fill="none" opacity="1.000000" stroke="#000000" stroke-linecap="round" stroke-linejoin="round" stroke-width="4.000000"
	d="
M179.000000,396.000000 
	C188.162643,396.573639 197.251175,397.925018 206.503296,397.591217 
	C217.322540,397.200867 228.184143,397.127594 238.993668,397.634796 
	C245.860840,397.957001 252.666672,397.694183 259.500000,397.500000 
"/>
<path fill="none" opacity="1.000000" stroke="#000000" stroke-linecap="round" stroke-linejoin="round" stroke-width="3.000000"
	d="
M253.500000,309.500000 
	C250.235779,311.722137 251.849014,315.371033 251.809967,318.004608 
	C251.757248,321.557922 250.947617,325.629761 253.055923,328.964630 
	C254.644089,331.476746 251.102081,333.666656 253.000000,336.000000 
"/>
<path fill="none" opacity="1.000000" stroke="#000000" stroke-linecap="round" stroke-linejoin="round" stroke-width="3.000000"
	d="
M326.500000,221.500000 
	C326.411255,228.841995 322.278564,234.882812 319.847046,241.443314 
	C318.974091,243.798645 318.298370,246.061432 318.000000,248.500000 
"/>
<path fill="none" opacity="1.000000" stroke="#000000" stroke-linecap="round" stroke-linejoin="round" stroke-width="3.000000"
	d="
M201.500000,249.500000 
	C203.989792,251.513840 204.164856,254.298721 203.442200,256.984436 
	C201.769730,263.200043 202.616043,269.320404 203.453278,275.506317 
	C203.791809,278.007568 203.239929,280.473328 201.500000,282.500000 
"/>
<path fill="none" opacity="1.000000" stroke="#000000" stroke-linecap="round" stroke-linejoin="round" stroke-width="3.000000"
	d="
M253.500000,188.500000 
	C255.685516,197.662933 262.739838,204.026169 267.051880,211.971848 
	C268.360657,214.383453 268.463623,217.058731 269.477783,219.509201 
	C271.880219,225.313934 274.003906,231.239151 276.557983,236.974182 
	C278.224854,240.717010 276.494537,244.899506 278.500000,248.500000 
"/>
<path fill="none" opacity="1.000000" stroke="#000000" stroke-linecap="round" stroke-linejoin="round" stroke-width="3.000000"
	d="
M121.500000,230.500000 
	C124.261162,238.919312 125.868652,247.753952 130.500000,255.500000 
"/>
<path fill="none" opacity="1.000000" stroke="#000000" stroke-linecap="round" stroke-linejoin="round" stroke-width="3.000000"
	d="
M340.500000,231.000000 
	C334.539154,240.589676 330.065399,250.947617 324.991638,260.995789 
	C324.554749,261.860992 324.000000,262.666656 323.500000,263.500000 
"/>
<path fill="none" opacity="1.000000" stroke="#000000" stroke-linecap="round" stroke-linejoin="round" stroke-width="3.000000"
	d="
M245.500000,186.000000 
	C247.290939,188.200195 248.428009,190.290298 247.657120,193.537308 
	C246.870468,196.850662 250.763550,199.637909 249.625778,203.536697 
	C249.079132,205.409805 249.228165,207.565811 248.500000,209.500000 
"/>
<path fill="none" opacity="1.000000" stroke="#000000" stroke-linecap="round" stroke-linejoin="round" stroke-width="4.000000"
	d="
M271.000000,203.500000 
	C273.729492,210.362671 282.170776,213.472610 290.174896,210.433594 
	C298.755707,221.329819 304.393097,233.465942 305.500000,247.500000 
"/>
<path fill="none" opacity="1.000000" stroke="#000000" stroke-linecap="round" stroke-linejoin="round" stroke-width="3.000000"
	d="
M42.500000,351.000000 
	C47.861652,349.915039 51.511257,354.009155 56.034252,355.387604 
	C63.627087,357.701691 71.532272,358.552734 79.500000,358.500000 
"/>
<path fill="none" opacity="1.000000" stroke="#000000" stroke-linecap="round" stroke-linejoin="round" stroke-width="4.000000"
	d="
M259.000000,139.500000 
	C254.752350,144.704880 252.797974,151.289276 248.567551,156.554276 
	C245.581604,160.270462 243.641907,164.852814 241.089478,168.729721 
	C239.075287,171.789032 236.321182,175.578781 232.482147,177.463654 
	C230.473907,178.449631 229.042557,180.011536 227.500000,181.500000 
"/>
<path fill="none" opacity="1.000000" stroke="#000000" stroke-linecap="round" stroke-linejoin="round" stroke-width="3.000000"
	d="
M353.500000,245.500000 
	C356.738617,253.784973 361.007202,261.576416 365.000000,269.500000 
"/>
<path fill="none" opacity="1.000000" stroke="#000000" stroke-linecap="round" stroke-linejoin="round" stroke-width="4.000000"
	d="
M325.000000,320.000000 
	C322.178894,325.522034 317.094666,327.051758 311.495697,327.437683 
	C310.010254,327.540070 308.747131,328.279938 308.080475,329.068085 
	C302.607086,335.538727 296.372528,341.475830 293.000000,349.500000 
"/>
<path fill="none" opacity="1.000000" stroke="#000000" stroke-linecap="round" stroke-linejoin="round" stroke-width="3.000000"
	d="
M229.500000,147.500000 
	C228.925812,145.465744 228.101822,143.836502 225.498352,143.967041 
	C223.073227,144.088623 221.820450,144.490875 220.721909,147.394791 
	C219.433441,150.800751 215.017349,151.658295 211.492523,151.882309 
	C206.689178,152.187561 201.781204,152.039581 197.017654,151.373688 
	C193.634506,150.900742 190.012482,149.914108 188.490097,146.003860 
	C187.058167,142.325912 184.455505,142.489090 181.500000,144.000000 
"/>
<path fill="none" opacity="1.000000" stroke="#000000" stroke-linecap="round" stroke-linejoin="round" stroke-width="3.000000"
	d="
M123.000000,196.000000 
	C117.211723,192.666595 111.359146,190.029419 104.472008,192.933609 
	C102.997292,193.555466 101.166664,193.333328 99.500000,193.499985 
"/>
<path fill="none" opacity="1.000000" stroke="#000000" stroke-linecap="round" stroke-linejoin="round" stroke-width="3.000000"
	d="
M66.500000,248.500000 
	C60.407032,245.030319 53.403378,243.255554 47.982483,238.520050 
	C47.276951,237.903702 46.333332,238.029953 45.500000,238.500000 
"/>
<path fill="none" opacity="1.000000" stroke="#000000" stroke-linecap="round" stroke-linejoin="round" stroke-width="6.000000"
	d="
M384.500000,331.000000 
	C373.467529,327.252930 364.719849,331.811829 357.136627,339.141357 
	C355.316528,340.900574 353.456787,341.226318 351.500000,342.000000 
"/>
<path fill="none" opacity="1.000000" stroke="#000000" stroke-linecap="round" stroke-linejoin="round" stroke-width="3.000000"
	d="
M249.500000,97.000000 
	C246.650406,95.823730 243.923874,94.350243 242.549026,91.476547 
	C241.130096,88.510666 238.637787,89.274155 236.512589,89.585831 
	C233.963989,89.959587 231.883408,91.273399 232.500000,94.500000 
"/>
<path fill="none" opacity="1.000000" stroke="#000000" stroke-linecap="round" stroke-linejoin="round" stroke-width="6.000000"
	d="
M252.500000,84.000000 
	C250.365631,75.498466 248.679169,74.613029 240.487152,77.463058 
	C239.246048,77.894836 237.554001,78.401924 236.545853,77.906654 
	C230.525238,74.948898 224.880386,79.431412 218.992584,78.549461 
	C217.029022,78.255325 218.382690,81.374466 216.500000,81.500000 
"/>
<path fill="none" opacity="1.000000" stroke="#000000" stroke-linecap="round" stroke-linejoin="round" stroke-width="3.000000"
	d="
M327.000000,266.000000 
	C323.088745,270.637543 321.211304,276.456573 317.994934,281.496765 
	C316.878540,283.246185 316.709229,286.089569 313.500000,285.500000 
"/>
<path fill="none" opacity="1.000000" stroke="#000000" stroke-linecap="round" stroke-linejoin="round" stroke-width="4.000000"
	d="
M142.500000,94.750000 
	C146.664551,98.224785 148.640884,108.249229 145.935211,113.466400 
	C145.020798,115.229568 144.356445,117.224930 145.580750,118.417076 
	C150.721283,123.422569 148.752594,129.644073 149.000000,135.500000 
"/>
<path fill="none" opacity="1.000000" stroke="#000000" stroke-linecap="round" stroke-linejoin="round" stroke-width="3.000000"
	d="
M188.500000,177.500000 
	C188.845032,180.702728 191.626053,180.108749 193.512009,180.429337 
	C198.643723,181.301682 203.860214,182.500977 208.991714,182.294296 
	C213.299759,182.120773 217.855087,181.813095 222.000000,180.000000 
"/>
<path fill="none" opacity="1.000000" stroke="#000000" stroke-linecap="round" stroke-linejoin="round" stroke-width="5.000000"
	d="
M216.500000,131.500000 
	C214.949661,128.468689 212.378387,130.020157 210.552826,130.652496 
	C208.984070,131.195892 207.882233,133.073364 206.091980,133.628876 
	C202.952606,133.090195 202.755325,129.260284 199.612579,128.396240 
	C198.110138,130.718826 195.236435,129.494186 193.000000,130.500000 
"/>
<path fill="none" opacity="1.000000" stroke="#000000" stroke-linecap="round" stroke-linejoin="round" stroke-width="3.000000"
	d="
M190.500000,124.000000 
	C192.838821,123.892822 194.856964,122.650764 197.027115,122.108513 
	C200.873077,121.147522 203.908493,123.642426 206.724228,125.660980 
	C214.205795,121.293747 216.768600,121.293747 220.000000,125.500000 
"/>
<path fill="none" opacity="1.000000" stroke="#000000" stroke-linecap="round" stroke-linejoin="round" stroke-width="4.000000"
	d="
M246.000000,228.500000 
	C245.592117,225.348679 246.635529,222.439255 247.425949,219.443741 
	C249.809128,219.544556 249.564255,221.775757 250.504913,222.996216 
	C254.920959,228.725815 258.371613,235.393051 265.500000,238.500000 
"/>
<path fill="none" opacity="1.000000" stroke="#000000" stroke-linecap="round" stroke-linejoin="round" stroke-width="4.000000"
	d="
M293.000000,389.500000 
	C290.166656,390.725220 287.691895,391.327759 284.394012,389.717010 
	C281.402588,388.255981 277.378204,390.729492 276.259399,393.121338 
	C273.968781,398.018280 270.259735,398.438477 265.999817,398.458649 
	C264.174194,398.467285 262.256012,399.017334 260.500000,398.000000 
"/>
<path fill="none" opacity="1.000000" stroke="#000000" stroke-linecap="round" stroke-linejoin="round" stroke-width="5.000000"
	d="
M340.500000,352.500000 
	C347.029999,358.054291 349.650116,365.842773 352.500000,373.500000 
"/>
<path fill="none" opacity="1.000000" stroke="#000000" stroke-linecap="round" stroke-linejoin="round" stroke-width="4.000000"
	d="
M192.500000,109.500000 
	C187.041504,115.822792 181.643143,122.190697 177.500000,129.500000 
"/>
<path fill="none" opacity="1.000000" stroke="#000000" stroke-linecap="round" stroke-linejoin="round" stroke-width="2.000000"
	d="
M114.000000,225.000000 
	C116.229538,231.388245 118.170372,237.857925 119.500000,244.500000 
"/>
<path fill="none" opacity="1.000000" stroke="#000000" stroke-linecap="round" stroke-linejoin="round" stroke-width="4.000000"
	d="
M187.500000,131.500000 
	C187.361908,132.411423 188.003220,133.839996 186.497025,133.963837 
	C179.358414,134.550781 176.284744,138.910049 175.500000,145.500000 
"/>
<path fill="none" opacity="1.000000" stroke="#000000" stroke-linecap="round" stroke-linejoin="round" stroke-width="5.000000"
	d="
M209.500000,3.500000 
	C214.832870,4.427495 220.166840,5.173651 225.052872,7.905439 
	C227.003418,8.995992 228.877365,9.822714 229.750000,12.000000 
"/>
<path fill="none" opacity="1.000000" stroke="#000000" stroke-linecap="round" stroke-linejoin="round" stroke-width="3.000000"
	d="
M43.500000,227.500000 
	C40.487553,229.810287 41.268925,232.718735 43.096287,234.920074 
	C45.444389,237.748718 44.237225,239.731445 43.125874,242.549637 
	C39.589249,251.517883 35.462917,260.334381 34.033211,270.004913 
	C33.880135,271.040314 33.935909,272.052460 33.000000,272.750000 
"/>
<path fill="none" opacity="1.000000" stroke="#000000" stroke-linecap="round" stroke-linejoin="round" stroke-width="3.000000"
	d="
M268.500000,382.500000 
	C264.225739,383.478973 260.546661,380.933563 256.511658,380.410065 
	C254.518356,380.151398 252.563004,379.455353 250.500000,379.500000 
"/>
<path fill="none" opacity="1.000000" stroke="#000000" stroke-linecap="round" stroke-linejoin="round" stroke-width="3.000000"
	d="
M324.000000,319.000000 
	C322.248657,315.967010 320.781525,315.115204 317.350830,317.810120 
	C314.072845,320.385040 312.339020,323.086792 312.000000,327.000000 
"/>
<path fill="none" opacity="1.000000" stroke="#000000" stroke-linecap="round" stroke-linejoin="round" stroke-width="4.000000"
	d="
M120.000000,363.500000 
	C118.833336,365.833344 117.962143,368.387604 116.424690,370.443695 
	C114.531921,372.974884 115.459183,374.781250 117.539993,375.927399 
	C121.485313,378.100616 125.127914,381.290527 129.106033,382.700928 
	C135.903152,385.110718 141.636993,388.151917 146.161545,393.872223 
	C147.238693,395.234009 150.343292,394.960754 152.498138,395.507355 
	C158.902969,397.132050 165.311295,398.174255 172.012238,397.659241 
	C174.268143,397.485870 175.826141,395.804596 178.000000,396.000000 
"/>
<path fill="none" opacity="1.000000" stroke="#000000" stroke-linecap="round" stroke-linejoin="round" stroke-width="3.000000"
	d="
M179.000000,14.500000 
	C178.575287,20.670717 173.324493,23.114542 169.425415,26.411806 
	C166.206116,29.134218 162.666367,31.397867 161.000000,35.500000 
"/>
<path fill="none" opacity="1.000000" stroke="#000000" stroke-linecap="round" stroke-linejoin="round" stroke-width="3.000000"
	d="
M382.500000,349.500000 
	C385.666656,352.166656 390.500763,354.309509 391.547699,357.642090 
	C392.674774,361.229736 394.614685,364.194794 396.056732,367.475067 
	C397.282104,370.262451 399.000000,372.833313 400.500000,375.500000 
"/>
<path fill="none" opacity="1.000000" stroke="#000000" stroke-linecap="round" stroke-linejoin="round" stroke-width="4.000000"
	d="
M315.500000,275.500000 
	C314.166656,281.000000 313.504761,286.781311 311.345520,291.935272 
	C307.950073,300.040009 312.046844,306.536102 314.500000,313.500000 
"/>
<path fill="none" opacity="1.000000" stroke="#000000" stroke-linecap="round" stroke-linejoin="round" stroke-width="3.000000"
	d="
M220.000000,321.500000 
	C215.184280,317.107910 212.002411,317.406647 209.503677,322.501801 
	C208.528275,324.490753 208.530609,327.789886 209.612259,328.213104 
	C211.472031,328.940735 213.271194,332.134491 216.046539,329.549957 
	C217.093094,328.575378 218.666672,328.166656 220.000000,327.500000 
"/>
<path fill="none" opacity="1.000000" stroke="#000000" stroke-linecap="round" stroke-linejoin="round" stroke-width="3.000000"
	d="
M386.000000,320.000000 
	C389.346375,326.106750 391.841614,332.794861 392.179535,339.516113 
	C392.469086,345.275330 394.872375,348.917877 398.500000,352.500000 
"/>
<path fill="none" opacity="1.000000" stroke="#000000" stroke-linecap="round" stroke-linejoin="round" stroke-width="3.000000"
	d="
M214.500000,144.500000 
	C209.344528,145.013702 204.339798,146.907394 198.956589,145.131607 
	C196.499054,144.320938 193.609726,145.211121 191.000000,146.000000 
"/>
<path fill="none" opacity="1.000000" stroke="#000000" stroke-linecap="round" stroke-linejoin="round" stroke-width="3.000000"
	d="
M81.500000,270.500000 
	C87.177620,274.409607 92.947540,278.205597 97.500000,283.500000 
"/>
<path fill="none" opacity="1.000000" stroke="#000000" stroke-linecap="round" stroke-linejoin="round" stroke-width="3.000000"
	d="
M348.500000,236.500000 
	C349.065247,238.315536 349.788208,240.088058 349.224121,243.228043 
	C343.099670,247.372818 341.474731,255.906647 337.676331,263.093201 
	C336.410248,265.488617 333.347107,267.030518 334.027466,271.079407 
	C334.281097,272.588684 329.166656,275.000000 326.500000,277.000000 
"/>
<path fill="none" opacity="1.000000" stroke="#000000" stroke-linecap="round" stroke-linejoin="round" stroke-width="3.000000"
	d="
M193.500000,306.500000 
	C195.335419,307.237488 194.220688,308.824799 194.482773,310.003845 
	C196.524963,319.191162 198.626221,328.297516 202.242462,337.105743 
	C203.701431,340.659424 205.765808,345.078949 204.763687,348.938660 
	C203.660248,353.188599 205.656250,353.507294 208.500000,354.000000 
"/>
<path fill="none" opacity="1.000000" stroke="#000000" stroke-linecap="round" stroke-linejoin="round" stroke-width="3.000000"
	d="
M246.500000,220.000000 
	C239.456985,220.913712 236.542267,223.394867 237.300629,230.467758 
	C237.703644,234.226318 236.152130,237.320496 235.599136,240.428680 
	C233.703110,251.085602 233.382355,262.201996 227.704224,272.116943 
	C225.555023,275.869781 227.214935,281.003479 226.968414,285.498260 
	C226.785599,288.831573 227.729843,292.219818 226.500000,295.500000 
"/>
<path fill="none" opacity="1.000000" stroke="#000000" stroke-linecap="round" stroke-linejoin="round" stroke-width="4.000000"
	d="
M33.000000,359.000000 
	C35.438725,358.266327 37.229671,356.491150 40.261337,359.485413 
	C42.826756,362.019165 47.627865,363.120911 51.509186,363.293884 
	C57.191990,363.547089 62.783329,364.573029 68.497078,364.670746 
	C74.569054,364.774597 80.917900,364.649292 86.504547,367.992401 
	C89.016708,369.495728 93.360870,366.841827 94.500000,371.500000 
"/>
<path fill="none" opacity="1.000000" stroke="#000000" stroke-linecap="round" stroke-linejoin="round" stroke-width="4.000000"
	d="
M362.500000,346.500000 
	C365.527313,352.257660 371.197540,355.484741 375.637421,359.860565 
	C377.423126,361.620483 380.834564,360.313599 383.500000,360.500000 
"/>
<path fill="none" opacity="1.000000" stroke="#000000" stroke-linecap="round" stroke-linejoin="round" stroke-width="3.000000"
	d="
M375.000000,294.500000 
	C376.345093,298.080292 378.243744,301.133514 380.754944,304.200653 
	C383.750977,307.859985 385.843506,312.976227 382.457123,317.970947 
	C381.454926,319.449127 381.526184,320.931732 381.500000,322.500000 
"/>
<path fill="none" opacity="1.000000" stroke="#000000" stroke-linecap="round" stroke-linejoin="round" stroke-width="3.000000"
	d="
M229.000000,227.500000 
	C226.029160,235.735992 222.028458,243.642441 221.000000,252.500000 
"/>
<path fill="none" opacity="1.000000" stroke="#000000" stroke-linecap="round" stroke-linejoin="round" stroke-width="3.000000"
	d="
M199.500000,23.500000 
	C193.076340,22.926834 187.672165,26.879871 181.519592,27.655380 
	C180.611282,27.769871 178.338242,28.338240 178.500000,30.500000 
"/>
<path fill="none" opacity="1.000000" stroke="#000000" stroke-linecap="round" stroke-linejoin="round" stroke-width="3.000000"
	d="
M382.500000,373.000000 
	C387.123291,376.886139 391.252716,381.373505 396.500000,384.500000 
"/>
<path fill="none" opacity="1.000000" stroke="#000000" stroke-linecap="round" stroke-linejoin="round" stroke-width="3.000000"
	d="
M217.500000,132.000000 
	C223.703201,134.206558 230.091995,136.080994 234.500000,141.500000 
"/>
<path fill="none" opacity="1.000000" stroke="#000000" stroke-linecap="round" stroke-linejoin="round" stroke-width="3.000000"
	d="
M148.500000,180.000000 
	C145.225357,180.176071 142.463181,181.942383 139.532593,183.083710 
	C136.258804,184.358688 133.034790,185.472504 129.500000,185.500000 
"/>
<path fill="none" opacity="1.000000" stroke="#000000" stroke-linecap="round" stroke-linejoin="round" stroke-width="3.000000"
	d="
M95.500000,351.500000 
	C89.520897,350.208771 83.910789,351.446686 78.502319,354.004913 
	C76.595940,354.906586 73.853905,352.415619 72.500000,355.500000 
"/>
<path fill="none" opacity="1.000000" stroke="#000000" stroke-linecap="round" stroke-linejoin="round" stroke-width="6.000000"
	d="
M70.500000,299.500000 
	C70.294395,296.997589 69.507996,295.545105 66.529762,294.868896 
	C58.969769,293.152496 52.078335,289.005188 44.000824,288.920990 
	C40.162693,288.880981 36.333332,288.000031 32.499996,287.500031 
"/>
<path fill="none" opacity="1.000000" stroke="#000000" stroke-linecap="round" stroke-linejoin="round" stroke-width="3.000000"
	d="
M314.500000,211.500000 
	C311.623108,211.927475 309.883728,213.090134 309.897644,216.500412 
	C309.908508,219.165009 309.000000,221.833328 308.500000,224.500000 
"/>
<path fill="none" opacity="1.000000" stroke="#000000" stroke-linecap="round" stroke-linejoin="round" stroke-width="2.000000"
	d="
M246.500000,93.000008 
	C246.833344,92.500008 247.550644,91.672066 247.444321,91.547562 
	C244.038391,87.559769 240.611984,83.530128 234.500000,84.500000 
"/>
<path fill="none" opacity="1.000000" stroke="#000000" stroke-linecap="round" stroke-linejoin="round" stroke-width="3.000000"
	d="
M333.500000,300.000000 
	C330.494965,301.605377 327.801666,303.855774 323.995636,303.555328 
	C321.232361,303.337219 319.224396,302.636169 319.000000,299.500000 
"/>
<path fill="none" opacity="1.000000" stroke="#000000" stroke-linecap="round" stroke-linejoin="round" stroke-width="4.000000"
	d="
M354.500000,349.500000 
	C358.852051,353.867035 363.215393,358.220917 368.500000,361.500000 
"/>
<path fill="none" opacity="1.000000" stroke="#000000" stroke-linecap="round" stroke-linejoin="round" stroke-width="4.000000"
	d="
M357.000000,305.500000 
	C356.917358,308.667023 354.812195,310.939728 352.900299,312.902893 
	C350.148529,315.728394 348.649780,319.112122 347.000000,322.500000 
"/>
<path fill="none" opacity="1.000000" stroke="#000000" stroke-linecap="round" stroke-linejoin="round" stroke-width="3.000000"
	d="
M224.500000,337.500000 
	C220.269333,337.577362 215.980774,336.949738 212.405212,340.401825 
	C211.295181,341.473511 210.179520,339.983917 210.000000,338.500000 
"/>
<path fill="none" opacity="1.000000" stroke="#000000" stroke-linecap="round" stroke-linejoin="round" stroke-width="3.000000"
	d="
M215.000000,86.500000 
	C216.149338,90.873596 217.183716,95.223442 219.852554,99.101471 
	C220.653229,100.264923 221.253662,101.079674 222.500000,101.500000 
"/>
<path fill="none" opacity="1.000000" stroke="#000000" stroke-linecap="round" stroke-linejoin="round" stroke-width="3.000000"
	d="
M74.000000,302.500000 
	C78.228699,304.011597 82.818375,304.620728 86.500000,307.500000 
"/>
<path fill="none" opacity="1.000000" stroke="#000000" stroke-linecap="round" stroke-linejoin="round" stroke-width="3.000000"
	d="
M171.500000,32.500000 
	C167.498520,36.139996 164.839722,40.709549 162.500000,45.500000 
"/>
<path fill="none" opacity="1.000000" stroke="#000000" stroke-linecap="round" stroke-linejoin="round" stroke-width="3.000000"
	d="
M209.500000,354.500000 
	C214.199600,356.292725 218.992126,357.104218 224.002258,356.010345 
	C226.856277,355.387238 229.241592,357.339142 231.991348,357.593536 
	C234.200775,357.797974 236.333328,358.833344 238.500000,359.500000 
"/>
<path fill="none" opacity="1.000000" stroke="#000000" stroke-linecap="round" stroke-linejoin="round" stroke-width="3.000000"
	d="
M278.500000,199.500000 
	C284.109009,200.335663 286.297150,204.952286 289.000000,209.000000 
"/>
<path fill="none" opacity="1.000000" stroke="#000000" stroke-linecap="round" stroke-linejoin="round" stroke-width="3.000000"
	d="
M154.000000,183.500000 
	C155.996643,189.849350 158.549149,195.912827 163.000000,201.000000 
"/>
<path fill="none" opacity="1.000000" stroke="#000000" stroke-linecap="round" stroke-linejoin="round" stroke-width="4.000000"
	d="
M371.500000,314.000000 
	C367.561493,315.517822 364.020386,318.227844 359.500000,318.000000 
"/>
<path fill="none" opacity="1.000000" stroke="#000000" stroke-linecap="round" stroke-linejoin="round" stroke-width="3.000000"
	d="
M189.500000,234.500000 
	C190.521164,233.272141 193.153397,232.203110 194.443970,233.082260 
	C196.381439,234.402069 199.274933,234.645447 200.000000,237.500000 
"/>
<path fill="none" opacity="1.000000" stroke="#000000" stroke-linecap="round" stroke-linejoin="round" stroke-width="3.000000"
	d="
M226.500000,103.500000 
	C228.455490,106.292229 231.593918,106.474213 234.511154,106.928368 
	C235.675781,107.109673 236.372101,107.281647 236.500000,108.500000 
"/>
<path fill="none" opacity="1.000000" stroke="#000000" stroke-linecap="round" stroke-linejoin="round" stroke-width="3.000000"
	d="
M382.500000,354.500000 
	C378.885315,352.718994 375.604462,350.203522 371.500000,349.500000 
"/>
<path fill="none" opacity="1.000000" stroke="#000000" stroke-linecap="round" stroke-linejoin="round" stroke-width="2.000000"
	d="
M345.000000,283.000000 
	C342.239227,284.464417 341.377533,287.637512 339.067810,289.580597 
	C337.846436,290.608063 336.731720,290.394348 335.500000,290.500000 
"/>
<path fill="none" opacity="1.000000" stroke="#000000" stroke-linecap="round" stroke-linejoin="round" stroke-width="3.000000"
	d="
M376.500000,361.000000 
	C376.303894,363.147064 376.603973,364.925171 378.421082,366.586334 
	C379.969604,368.001953 380.833344,370.166656 382.000000,372.000000 
"/>
<path fill="none" opacity="1.000000" stroke="#000000" stroke-linecap="round" stroke-linejoin="round" stroke-width="3.000000"
	d="
M157.500000,87.500000 
	C158.926590,82.379959 159.129883,76.613213 164.513458,73.523453 
	C166.765869,72.230736 168.832520,71.221031 171.604477,73.364922 
	C173.870300,75.117378 177.042953,75.936447 180.000000,74.000000 
"/>
<path fill="none" opacity="1.000000" stroke="#000000" stroke-linecap="round" stroke-linejoin="round" stroke-width="2.000000"
	d="
M176.500000,82.500000 
	C171.715805,81.881691 168.641861,84.528412 166.000000,88.000000 
"/>
<path fill="none" opacity="1.000000" stroke="#000000" stroke-linecap="round" stroke-linejoin="round" stroke-width="5.000000"
	d="
M87.500000,287.000000 
	C82.725479,287.506653 78.235260,285.359802 73.500000,285.500000 
"/>
<path fill="none" opacity="1.000000" stroke="#000000" stroke-linecap="round" stroke-linejoin="round" stroke-width="3.000000"
	d="
M195.500000,17.000000 
	C193.446136,16.120377 191.754562,16.557024 189.951263,17.936277 
	C188.380234,19.137884 186.917908,20.952747 184.500000,20.500000 
"/>
<path fill="none" opacity="1.000000" stroke="#000000" stroke-linecap="round" stroke-linejoin="round" stroke-width="3.000000"
	d="
M178.750000,90.500000 
	C173.441788,86.615814 173.844528,85.774239 167.500000,91.000000 
"/>
<path fill="none" opacity="1.000000" stroke="#000000" stroke-linecap="round" stroke-linejoin="round" stroke-width="4.000000"
	d="
M66.500000,256.000000 
	C70.808640,257.120361 75.138931,257.856842 77.100166,262.961517 
	C78.654251,267.006470 83.680557,265.266968 86.500000,267.500000 
"/>
<path fill="none" opacity="1.000000" stroke="#000000" stroke-linecap="round" stroke-linejoin="round" stroke-width="4.000000"
	d="
M333.500000,368.500000 
	C339.644379,367.456390 341.967224,372.432312 344.911987,376.071228 
	C346.516724,378.054260 347.506622,380.417816 350.500000,380.500000 
"/>
<path fill="none" opacity="1.000000" stroke="#000000" stroke-linecap="round" stroke-linejoin="round" stroke-width="3.000000"
	d="
M72.500000,247.500000 
	C76.485352,249.351639 79.595772,252.296951 82.500000,255.500000 
"/>
<path fill="none" opacity="1.000000" stroke="#000000" stroke-linecap="round" stroke-linejoin="round" stroke-width="3.000000"
	d="
M82.500000,280.500000 
	C82.652550,278.104523 80.161629,279.674225 79.500000,278.500000 
	C75.932373,280.845551 72.061981,278.140717 68.521584,279.081268 
	C63.730125,280.354187 58.786774,279.674225 53.971981,280.888947 
	C49.324940,282.061340 44.884762,279.955597 40.500000,278.500000 
"/>
<path fill="none" opacity="1.000000" stroke="#000000" stroke-linecap="round" stroke-linejoin="round" stroke-width="3.000000"
	d="
M183.500000,104.500000 
	C180.166672,105.500000 176.833328,106.500000 173.500000,107.500000 
"/>
<path fill="none" opacity="1.000000" stroke="#000000" stroke-linecap="round" stroke-linejoin="round" stroke-width="3.000000"
	d="
M216.500000,156.000000 
	C209.216003,158.337387 201.844864,156.840744 194.500000,156.500000 
"/>
<path fill="none" opacity="1.000000" stroke="#000000" stroke-linecap="round" stroke-linejoin="round" stroke-width="3.000000"
	d="
M281.500000,369.500000 
	C285.249084,369.793976 288.256592,371.941864 291.500000,373.500000 
"/>
<path fill="none" opacity="1.000000" stroke="#000000" stroke-linecap="round" stroke-linejoin="round" stroke-width="3.000000"
	d="
M312.000000,310.500000 
	C309.128265,313.271820 310.898438,317.436188 309.000000,320.500000 
"/>
<path fill="none" opacity="1.000000" stroke="#000000" stroke-linecap="round" stroke-linejoin="round" stroke-width="3.000000"
	d="
M78.000000,278.500000 
	C78.006943,276.948425 76.225273,276.654205 75.853615,275.033569 
	C75.129433,271.875793 73.046425,269.853912 69.515648,272.025452 
	C67.430115,273.308105 65.433418,272.030243 63.512836,271.857391 
	C58.336994,271.391479 53.587994,273.879913 48.500000,273.500000 
"/>
<path fill="none" opacity="1.000000" stroke="#000000" stroke-linecap="round" stroke-linejoin="round" stroke-width="2.000000"
	d="
M159.500000,52.500000 
	C159.976730,56.500000 157.699768,60.500000 159.500000,64.500000 
"/>
<path fill="none" opacity="1.000000" stroke="#000000" stroke-linecap="round" stroke-linejoin="round" stroke-width="4.000000"
	d="
M88.499992,362.000000 
	C88.999992,361.833313 89.702423,361.365051 89.970024,361.544647 
	C95.070282,364.967682 100.299423,362.884644 105.500000,362.000000 
"/>
<path fill="none" opacity="1.000000" stroke="#000000" stroke-linecap="round" stroke-linejoin="round" stroke-width="3.000000"
	d="
M202.500000,284.500000 
	C199.346207,291.743896 204.296890,298.711639 203.195724,306.029449 
	C202.569595,310.190308 202.132233,314.784698 204.000000,319.000000 
"/>
<path fill="none" opacity="1.000000" stroke="#000000" stroke-linecap="round" stroke-linejoin="round" stroke-width="3.000000"
	d="
M332.500000,289.500000 
	C328.931580,289.205048 326.336212,291.412170 323.500000,293.000000 
"/>
<path fill="none" opacity="1.000000" stroke="#000000" stroke-linecap="round" stroke-linejoin="round" stroke-width="3.000000"
	d="
M117.500000,398.500000 
	C121.057549,399.541931 124.109352,396.960785 128.067734,397.524078 
	C132.329803,398.130615 136.984604,398.748993 141.500000,398.500000 
"/>
<path fill="none" opacity="1.000000" stroke="#000000" stroke-linecap="round" stroke-linejoin="round" stroke-width="3.000000"
	d="
M204.500000,328.500000 
	C204.330048,331.391571 204.285049,334.305206 203.000000,337.000000 
"/>
<path fill="none" opacity="1.000000" stroke="#000000" stroke-linecap="round" stroke-linejoin="round" stroke-width="4.000000"
	d="
M327.500000,358.500000 
	C330.148529,360.195709 334.381989,359.355469 335.500000,363.500000 
"/>
<path fill="none" opacity="1.000000" stroke="#000000" stroke-linecap="round" stroke-linejoin="round" stroke-width="3.000000"
	d="
M194.000000,240.000000 
	C196.262146,241.404526 196.204590,245.128738 199.500000,245.500000 
	C199.333328,246.166672 199.166672,246.833328 199.000000,247.500000 
"/>
<path fill="none" opacity="1.000000" stroke="#000000" stroke-linecap="round" stroke-linejoin="round" stroke-width="4.000000"
	d="
M268.500000,391.500000 
	C263.592407,393.219360 258.503235,392.215271 253.500000,392.500000 
"/>
<path fill="none" opacity="1.000000" stroke="#000000" stroke-linecap="round" stroke-linejoin="round" stroke-width="4.000000"
	d="
M400.500000,360.000000 
	C397.644226,359.771759 395.865723,356.096313 392.500000,357.500000 
"/>
<path fill="none" opacity="1.000000" stroke="#000000" stroke-linecap="round" stroke-linejoin="round" stroke-width="3.000000"
	d="
M321.000000,370.000000 
	C320.180176,372.202332 319.783875,374.566193 317.527954,376.042725 
	C315.646942,377.273865 316.814758,378.478851 318.000000,379.500000 
"/>
<path fill="none" opacity="1.000000" stroke="#000000" stroke-linecap="round" stroke-linejoin="round" stroke-width="4.000000"
	d="
M372.500000,293.000000 
	C368.531891,297.604553 366.697876,303.448242 363.500000,308.500000 
"/>
<path fill="none" opacity="1.000000" stroke="#000000" stroke-linecap="round" stroke-linejoin="round" stroke-width="2.000000"
	d="
M45.500000,342.000000 
	C42.708790,342.434784 40.470474,344.638855 37.500000,344.500000 
"/>
<path fill="none" opacity="1.000000" stroke="#000000" stroke-linecap="round" stroke-linejoin="round" stroke-width="3.000000"
	d="
M287.500000,250.500000 
	C289.193329,252.536194 289.948181,254.974579 290.500000,257.500000 
"/>
<path fill="none" opacity="1.000000" stroke="#000000" stroke-linecap="round" stroke-linejoin="round" stroke-width="3.000000"
	d="
M298.500000,378.500000 
	C299.060883,381.596893 295.516571,382.357880 294.904297,384.977631 
	C293.968414,388.982300 294.025604,392.974365 294.000000,397.000000 
"/>
<path fill="none" opacity="1.000000" stroke="#000000" stroke-linecap="round" stroke-linejoin="round" stroke-width="3.000000"
	d="
M296.000000,369.500000 
	C296.534973,373.315796 295.019592,377.309906 297.000000,381.000000 
"/>
<path fill="none" opacity="1.000000" stroke="#000000" stroke-linecap="round" stroke-linejoin="round" stroke-width="3.000000"
	d="
M200.500000,54.500000 
	C201.401215,57.218266 205.268372,58.029858 205.000000,61.500000 
"/>
<path fill="none" opacity="1.000000" stroke="#000000" stroke-linecap="round" stroke-linejoin="round" stroke-width="3.000000"
	d="
M203.500000,29.500000 
	C201.920258,29.413069 202.079849,27.586819 200.713196,26.845306 
	C199.052261,29.490120 195.270767,26.478973 193.500000,29.500000 
"/>
<path fill="none" opacity="1.000000" stroke="#000000" stroke-linecap="round" stroke-linejoin="round" stroke-width="3.000000"
	d="
M207.500000,315.500000 
	C212.510117,315.318512 217.447998,314.053223 222.500000,314.500000 
"/>
<path fill="none" opacity="1.000000" stroke="#000000" stroke-linecap="round" stroke-linejoin="round" stroke-width="3.000000"
	d="
M195.500000,139.500000 
	C192.399048,137.913086 190.359344,140.305847 188.000000,141.500000 
"/>
<path fill="none" opacity="1.000000" stroke="#000000" stroke-linecap="round" stroke-linejoin="round" stroke-width="2.000000"
	d="
M308.500000,208.000000 
	C306.216370,208.972473 304.337067,211.077118 301.500000,210.500000 
"/>
<path fill="none" opacity="1.000000" stroke="#000000" stroke-linecap="round" stroke-linejoin="round" stroke-width="2.000000"
	d="
M289.500000,311.500000 
	C286.166656,311.500000 282.833344,311.500000 279.500000,311.500000 
"/>
<path fill="none" opacity="1.000000" stroke="#000000" stroke-linecap="round" stroke-linejoin="round" stroke-width="4.000000"
	d="
M82.500000,298.500000 
	C78.840691,295.385986 74.572716,294.808136 70.000000,295.500000 
"/>
<path fill="none" opacity="1.000000" stroke="#000000" stroke-linecap="round" stroke-linejoin="round" stroke-width="2.000000"
	d="
M278.500000,311.000000 
	C273.521759,310.180603 268.504150,310.542389 263.500000,310.500000 
"/>
<path fill="none" opacity="1.000000" stroke="#000000" stroke-linecap="round" stroke-linejoin="round" stroke-width="2.000000"
	d="
M352.500000,354.500000 
	C354.000000,356.833313 355.500000,359.166656 357.000000,361.500000 
"/>
<path fill="none" opacity="1.000000" stroke="#000000" stroke-linecap="round" stroke-linejoin="round" stroke-width="3.000000"
	d="
M196.000000,71.500000 
	C197.961533,74.115379 194.201492,75.300377 194.500000,77.500000 
"/>
<path fill="none" opacity="1.000000" stroke="#000000" stroke-linecap="round" stroke-linejoin="round" stroke-width="3.000000"
	d="
M219.500000,294.500000 
	C216.432861,295.630371 213.266052,296.129456 210.000000,296.000000 
"/>
<path fill="none" opacity="1.000000" stroke="#000000" stroke-linecap="round" stroke-linejoin="round" stroke-width="4.000000"
	d="
M77.500000,344.500000 
	C72.771774,342.942963 68.162506,344.716888 63.500000,345.000000 
"/>
<path fill="none" opacity="1.000000" stroke="#000000" stroke-linecap="round" stroke-linejoin="round" stroke-width="3.000000"
	d="
M165.500000,90.000000 
	C167.529999,93.509743 169.646240,96.900078 174.500000,96.500000 
"/>
<path fill="none" opacity="1.000000" stroke="#000000" stroke-linecap="round" stroke-linejoin="round" stroke-width="3.000000"
	d="
M197.000000,88.000000 
	C198.564316,90.059158 195.821823,92.449600 197.500000,94.500000 
"/>
<path fill="none" opacity="1.000000" stroke="#000000" stroke-linecap="round" stroke-linejoin="round" stroke-width="4.000000"
	d="
M59.500000,263.500000 
	C63.773956,261.364594 66.034744,265.939758 69.500000,266.500000 
"/>
<path fill="none" opacity="1.000000" stroke="#000000" stroke-linecap="round" stroke-linejoin="round" stroke-width="3.000000"
	d="
M297.500000,359.500000 
	C297.495270,361.717224 297.762085,363.976227 296.500000,366.000000 
"/>
<path fill="none" opacity="1.000000" stroke="#000000" stroke-linecap="round" stroke-linejoin="round" stroke-width="3.000000"
	d="
M209.500000,27.000000 
	C210.583664,27.910583 211.667343,28.821167 213.148560,30.065800 
	C211.908722,30.503111 211.204361,30.751556 210.500000,31.000000 
"/>
<path fill="none" opacity="1.000000" stroke="#000000" stroke-linecap="round" stroke-linejoin="round" stroke-width="3.000000"
	d="
M359.000000,363.000000 
	C363.413910,365.044647 367.528229,367.824615 372.500000,368.500000 
"/>
<path fill="none" opacity="1.000000" stroke="#000000" stroke-linecap="round" stroke-linejoin="round" stroke-width="3.000000"
	d="
M227.500000,85.500000 
	C225.764847,86.281967 222.941116,86.083801 224.283707,89.582993 
	C224.422852,89.945618 223.659271,93.036118 221.500000,93.500000 
"/>
<path fill="none" opacity="1.000000" stroke="#000000" stroke-linecap="round" stroke-linejoin="round" stroke-width="3.000000"
	d="
M206.500000,31.500000 
	C206.336853,29.634390 206.703522,27.927723 208.051437,26.443554 
	C206.000000,24.780348 204.000000,23.992447 202.000000,26.500000 
"/>
<path fill="none" opacity="1.000000" stroke="#000000" stroke-linecap="round" stroke-linejoin="round" stroke-width="2.000000"
	d="
M226.000000,349.500000 
	C225.484482,348.385376 224.681229,347.352966 225.281082,345.421631 
	C219.481674,345.561737 214.028061,347.259125 208.500000,346.500000 
"/>
<path fill="none" opacity="1.000000" stroke="#000000" stroke-linecap="round" stroke-linejoin="round" stroke-width="2.000000"
	d="
M392.000000,392.500000 
	C393.893890,393.501740 396.143188,394.187531 396.000000,397.000000 
"/>
<path fill="none" opacity="1.000000" stroke="#000000" stroke-linecap="round" stroke-linejoin="round" stroke-width="3.000000"
	d="
M187.000000,88.000000 
	C189.172791,88.827217 188.655289,92.344719 191.500000,92.500000 
"/>
<path fill="none" opacity="1.000000" stroke="#000000" stroke-linecap="round" stroke-linejoin="round" stroke-width="3.000000"
	d="
M145.000000,200.500000 
	C144.939621,202.453232 144.453110,204.290237 143.500000,206.000000 
"/>
<path fill="none" opacity="1.000000" stroke="#000000" stroke-linecap="round" stroke-linejoin="round" stroke-width="3.000000"
	d="
M109.500000,327.500000 
	C108.314468,329.055359 109.131866,331.812439 106.500000,332.500000 
"/>
<path fill="none" opacity="1.000000" stroke="#000000" stroke-linecap="round" stroke-linejoin="round" stroke-width="3.000000"
	d="
M61.500000,346.000000 
	C57.557888,346.575867 54.004837,348.221649 50.500000,350.000000 
"/>
<path fill="none" opacity="1.000000" stroke="#000000" stroke-linecap="round" stroke-linejoin="round" stroke-width="2.000000"
	d="
M304.000000,251.500000 
	C302.837067,253.379349 303.130402,254.634598 305.500000,255.000000 
"/>
<path fill="none" opacity="1.000000" stroke="#000000" stroke-linecap="round" stroke-linejoin="round" stroke-width="3.000000"
	d="
M101.500000,362.000000 
	C101.205032,358.109131 98.412437,357.964691 95.500000,358.000000 
"/>
<path fill="none" opacity="1.000000" stroke="#000000" stroke-linecap="round" stroke-linejoin="round" stroke-width="4.000000"
	d="
M97.500000,234.500000 
	C101.454491,234.782898 103.001724,238.275482 105.500000,240.500000 
"/>
<path fill="none" opacity="1.000000" stroke="#000000" stroke-linecap="round" stroke-linejoin="round" stroke-width="3.000000"
	d="
M210.500000,189.500000 
	C206.703568,191.075043 203.494888,188.535828 200.000000,188.000000 
"/>
<path fill="none" opacity="1.000000" stroke="#000000" stroke-linecap="round" stroke-linejoin="round" stroke-width="2.000000"
	d="
M87.500000,268.000000 
	C89.000000,269.000000 90.500000,270.000000 92.000000,271.000000 
"/>
<path fill="none" opacity="1.000000" stroke="#000000" stroke-linecap="round" stroke-linejoin="round" stroke-width="2.000000"
	d="
M209.500000,140.000000 
	C205.166672,142.449051 200.833328,139.608246 196.500000,140.000000 
"/>
<path fill="none" opacity="1.000000" stroke="#000000" stroke-linecap="round" stroke-linejoin="round" stroke-width="6.000000"
	d="
M179.250000,72.000000 
	C180.185562,76.017838 184.611374,73.444351 186.606644,75.913834 
	C187.672302,77.232758 189.833328,77.666664 191.500000,78.500000 
"/>
<path fill="none" opacity="1.000000" stroke="#000000" stroke-linecap="round" stroke-linejoin="round" stroke-width="2.000000"
	d="
M62.500000,262.500000 
	C61.374481,260.202332 60.274925,257.857086 57.000000,259.500000 
"/>
<path fill="none" opacity="1.000000" stroke="#000000" stroke-linecap="round" stroke-linejoin="round" stroke-width="2.000000"
	d="
M203.500000,2.999999 
	C202.166672,3.666666 200.833328,4.333333 199.500000,4.999999 
"/>
<path fill="none" opacity="1.000000" stroke="#000000" stroke-linecap="round" stroke-linejoin="round" stroke-width="2.000000"
	d="
M95.500000,316.500000 
	C94.179359,316.231781 92.721916,317.058014 91.500000,316.000000 
"/>
<path fill="none" opacity="1.000000" stroke="#000000" stroke-linecap="round" stroke-linejoin="round" stroke-width="3.000000"
	d="
M96.500000,321.500000 
	C98.166664,321.833344 99.826874,322.397919 101.501541,322.444702 
	C103.888504,322.511353 103.478020,324.070221 103.500000,325.500000 
"/>
<path fill="none" opacity="1.000000" stroke="#000000" stroke-linecap="round" stroke-linejoin="round" stroke-width="3.000000"
	d="
M304.000000,258.000000 
	C302.224426,260.629486 303.076752,263.083771 304.500000,265.500000 
"/>
<path fill="none" opacity="1.000000" stroke="#000000" stroke-linecap="round" stroke-linejoin="round" stroke-width="3.000000"
	d="
M312.500000,209.500000 
	C315.008545,212.389343 319.287415,211.541367 322.000000,214.000000 
"/>
<path fill="none" opacity="1.000000" stroke="#000000" stroke-linecap="round" stroke-linejoin="round" stroke-width="2.000000"
	d="
M302.500000,248.500000 
	C304.287872,248.387894 303.712128,251.112106 305.500000,251.000000 
"/>
<path fill="none" opacity="1.000000" stroke="#000000" stroke-linecap="round" stroke-linejoin="round" stroke-width="2.000000"
	d="
M151.000000,52.000000 
	C149.962967,50.925854 148.652451,51.766182 147.500000,51.500000 
"/>
<path fill="none" opacity="1.000000" stroke="#000000" stroke-linecap="round" stroke-linejoin="round" stroke-width="3.000000"
	d="
M223.500000,125.000000 
	C220.493851,124.607628 218.673553,126.417549 217.000000,128.500000 
"/>
<path fill="none" opacity="1.000000" stroke="#000000" stroke-linecap="round" stroke-linejoin="round" stroke-width="3.000000"
	d="
M250.000000,242.000000 
	C247.238007,242.190353 243.499847,240.916428 244.000000,246.000000 
"/>
<path fill="none" opacity="1.000000" stroke="#000000" stroke-linecap="round" stroke-linejoin="round" stroke-width="2.000000"
	d="
M52.500000,221.000000 
	C50.062321,223.303345 49.172798,225.896988 51.000000,229.000000 
"/>
<path fill="none" opacity="1.000000" stroke="#000000" stroke-linecap="round" stroke-linejoin="round" stroke-width="2.000000"
	d="
M54.500000,254.500000 
	C53.230164,255.730164 53.230164,255.730164 55.500000,258.000000 
"/>
<path fill="none" opacity="1.000000" stroke="#000000" stroke-linecap="round" stroke-linejoin="round" stroke-width="3.000000"
	d="
M257.500000,208.500000 
	C257.636841,211.299118 256.876465,214.322556 259.500000,216.500000 
"/>
<path fill="none" opacity="1.000000" stroke="#000000" stroke-linecap="round" stroke-linejoin="round" stroke-width="3.000000"
	d="
M53.500000,341.500000 
	C51.166668,341.398743 48.833332,342.927185 46.500000,341.500000 
"/>
</svg>