<?xml version="1.0" standalone="no"?>
<!DOCTYPE svg PUBLIC "-//W3C//DTD SVG 20010904//EN"
 "http://www.w3.org/TR/2001/REC-SVG-20010904/DTD/svg10.dtd">
<svg version="1.0" xmlns="http://www.w3.org/2000/svg"
 width="400.000000pt" height="400.000000pt" viewBox="0 0 400.000000 400.000000"
 preserveAspectRatio="xMidYMid meet">
<metadata>
Created by potrace 1.14, written by Peter Selinger 2001-2017
</metadata>
<g transform="translate(0.000000,400.000000) scale(0.100000,-0.100000)"
fill="#000000" stroke="none">
<path d="M1945 3970 c-34 -17 -80 -33 -100 -35 -5 0 -17 -5 -25 -10 -8 -5 -44
-24 -80 -41 -70 -35 -139 -97 -202 -181 -40 -55 -98 -167 -98 -191 0 -7 -3
-11 -7 -9 -5 3 -8 -5 -9 -16 -1 -12 -11 -60 -24 -107 -21 -77 -32 -237 -22
-325 1 -11 -1 -53 -4 -93 -4 -51 -2 -94 9 -140 9 -37 19 -83 22 -102 11 -62
15 -68 51 -85 30 -14 43 -33 83 -115 47 -94 48 -101 44 -167 -9 -117 28 -220
133 -373 99 -144 125 -176 165 -203 18 -12 33 -26 33 -32 1 -13 90 -54 94 -43
6 15 -20 38 -43 38 -13 0 -34 13 -48 30 -14 17 -30 30 -34 30 -18 0 -66 59
-60 74 4 11 1 13 -10 9 -13 -5 -15 -2 -11 15 4 13 1 22 -5 22 -11 0 -67 71
-69 87 -1 4 -8 13 -16 19 -9 7 -12 16 -7 24 5 8 4 11 -2 7 -6 -4 -18 8 -28 26
-15 28 -16 37 -5 58 7 13 9 21 5 17 -5 -4 -15 -2 -24 4 -13 10 -14 10 -3 -2
16 -19 15 -35 -2 -21 -8 6 -16 22 -19 34 -3 12 -12 48 -20 79 -8 31 -12 59 -9
63 3 3 5 25 4 48 l-3 42 41 -45 c22 -25 48 -58 58 -73 19 -32 104 -97 127 -97
8 0 15 -4 15 -9 0 -13 60 -42 71 -35 15 9 0 24 -24 24 -12 0 -28 9 -35 20 -7
11 -19 20 -27 20 -8 0 -15 5 -15 10 0 6 -6 10 -13 10 -13 0 -87 65 -87 75 0 3
-8 13 -17 23 -64 67 -93 103 -93 118 0 10 -6 25 -13 33 -8 9 -20 32 -27 51 -8
19 -27 56 -43 82 -25 39 -29 58 -30 121 -1 41 -5 73 -9 71 -3 -2 -9 2 -12 8
-3 7 -4 -26 -2 -75 5 -82 4 -87 -13 -77 -21 11 -34 37 -25 51 3 5 0 9 -6 9 -8
0 -8 6 0 20 8 15 7 27 -4 48 -15 29 -28 242 -15 242 11 0 26 -23 44 -72 15
-41 16 -52 5 -78 -10 -24 -15 -28 -22 -18 -7 9 -8 5 -4 -12 3 -14 6 -31 6 -37
0 -29 18 -10 24 25 22 133 38 377 28 413 -11 43 1 98 40 179 15 30 26 55 25
55 -31 14 -57 40 -57 58 0 19 2 18 23 -11 21 -30 55 -40 50 -14 -2 6 7 33 19
59 12 26 20 54 19 60 -1 7 4 11 11 9 7 -1 10 -1 6 1 -14 8 -8 25 6 20 20 -8
28 4 15 20 -9 10 -8 13 0 13 7 0 19 6 26 13 36 31 46 37 88 48 38 9 49 8 71
-6 26 -17 47 -13 45 8 0 8 -2 9 -5 1 -3 -8 -17 -5 -41 7 -25 13 -40 16 -47 9
-6 -6 -19 -9 -30 -9 -17 1 -18 2 -3 6 19 5 23 23 5 23 -21 -1 -51 -27 -36 -32
7 -3 4 -7 -9 -10 -15 -4 -20 -1 -19 9 3 18 43 42 71 43 11 0 27 5 35 11 12 9
10 10 -9 5 -13 -2 -20 -1 -15 3 12 11 86 36 98 33 5 -2 6 6 3 17 -6 23 36 57
55 45 6 -4 45 -7 86 -5 43 1 80 -3 88 -10 7 -6 19 -7 25 -3 8 4 9 3 5 -4 -4
-7 -23 -9 -50 -6 -36 5 -155 -12 -144 -21 2 -1 19 -5 38 -9 22 -4 30 -3 21 3
-10 6 -2 11 27 16 23 4 47 3 54 -2 18 -11 58 -11 51 1 -4 6 1 6 13 2 10 -4 26
-9 34 -11 8 -1 14 -7 13 -13 -1 -5 5 -9 15 -8 9 0 16 -5 15 -11 -2 -7 2 -13 7
-13 15 0 12 -26 -5 -40 -8 -7 -15 -17 -15 -23 0 -24 34 25 36 51 4 56 5 58 13
37 5 -11 6 -25 4 -31 -2 -7 0 -15 6 -19 6 -3 11 -1 11 6 0 6 8 17 17 24 14 10
20 8 39 -12 15 -16 27 -21 40 -16 17 6 17 5 5 -10 -18 -22 -29 -21 -50 5 -11
12 -23 18 -30 14 -13 -9 31 -56 52 -56 7 0 6 -4 -3 -10 -10 -6 -11 -10 -2 -10
29 0 132 -134 162 -210 11 -30 25 -64 30 -75 35 -73 60 -238 39 -255 -7 -6 13
-120 21 -120 3 0 5 -19 5 -42 -1 -24 2 -88 6 -143 4 -59 3 -105 -3 -112 -5 -6
-10 -33 -12 -60 -1 -26 -7 -57 -14 -69 -9 -16 -8 -21 3 -21 17 0 35 74 28 112
-4 18 -1 25 11 25 19 0 23 64 5 75 -26 17 1 146 38 183 8 9 14 45 15 105 5
192 8 303 10 343 5 85 -106 249 -234 346 -34 26 -67 48 -72 48 -4 0 -29 15
-55 34 -89 65 -121 76 -236 80 -86 3 -112 0 -140 -14z m106 -3 c22 2 46 -1 53
-7 8 -5 24 -9 37 -8 19 2 23 -1 21 -16 -2 -13 0 -16 10 -10 19 12 50 16 44 5
-3 -5 5 -8 19 -8 14 0 40 -12 59 -27 19 -14 41 -26 48 -26 9 0 9 -3 -2 -10 -8
-5 -11 -10 -7 -10 5 0 5 -5 2 -11 -5 -6 -11 -4 -19 7 -9 12 -15 14 -20 6 -10
-17 -36 -15 -36 3 0 17 -30 55 -44 55 -5 0 -1 -9 8 -19 21 -23 4 -38 -18 -15
-9 8 -25 16 -35 17 -11 0 -18 4 -15 8 14 23 -137 44 -181 25 l-20 -9 20 16
c11 8 21 20 21 26 3 21 6 26 10 15 3 -6 21 -9 45 -7z m129 -2 c0 -3 -2 -5 -5
-5 -3 0 -5 2 -5 5 0 3 2 5 5 5 3 0 5 -2 5 -5z m-203 -12 c-4 -3 -10 -3 -14 0
-3 4 0 7 7 7 7 0 10 -3 7 -7z m223 2 c0 -3 -2 -5 -5 -5 -3 0 -5 2 -5 5 0 3 2
5 5 5 3 0 5 -2 5 -5z m-260 -15 c0 -5 -5 -10 -11 -10 -5 0 -7 5 -4 10 3 6 8
10 11 10 2 0 4 -4 4 -10z m-104 -45 c-11 -8 -16 -15 -10 -15 12 0 -58 -42
-115 -69 -29 -14 -41 -26 -38 -35 8 -19 -27 -58 -45 -51 -8 3 -21 -2 -29 -12
-13 -16 -12 -17 3 -5 15 12 17 11 15 -6 -1 -13 -6 -18 -16 -14 -9 3 -12 1 -7
-6 4 -7 2 -12 -4 -12 -7 0 -9 -9 -5 -22 6 -22 5 -22 -9 -5 -14 18 -15 17 -18
-15 -2 -25 -8 -34 -25 -36 -13 -2 -23 -8 -23 -13 0 -6 5 -7 12 -3 7 4 8 3 4
-4 -12 -19 -37 -2 -26 18 5 9 6 21 2 25 -4 4 3 2 16 -4 21 -11 22 -10 16 13
-3 15 -2 26 2 26 5 0 22 23 39 50 16 28 35 50 43 50 7 0 11 4 8 9 -8 13 53 57
126 91 35 17 54 30 43 30 -18 1 -17 2 5 15 35 20 62 19 36 0z m24 -9 c0 -3 -4
-8 -10 -11 -5 -3 -10 -1 -10 4 0 6 5 11 10 11 6 0 10 -2 10 -4z m-100 -11 c0
-3 -2 -5 -5 -5 -3 0 -5 2 -5 5 0 3 2 5 5 5 3 0 5 -2 5 -5z m648 -49 c17 -9 32
-23 32 -31 0 -9 6 -12 17 -8 11 4 14 3 9 -5 -4 -7 -2 -12 4 -12 6 0 9 -4 6 -9
-4 -5 3 -7 14 -4 11 3 20 0 20 -6 0 -6 -7 -11 -16 -11 -10 0 0 -13 24 -32 30
-24 39 -38 36 -53 -4 -16 -3 -17 5 -5 8 12 13 12 30 -5 12 -10 21 -23 20 -29
-5 -39 3 -76 15 -76 7 0 16 -11 18 -25 4 -20 3 -23 -8 -14 -8 6 -11 16 -7 22
4 6 0 8 -10 4 -11 -4 -17 -1 -17 8 0 8 -4 15 -10 15 -13 0 -13 -6 5 -41 9 -16
20 -27 25 -24 6 4 7 -6 4 -24 -4 -19 -1 -37 7 -47 8 -10 13 -38 12 -75 -1 -36
2 -57 7 -54 6 4 10 4 10 1 0 -17 -22 -13 -29 6 -6 17 -8 7 -7 -38 0 -34 5 -60
10 -57 4 3 5 -3 2 -13 -3 -11 -2 -42 2 -70 6 -36 5 -53 -4 -62 -17 -15 -29 41
-21 96 3 20 3 29 1 20 -3 -10 -10 -18 -15 -18 -6 0 -8 9 -4 20 14 44 7 156
-14 217 -24 72 -26 88 -6 53 14 -24 14 -24 15 -3 0 12 -15 42 -34 66 -19 24
-46 66 -61 93 -14 27 -35 56 -45 65 -11 9 -16 20 -12 23 3 4 -7 18 -23 31 -22
18 -24 23 -10 19 17 -6 18 -5 7 7 -7 8 -17 15 -22 15 -6 1 -16 2 -22 3 -8 1
-6 7 6 16 21 16 15 45 -9 45 -8 0 -15 6 -15 13 0 18 12 30 19 19 3 -5 21 -17
39 -26z m122 -91 c0 -3 -2 -5 -5 -5 -3 0 -5 2 -5 5 0 3 2 5 5 5 3 0 5 -2 5 -5z
m30 -40 c0 -3 -2 -5 -5 -5 -3 0 -5 2 -5 5 0 3 2 5 5 5 3 0 5 -2 5 -5z m-997
-125 c-5 -21 -33 -49 -33 -33 0 9 29 53 35 53 2 0 1 -9 -2 -20z m1081 -6 c3
-8 2 -12 -4 -9 -6 3 -10 10 -10 16 0 14 7 11 14 -7z m-1160 -67 c-3 -9 -10
-17 -15 -17 -12 0 -11 17 1 25 6 4 7 12 4 18 -5 9 -4 9 5 1 6 -6 9 -18 5 -27z
m76 18 c0 -3 -2 -5 -5 -5 -3 0 -5 2 -5 5 0 3 2 5 5 5 3 0 5 -2 5 -5z m1000
-38 c0 -5 -4 -5 -10 -2 -5 3 -10 14 -10 23 0 15 2 15 10 2 5 -8 10 -19 10 -23z
m-1065 -14 c-5 -10 -10 -29 -12 -43 -2 -14 -12 -48 -22 -76 -17 -47 -17 -167
0 -219 5 -19 -13 -95 -23 -95 -6 0 -8 6 -5 14 15 39 19 89 7 81 -9 -6 -10 -1
-5 16 9 28 3 24 -14 -9 -9 -17 -9 -22 0 -20 6 2 14 -3 17 -11 3 -9 0 -11 -8
-6 -9 5 -10 2 -5 -14 5 -16 3 -20 -10 -15 -10 4 -14 13 -10 22 3 8 0 19 -7 24
-10 6 -10 8 -1 8 7 0 10 6 7 14 -3 8 -1 17 5 21 8 4 8 12 0 27 -13 25 -5 88
13 100 10 6 10 8 -1 8 -11 0 -10 5 4 20 10 11 15 23 12 27 -4 3 -7 1 -7 -6 0
-7 -4 -9 -10 -6 -6 4 -4 17 5 36 11 20 12 29 4 29 -8 0 -6 7 4 18 10 10 17 22
17 25 0 11 43 57 48 52 2 -2 1 -12 -3 -22z m22 10 c-4 -3 -7 0 -7 7 0 7 3 10
7 7 3 -4 3 -10 0 -14z m1163 7 c0 -5 -5 -10 -11 -10 -5 0 -7 5 -4 10 3 6 8 10
11 10 2 0 4 -4 4 -10z m-33 -17 c-4 -3 -7 0 -7 7 0 7 3 10 7 7 3 -4 3 -10 0
-14z m10 -19 c-3 -3 -12 -4 -19 -1 -8 3 -5 6 6 6 11 1 17 -2 13 -5z m-7 -19
c0 -3 -2 -5 -5 -5 -3 0 -5 2 -5 5 0 3 2 5 5 5 3 0 5 -2 5 -5z m-3 -197 c-3 -8
-6 -5 -6 6 -1 11 2 17 5 13 3 -3 4 -12 1 -19z m-1176 -44 c-5 -16 -10 -21 -10
-12 -1 18 10 51 15 45 2 -1 -1 -16 -5 -33z m-71 -9 c0 -3 -2 -5 -5 -5 -3 0 -5
2 -5 5 0 3 2 5 5 5 3 0 5 -2 5 -5z m1214 -151 c3 -8 2 -12 -4 -9 -6 3 -10 10
-10 16 0 14 7 11 14 -7z m-1157 -31 c-4 -3 -7 0 -7 7 0 7 3 10 7 7 3 -4 3 -10
0 -14z m1163 -18 c0 -3 -2 -5 -5 -5 -3 0 -5 2 -5 5 0 3 2 5 5 5 3 0 5 -2 5 -5z
m-625 -1255 c3 -6 -1 -7 -9 -4 -18 7 -21 14 -7 14 6 0 13 -4 16 -10z M2143
3943 c4 -3 10 -3 14 0 3 4 0 7 -7 7 -7 0 -10 -3 -7 -7z M2175 3910 c-3 -6 1
-7 9 -4 18 7 21 14 7 14 -6 0 -13 -4 -16 -10z M2260 3902 c1 -4 7 -18 14 -31
10 -18 14 -20 19 -9 3 8 -3 22 -14 31 -10 9 -19 13 -19 9z M1640 3775 c0 -3 2
-5 5 -5 3 0 5 2 5 5 0 3 -2 5 -5 5 -3 0 -5 -2 -5 -5z M2408 3803 c7 -3 16 -2
19 1 4 3 -2 6 -13 5 -11 0 -14 -3 -6 -6z M2400 3785 c0 -3 2 -5 5 -5 3 0 5 2
5 5 0 3 -2 5 -5 5 -3 0 -5 -2 -5 -5z M2420 3765 c0 -3 2 -5 5 -5 3 0 5 2 5 5
0 3 -2 5 -5 5 -3 0 -5 -2 -5 -5z M2450 3755 c0 -3 2 -5 5 -5 3 0 5 2 5 5 0 3
-2 5 -5 5 -3 0 -5 -2 -5 -5z M2440 3730 c0 -7 3 -10 7 -7 3 4 3 10 0 14 -4 3
-7 0 -7 -7z M2450 3705 c0 -3 2 -5 5 -5 3 0 5 2 5 5 0 3 -2 5 -5 5 -3 0 -5 -2
-5 -5z M2475 3700 c3 -5 8 -10 11 -10 3 0 2 5 -1 10 -3 6 -8 10 -11 10 -3 0
-2 -4 1 -10z M2505 3681 c3 -5 -1 -11 -7 -13 -7 -3 -1 -7 14 -10 28 -5 30 15
2 26 -8 3 -13 2 -9 -3z M2463 3673 c4 -3 10 -3 14 0 3 4 0 7 -7 7 -7 0 -10 -3
-7 -7z M2571 3644 c1 -21 16 -47 21 -38 4 5 0 18 -8 29 -8 10 -14 15 -13 9z
M2555 3620 c3 -5 8 -10 11 -10 3 0 2 5 -1 10 -3 6 -8 10 -11 10 -3 0 -2 -4 1
-10z M2526 3602 c-3 -6 1 -12 9 -16 8 -3 15 -13 15 -23 0 -12 3 -14 11 -6 8 8
6 17 -9 33 -11 12 -23 17 -26 12z M2590 3405 c0 -3 2 -5 5 -5 3 0 5 2 5 5 0 3
-2 5 -5 5 -3 0 -5 -2 -5 -5z M2610 3405 c0 -3 2 -5 5 -5 3 0 5 2 5 5 0 3 -2 5
-5 5 -3 0 -5 -2 -5 -5z M2610 3349 c0 -27 2 -29 15 -15 8 8 12 22 9 30 -10 27
-24 18 -24 -15z M2622 3100 c0 -14 2 -19 5 -12 2 6 2 18 0 25 -3 6 -5 1 -5
-13z M1415 3240 c-7 -21 0 -40 16 -40 12 0 12 47 0 55 -5 3 -12 -4 -16 -15z
m12 -22 c-3 -8 -6 -5 -6 6 -1 11 2 17 5 13 3 -3 4 -12 1 -19z M1430 3180 c0
-7 3 -10 7 -7 3 4 3 10 0 14 -4 3 -7 0 -7 -7z M2260 3985 c0 -3 2 -5 5 -5 3 0
5 2 5 5 0 3 -2 5 -5 5 -3 0 -5 -2 -5 -5z M2290 3985 c0 -3 2 -5 5 -5 3 0 5 2
5 5 0 3 -2 5 -5 5 -3 0 -5 -2 -5 -5z M1670 3895 c0 -3 2 -5 5 -5 3 0 5 2 5 5
0 3 -2 5 -5 5 -3 0 -5 -2 -5 -5z M1923 3893 c4 -3 10 -3 14 0 3 4 0 7 -7 7 -7
0 -10 -3 -7 -7z M1886 3882 c-3 -5 1 -9 9 -9 8 0 15 4 15 9 0 4 -4 8 -9 8 -6
0 -12 -4 -15 -8z M2053 3873 c4 -3 10 -3 14 0 3 4 0 7 -7 7 -7 0 -10 -3 -7 -7z
M2020 3860 c8 -5 22 -9 30 -9 10 0 8 3 -5 9 -27 12 -43 12 -25 0z M1905 3850
c-3 -5 -13 -10 -22 -10 -18 0 -86 -40 -79 -47 2 -3 16 3 30 13 15 9 29 14 32
11 3 -3 -4 -10 -15 -17 -12 -6 -19 -15 -16 -20 7 -11 54 31 48 43 -2 4 13 7
34 7 26 0 34 3 24 9 -11 7 -10 10 5 14 14 3 12 5 -8 6 -15 0 -30 -3 -33 -9z
M2070 3849 c0 -4 -15 -10 -32 -14 -54 -11 -68 -16 -68 -25 0 -11 52 -28 70
-22 9 3 2 10 -20 17 l-35 12 53 8 c28 4 52 11 52 16 0 5 5 9 11 9 5 0 7 -5 3
-12 -4 -7 -3 -8 4 -4 21 12 13 26 -13 24 -14 -1 -25 -6 -25 -9z M2130 3846 c0
-8 4 -17 9 -20 5 -4 7 3 4 14 -6 23 -13 26 -13 6z M2010 3845 c0 -3 2 -5 5 -5
3 0 5 2 5 5 0 3 -2 5 -5 5 -3 0 -5 -2 -5 -5z M2155 3843 c6 -4 10 -28 10 -52
-1 -37 0 -41 11 -26 9 12 10 23 3 36 -5 10 -8 23 -7 30 2 6 -4 14 -12 16 -9 3
-11 1 -5 -4z M1960 3835 c0 -3 2 -5 5 -5 3 0 5 2 5 5 0 3 -2 5 -5 5 -3 0 -5
-2 -5 -5z M2240 3835 c0 -3 2 -5 5 -5 3 0 5 2 5 5 0 3 -2 5 -5 5 -3 0 -5 -2
-5 -5z M1910 3815 c0 -3 2 -5 5 -5 3 0 5 2 5 5 0 3 -2 5 -5 5 -3 0 -5 -2 -5
-5z M2068 3813 c12 -2 22 -8 22 -13 0 -4 8 -10 18 -14 9 -3 23 -9 30 -12 10
-5 10 -1 1 18 -9 20 -18 25 -52 25 -23 0 -32 -2 -19 -4z M2200 3815 c0 -3 2
-5 5 -5 3 0 5 2 5 5 0 3 -2 5 -5 5 -3 0 -5 -2 -5 -5z M2490 3815 c0 -3 2 -5 5
-5 3 0 5 2 5 5 0 3 -2 5 -5 5 -3 0 -5 -2 -5 -5z M1889 3788 c0 -2 -2 -16 -4
-33 -2 -16 -1 -22 2 -12 2 9 12 17 21 17 15 0 15 -2 2 -11 -13 -9 -13 -10 0
-6 8 2 14 9 13 13 -1 5 18 9 42 10 24 0 42 -4 39 -8 -3 -4 -12 -8 -21 -8 -11
0 -8 -7 12 -26 30 -27 46 -24 28 5 -14 22 -8 31 16 24 15 -4 17 -10 11 -39 -5
-19 -4 -37 1 -40 5 -3 9 -2 8 3 -1 4 3 20 9 34 18 45 19 79 1 79 -6 0 -8 -7
-5 -16 4 -12 1 -14 -14 -10 -11 3 -29 9 -40 12 -40 11 -80 13 -85 3 -4 -5 -14
-9 -23 -9 -15 0 -15 2 -2 10 10 6 11 10 3 10 -7 0 -13 -1 -14 -2z M2240 3770
c0 -11 4 -20 9 -20 5 0 7 9 4 20 -3 11 -7 20 -9 20 -2 0 -4 -9 -4 -20z M2133
3753 c4 -3 10 -3 14 0 3 4 0 7 -7 7 -7 0 -10 -3 -7 -7z M1743 3743 c4 -3 10
-3 14 0 3 4 0 7 -7 7 -7 0 -10 -3 -7 -7z M1777 3736 c-13 -10 -15 -15 -5 -19
15 -5 -34 -27 -62 -27 -55 0 -142 -184 -139 -293 1 -31 1 -31 9 -7 4 14 9 41
9 60 2 45 44 146 59 143 7 -2 11 0 10 5 -4 13 13 52 22 52 5 0 6 -8 3 -17 -6
-15 -5 -16 9 -3 9 8 12 17 7 18 -5 2 -9 8 -9 14 0 6 7 7 16 4 9 -3 12 -2 9 5
-4 6 -1 9 6 8 19 -3 49 11 72 34 13 13 27 17 45 13 l27 -6 -25 15 c-31 18 -40
18 -63 1z M2190 3740 c0 -7 3 -10 7 -7 3 4 3 10 0 14 -4 3 -7 0 -7 -7z M2270
3745 c0 -3 2 -5 5 -5 3 0 5 2 5 5 0 3 -2 5 -5 5 -3 0 -5 -2 -5 -5z M1930 3730
c0 -5 7 -10 15 -10 11 0 12 -5 5 -25 -5 -14 -7 -25 -5 -25 14 0 25 54 13 62
-18 11 -28 10 -28 -2z M2100 3728 c0 -6 -8 -21 -17 -32 -10 -12 -11 -15 -3 -8
8 6 23 12 33 12 15 0 17 3 8 13 -6 8 -8 17 -4 20 3 4 1 7 -5 7 -7 0 -12 -5
-12 -12z M2238 3733 c7 -3 16 -2 19 1 4 3 -2 6 -13 5 -11 0 -14 -3 -6 -6z
M2160 3720 c0 -7 3 -10 7 -7 3 4 3 10 0 14 -4 3 -7 0 -7 -7z M1705 3710 c-3
-5 1 -10 9 -10 9 0 16 5 16 10 0 6 -4 10 -9 10 -6 0 -13 -4 -16 -10z M1906
3711 c-4 -6 -2 -11 5 -11 8 0 8 -4 -1 -15 -7 -9 -8 -15 -2 -15 14 0 22 24 12
39 -5 9 -10 10 -14 2z M2240 3715 c0 -3 2 -5 5 -5 3 0 5 2 5 5 0 3 -2 5 -5 5
-3 0 -5 -2 -5 -5z M2273 3713 c4 -3 10 -3 14 0 3 4 0 7 -7 7 -7 0 -10 -3 -7
-7z M1840 3705 c0 -3 2 -5 5 -5 3 0 5 2 5 5 0 3 -2 5 -5 5 -3 0 -5 -2 -5 -5z
M1990 3705 c0 -3 2 -5 5 -5 3 0 5 2 5 5 0 3 -2 5 -5 5 -3 0 -5 -2 -5 -5z
M2310 3705 c0 -3 2 -5 5 -5 3 0 5 2 5 5 0 3 -2 5 -5 5 -3 0 -5 -2 -5 -5z
M1845 3670 c-10 -11 -15 -23 -12 -27 4 -3 7 -1 7 5 0 7 5 12 11 12 6 0 17 7
25 15 13 13 13 15 1 15 -8 0 -22 -9 -32 -20z M1810 3670 c0 -7 3 -10 7 -7 3 4
3 10 0 14 -4 3 -7 0 -7 -7z M1978 3673 c7 -3 16 -2 19 1 4 3 -2 6 -13 5 -11 0
-14 -3 -6 -6z M1763 3663 c9 -2 23 -2 30 0 6 3 -1 5 -18 5 -16 0 -22 -2 -12
-5z M1926 3634 c-4 -14 -5 -28 -3 -31 3 -2 8 8 11 23 4 14 5 28 3 31 -3 2 -8
-8 -11 -23z M1704 3607 c-12 -12 -24 -38 -27 -57 l-6 -35 19 39 c11 22 27 48
36 58 24 26 3 21 -22 -5z M1813 3623 c4 -3 10 -3 14 0 3 4 0 7 -7 7 -7 0 -10
-3 -7 -7z M2410 3625 c0 -3 2 -5 5 -5 3 0 5 2 5 5 0 3 -2 5 -5 5 -3 0 -5 -2
-5 -5z M1780 3610 c0 -7 3 -10 7 -7 3 4 3 10 0 14 -4 3 -7 0 -7 -7z M1830
3605 c0 -3 2 -5 5 -5 3 0 5 2 5 5 0 3 -2 5 -5 5 -3 0 -5 -2 -5 -5z M1873 3603
c4 -3 10 -3 14 0 3 4 0 7 -7 7 -7 0 -10 -3 -7 -7z M2000 3595 c0 -3 2 -5 5 -5
3 0 5 2 5 5 0 3 -2 5 -5 5 -3 0 -5 -2 -5 -5z M1912 3560 c0 -14 2 -19 5 -12 2
6 2 18 0 25 -3 6 -5 1 -5 -13z M2430 3525 c0 -3 2 -5 5 -5 3 0 5 2 5 5 0 3 -2
5 -5 5 -3 0 -5 -2 -5 -5z M2460 3525 c0 -3 2 -5 5 -5 3 0 5 2 5 5 0 3 -2 5 -5
5 -3 0 -5 -2 -5 -5z M2070 3515 c0 -3 2 -5 5 -5 3 0 5 2 5 5 0 3 -2 5 -5 5 -3
0 -5 -2 -5 -5z M2700 3495 c0 -3 2 -5 5 -5 3 0 5 2 5 5 0 3 -2 5 -5 5 -3 0 -5
-2 -5 -5z M2006 3435 c4 -8 10 -15 15 -15 5 0 9 7 9 15 0 8 -7 15 -15 15 -9 0
-12 -6 -9 -15z M2030 3400 c0 -7 3 -10 7 -7 3 4 3 10 0 14 -4 3 -7 0 -7 -7z
M1680 3375 c0 -3 2 -5 5 -5 3 0 5 2 5 5 0 3 -2 5 -5 5 -3 0 -5 -2 -5 -5z
M2350 3365 c0 -3 2 -5 5 -5 3 0 5 2 5 5 0 3 -2 5 -5 5 -3 0 -5 -2 -5 -5z
M1600 3355 c0 -3 2 -5 5 -5 3 0 5 2 5 5 0 3 -2 5 -5 5 -3 0 -5 -2 -5 -5z
M1633 3353 c4 -3 10 -3 14 0 3 4 0 7 -7 7 -7 0 -10 -3 -7 -7z M1783 3353 c4
-3 10 -3 14 0 3 4 0 7 -7 7 -7 0 -10 -3 -7 -7z M1600 3335 c0 -3 2 -5 5 -5 3
0 5 2 5 5 0 3 -2 5 -5 5 -3 0 -5 -2 -5 -5z M1670 3325 c0 -3 2 -5 5 -5 3 0 5
2 5 5 0 3 -2 5 -5 5 -3 0 -5 -2 -5 -5z M1738 3313 c7 -3 16 -2 19 1 4 3 -2 6
-13 5 -11 0 -14 -3 -6 -6z M2470 3310 c0 -7 3 -10 7 -7 3 4 3 10 0 14 -4 3 -7
0 -7 -7z M1600 3305 c0 -3 2 -5 5 -5 3 0 5 2 5 5 0 3 -2 5 -5 5 -3 0 -5 -2 -5
-5z M1659 3300 c-7 -5 -16 -7 -20 -4 -8 5 -69 -62 -69 -77 0 -5 14 0 30 13 17
12 30 26 30 30 0 5 5 6 10 3 6 -3 10 -1 10 4 0 19 17 12 23 -9 4 -14 0 -20
-11 -21 -11 0 -13 -2 -4 -6 7 -3 18 0 25 6 12 9 107 1 173 -15 14 -4 24 -2 24
4 0 6 -13 13 -30 17 -16 4 -30 13 -30 21 0 8 -8 14 -17 14 -15 0 -16 -2 -3
-10 13 -8 12 -10 -2 -10 -10 0 -18 7 -18 15 0 17 -17 20 -22 4 -6 -18 -78 -22
-78 -4 0 11 8 13 33 8 38 -7 34 0 -9 14 -17 6 -37 7 -45 3z M1780 3298 c0 -4
10 -8 23 -8 12 0 33 -3 47 -6 21 -6 23 -4 12 7 -14 15 -82 21 -82 7z M1881
3294 c0 -11 3 -14 6 -6 3 7 2 16 -1 19 -3 4 -6 -2 -5 -13z M1950 3274 c0 -19
4 -33 8 -30 8 5 4 66 -4 66 -2 0 -4 -16 -4 -36z M2363 3283 c4 -3 10 -3 14 0
3 4 0 7 -7 7 -7 0 -10 -3 -7 -7z M1920 3275 c0 -3 2 -5 5 -5 3 0 5 2 5 5 0 3
-2 5 -5 5 -3 0 -5 -2 -5 -5z M2173 3273 c4 -3 10 -3 14 0 3 4 0 7 -7 7 -7 0
-10 -3 -7 -7z M2225 3264 c7 -8 23 -14 34 -14 11 0 23 -5 26 -10 6 -11 -80 -4
-98 7 -10 6 -27 -15 -27 -32 0 -5 4 -5 8 2 10 16 52 5 46 -11 -4 -10 10 -10
63 1 37 8 85 12 107 10 60 -8 71 1 39 30 l-28 25 25 -7 c14 -4 29 -14 33 -21
4 -8 17 -14 27 -14 14 0 21 -10 26 -35 3 -19 10 -35 15 -35 10 0 2 44 -13 73
-5 10 -16 16 -24 13 -7 -3 -13 0 -11 6 3 17 -61 34 -75 20 -9 -9 -7 -15 7 -25
11 -9 14 -16 7 -21 -6 -3 -13 -2 -17 4 -3 5 -21 10 -40 10 -18 0 -40 6 -47 13
-7 8 -32 16 -55 19 -36 5 -40 4 -28 -8z m15 -49 c0 -3 -2 -5 -5 -5 -3 0 -5 2
-5 5 0 3 2 5 5 5 3 0 5 -2 5 -5z M2312 3268 c5 -15 28 -18 29 -3 0 6 -7 12
-17 13 -10 3 -15 -1 -12 -10z M2500 3275 c0 -3 2 -5 5 -5 3 0 5 2 5 5 0 3 -2
5 -5 5 -3 0 -5 -2 -5 -5z M1866 3252 c12 -9 24 -24 27 -32 4 -12 6 -12 6 2 1
19 -25 48 -42 48 -7 0 -2 -8 9 -18z M1925 3250 c3 -5 8 -10 11 -10 2 0 4 5 4
10 0 6 -5 10 -11 10 -5 0 -7 -4 -4 -10z M1971 3224 c0 -11 3 -14 6 -6 3 7 2
16 -1 19 -3 4 -6 -2 -5 -13z M1990 3230 c0 -7 3 -10 7 -7 3 4 3 10 0 14 -4 3
-7 0 -7 -7z M1603 3223 c4 -3 10 -3 14 0 3 4 0 7 -7 7 -7 0 -10 -3 -7 -7z
M1610 3210 c-19 -6 -20 -8 -6 -9 16 -1 17 -3 5 -18 -13 -15 -12 -15 8 -3 12 8
20 17 17 21 -2 4 4 10 13 12 12 3 13 5 3 5 -8 0 -26 -4 -40 -8z M1930 3205 c0
-3 2 -5 5 -5 3 0 5 2 5 5 0 3 -2 5 -5 5 -3 0 -5 -2 -5 -5z M1950 3205 c0 -3 2
-5 5 -5 3 0 5 2 5 5 0 3 -2 5 -5 5 -3 0 -5 -2 -5 -5z M2180 3205 c0 -3 2 -5 5
-5 3 0 5 2 5 5 0 3 -2 5 -5 5 -3 0 -5 -2 -5 -5z M2000 3195 c0 -3 2 -5 5 -5 3
0 5 2 5 5 0 3 -2 5 -5 5 -3 0 -5 -2 -5 -5z M2150 3190 c0 -7 3 -10 7 -7 3 4 3
10 0 14 -4 3 -7 0 -7 -7z M2453 3193 c4 -3 10 -3 14 0 3 4 0 7 -7 7 -7 0 -10
-3 -7 -7z M1655 3150 c-48 -48 -35 -53 17 -7 31 27 47 33 94 35 42 2 54 0 48
-9 -4 -8 -3 -10 4 -5 7 4 22 0 34 -8 28 -20 39 -20 32 -2 -8 22 -60 36 -128
36 -57 -1 -63 -3 -101 -40z M2060 3185 c0 -3 2 -5 5 -5 3 0 5 2 5 5 0 3 -2 5
-5 5 -3 0 -5 -2 -5 -5z M1913 3173 c4 -3 10 -3 14 0 3 4 0 7 -7 7 -7 0 -10 -3
-7 -7z M2281 3169 c-18 -4 -43 -17 -55 -29 l-21 -23 42 23 c32 18 52 22 90 18
51 -5 113 -41 113 -65 0 -19 -13 -16 -27 6 -16 25 -76 44 -117 37 -29 -6 -32
-9 -28 -36 9 -59 75 -64 90 -8 l8 32 26 -29 c31 -33 26 -59 -9 -52 -23 4 -24
3 -9 -12 15 -14 19 -13 51 22 29 31 33 42 25 58 -24 45 -109 72 -179 58z m64
-74 c0 -10 -7 -21 -15 -23 -13 -5 -13 -3 -1 11 12 15 11 17 -3 17 -9 0 -16 -8
-17 -17 0 -15 -2 -15 -8 2 -6 14 -4 22 8 27 23 10 36 4 36 -17z M2420 3175 c0
-3 2 -5 5 -5 3 0 5 2 5 5 0 3 -2 5 -5 5 -3 0 -5 -2 -5 -5z M1560 3159 c0 -5 5
-7 10 -4 6 3 10 8 10 11 0 2 -4 4 -10 4 -5 0 -10 -5 -10 -11z M1610 3155 c0
-3 2 -5 5 -5 3 0 5 2 5 5 0 3 -2 5 -5 5 -3 0 -5 -2 -5 -5z M1729 3152 c-28 -8
-89 -55 -89 -68 0 -8 9 -14 20 -14 11 0 20 -4 20 -10 0 -5 5 -10 10 -10 15 0
7 24 -9 31 -11 4 -7 12 15 32 l29 27 3 -30 c6 -52 82 -54 90 -1 4 25 6 26 37
5 23 -15 37 -43 15 -29 -5 3 -22 -1 -37 -9 l-28 -16 35 6 c19 4 44 7 55 9 26
2 25 9 -5 32 -54 41 -116 58 -161 45z m71 -38 c0 -7 -4 -16 -10 -19 -5 -3 -10
1 -10 9 0 9 -4 16 -10 16 -5 0 -7 -7 -4 -15 4 -8 1 -15 -5 -15 -6 0 -11 11
-11 24 0 19 4 22 25 18 14 -2 25 -10 25 -18z M1952 3126 c3 -28 13 -34 21 -12
3 8 -1 20 -9 26 -12 10 -14 8 -12 -14z M2513 3133 c4 -3 10 -3 14 0 3 4 0 7
-7 7 -7 0 -10 -3 -7 -7z M1560 3125 c0 -3 2 -5 5 -5 3 0 5 2 5 5 0 3 -2 5 -5
5 -3 0 -5 -2 -5 -5z M1893 3123 c4 -3 10 -3 14 0 3 4 0 7 -7 7 -7 0 -10 -3 -7
-7z M2148 3098 c5 -36 42 -82 42 -53 0 13 7 17 30 17 3 1 19 -2 35 -6 l30 -6
-25 14 c-14 8 -28 12 -32 10 -18 -11 -6 9 15 27 12 10 17 18 11 19 -7 0 -25
-12 -42 -27 -40 -37 -47 -37 -48 -2 -1 17 3 26 9 22 6 -3 7 -1 3 5 -15 25 -33
12 -28 -20z M2470 3125 c0 -3 2 -5 5 -5 3 0 5 2 5 5 0 3 -2 5 -5 5 -3 0 -5 -2
-5 -5z M1920 3115 c0 -3 2 -5 5 -5 3 0 5 2 5 5 0 3 -2 5 -5 5 -3 0 -5 -2 -5
-5z M2190 3105 c0 -3 2 -5 5 -5 3 0 5 2 5 5 0 3 -2 5 -5 5 -3 0 -5 -2 -5 -5z
M1961 3064 c0 -11 3 -14 6 -6 3 7 2 16 -1 19 -3 4 -6 -2 -5 -13z M1714 3055
c1 -8 6 -18 11 -22 4 -4 5 -3 1 4 -4 8 3 11 26 9 18 -2 24 -1 13 1 -11 3 -24
9 -29 14 -15 13 -25 11 -22 -6z M1880 3050 c-9 -6 -10 -10 -3 -10 6 0 15 5 18
10 8 12 4 12 -15 0z M2390 3055 c0 -3 2 -5 5 -5 3 0 5 2 5 5 0 3 -2 5 -5 5 -3
0 -5 -2 -5 -5z M1800 3045 c0 -3 2 -5 5 -5 3 0 5 2 5 5 0 3 -2 5 -5 5 -3 0 -5
-2 -5 -5z M2227 3043 c-3 -5 4 -15 16 -23 21 -12 21 -12 7 6 -8 10 -15 20 -16
22 -1 2 -4 -1 -7 -5z M2453 3043 c4 -3 10 -3 14 0 3 4 0 7 -7 7 -7 0 -10 -3
-7 -7z M1590 3035 c0 -3 2 -5 5 -5 3 0 5 2 5 5 0 3 -2 5 -5 5 -3 0 -5 -2 -5
-5z M1910 3035 c0 -3 2 -5 5 -5 3 0 5 2 5 5 0 3 -2 5 -5 5 -3 0 -5 -2 -5 -5z
M2283 3033 c4 -3 10 -3 14 0 3 4 0 7 -7 7 -7 0 -10 -3 -7 -7z M1810 3014 c-33
-13 -33 -14 -5 -8 17 3 34 10 40 15 11 11 8 11 -35 -7z M2657 2997 c-3 -9 -3
-32 0 -51 3 -21 1 -36 -4 -36 -7 0 -8 -27 -5 -70 3 -47 1 -75 -8 -84 -13 -16
-5 -40 11 -31 14 9 10 -58 -5 -77 -7 -10 -16 -15 -19 -11 -4 3 -7 1 -7 -6 0
-7 -5 -9 -12 -5 -7 4 -8 3 -4 -5 6 -9 0 -10 -20 -5 -17 5 -25 3 -21 -3 4 -6 0
-16 -8 -23 -8 -7 -15 -22 -15 -34 0 -17 -2 -18 -11 -6 -8 12 -9 12 -7 -5 3
-20 -25 -69 -33 -60 -3 2 -5 -5 -6 -16 -3 -31 -24 -53 -35 -37 -7 9 -8 7 -4
-7 3 -12 -3 -31 -14 -45 -15 -19 -20 -21 -20 -9 0 9 -7 19 -15 23 -8 3 -15 3
-15 0 0 -3 7 -12 15 -20 20 -21 19 -33 -4 -42 -11 -4 -21 -11 -22 -17 -3 -16
-33 -51 -54 -63 -41 -24 -55 -40 -49 -55 7 -19 25 -7 93 66 25 26 47 47 50 47
16 0 13 -161 -5 -222 -8 -29 -22 -80 -31 -113 -9 -33 -20 -64 -26 -70 -7 -7
-8 -5 -3 5 4 8 0 6 -8 -4 -9 -11 -16 -24 -16 -28 0 -17 -44 -68 -59 -68 -13 0
-13 -2 -3 -9 10 -6 8 -10 -10 -14 -14 -4 -37 -18 -52 -32 -15 -14 -31 -25 -37
-25 -14 0 -11 -17 4 -23 8 -3 29 12 48 34 21 24 42 39 56 39 13 0 23 5 23 10
0 6 8 18 18 28 23 25 55 71 69 102 13 30 53 180 58 222 5 37 15 50 15 19 0
-12 4 -20 9 -17 9 6 -3 85 -19 121 -22 52 -19 65 41 155 32 49 67 107 78 128
12 24 32 44 51 52 17 7 37 23 45 34 14 23 30 177 28 271 -2 68 -16 119 -26 92z
M2335 2990 c3 -5 10 -10 16 -10 5 0 9 5 9 10 0 6 -7 10 -16 10 -8 0 -12 -4 -9
-10z M2385 2990 c3 -5 8 -10 11 -10 2 0 4 5 4 10 0 6 -5 10 -11 10 -5 0 -7 -4
-4 -10z M1410 2985 c0 -3 2 -5 5 -5 3 0 5 2 5 5 0 3 -2 5 -5 5 -3 0 -5 -2 -5
-5z M2240 2983 c0 -15 71 -51 90 -45 7 3 -7 11 -31 19 -24 9 -47 20 -51 27 -6
8 -8 8 -8 -1z M2560 2985 c0 -3 2 -5 5 -5 3 0 5 2 5 5 0 3 -2 5 -5 5 -3 0 -5
-2 -5 -5z M2157 2949 c4 -13 8 -18 11 -10 2 7 -1 18 -6 23 -8 8 -9 4 -5 -13z
M2560 2965 c0 -3 2 -5 5 -5 3 0 5 2 5 5 0 3 -2 5 -5 5 -3 0 -5 -2 -5 -5z
M1500 2955 c0 -3 2 -5 5 -5 3 0 5 2 5 5 0 3 -2 5 -5 5 -3 0 -5 -2 -5 -5z
M1490 2920 c0 -7 3 -10 7 -7 3 4 3 10 0 14 -4 3 -7 0 -7 -7z M1905 2920 c-3
-5 -1 -10 4 -10 6 0 11 5 11 10 0 6 -2 10 -4 10 -3 0 -8 -4 -11 -10z M2571
2904 c0 -11 3 -14 6 -6 3 7 2 16 -1 19 -3 4 -6 -2 -5 -13z M2180 2897 c0 -8
12 -27 28 -44 15 -16 34 -40 42 -52 22 -34 50 -65 50 -56 0 11 -43 88 -57 103
-7 7 -13 16 -13 20 0 4 -12 15 -25 25 -20 14 -25 15 -25 4z M1895 2880 c-16
-7 -17 -9 -3 -9 9 -1 20 4 23 9 7 11 7 11 -20 0z M1470 2875 c0 -3 2 -5 5 -5
3 0 5 2 5 5 0 3 -2 5 -5 5 -3 0 -5 -2 -5 -5z M1510 2875 c0 -3 2 -5 5 -5 3 0
5 2 5 5 0 3 -2 5 -5 5 -3 0 -5 -2 -5 -5z M1824 2825 c-15 -20 -24 -38 -21 -41
6 -6 77 57 77 68 0 20 -32 4 -56 -27z M1470 2840 c0 -7 3 -10 7 -7 3 4 3 10 0
14 -4 3 -7 0 -7 -7z M1860 2805 c0 -3 2 -5 5 -5 3 0 5 2 5 5 0 3 -2 5 -5 5 -3
0 -5 -2 -5 -5z M1923 2788 c-27 -13 -29 -24 -7 -32 22 -9 32 3 14 15 -11 7 4
9 49 6 54 -3 61 -2 45 10 -21 15 -70 16 -101 1z M2070 2785 c0 -3 2 -5 5 -5 3
0 5 2 5 5 0 3 -2 5 -5 5 -3 0 -5 -2 -5 -5z M2081 2770 c-13 -11 -19 -20 -13
-20 6 0 17 6 24 13 7 6 32 11 56 10 23 -1 42 2 42 8 0 18 -84 9 -109 -11z
M1790 2755 c0 -3 2 -5 5 -5 3 0 5 2 5 5 0 3 -2 5 -5 5 -3 0 -5 -2 -5 -5z
M1950 2755 c0 -3 2 -5 5 -5 3 0 5 2 5 5 0 3 -2 5 -5 5 -3 0 -5 -2 -5 -5z
M1975 2740 c6 -20 4 -21 -27 -15 -29 5 -34 4 -35 -13 -1 -11 5 -23 14 -26 12
-5 14 -1 10 14 -3 11 -2 20 3 20 4 0 10 -9 13 -20 3 -11 11 -20 17 -20 7 0 10
7 6 15 -3 9 0 15 8 15 8 0 16 -6 19 -12 3 -9 8 -10 15 -3 8 7 2 19 -19 38 -27
25 -30 26 -24 7z M2023 2753 c4 -3 10 -3 14 0 3 4 0 7 -7 7 -7 0 -10 -3 -7 -7z
M2150 2751 c0 -5 14 -8 31 -6 45 6 49 15 6 15 -20 0 -37 -4 -37 -9z M2103
2726 c4 -10 7 -21 7 -25 0 -12 30 -9 31 3 1 6 5 0 9 -14 8 -24 8 -24 9 -2 1
12 1 25 1 30 0 4 -8 7 -18 7 -9 1 -23 5 -31 10 -11 6 -13 4 -8 -9z M1764 2718
c-4 -7 -3 -8 4 -4 12 7 16 16 8 16 -3 0 -8 -5 -12 -12z M2070 2725 c0 -3 2 -5
5 -5 3 0 5 2 5 5 0 3 -2 5 -5 5 -3 0 -5 -2 -5 -5z M2180 2726 c0 -2 8 -10 18
-17 15 -13 16 -12 3 4 -13 16 -21 21 -21 13z M1870 2715 c0 -3 2 -5 5 -5 3 0
5 2 5 5 0 3 -2 5 -5 5 -3 0 -5 -2 -5 -5z M1650 2695 c0 -8 5 -15 10 -15 6 0
10 7 10 15 0 8 -4 15 -10 15 -5 0 -10 -7 -10 -15z M2078 2703 c7 -3 16 -2 19
1 4 3 -2 6 -13 5 -11 0 -14 -3 -6 -6z M1806 2674 c-11 -28 -7 -44 9 -38 8 4
15 17 15 30 0 27 -15 32 -24 8z M1843 2667 c1 -30 20 -31 25 -1 2 15 1 16 -6
5 -8 -11 -11 -10 -15 5 -3 12 -4 8 -4 -9z M2046 2683 c-19 -3 -25 -7 -17 -12
15 -10 61 -2 61 10 0 5 -3 8 -7 8 -5 -1 -21 -4 -37 -6z M2172 2679 c2 -7 10
-15 17 -17 8 -3 12 1 9 9 -2 7 -10 15 -17 17 -8 3 -12 -1 -9 -9z M1600 2670
c0 -7 3 -10 7 -7 3 4 3 10 0 14 -4 3 -7 0 -7 -7z M2220 2666 c0 -7 9 -21 21
-32 21 -19 21 -19 17 10 -3 29 -38 48 -38 22z m27 -18 c-3 -8 -6 -5 -6 6 -1
11 2 17 5 13 3 -3 4 -12 1 -19z M1777 2649 c-4 -14 -10 -18 -19 -13 -10 6 -10
4 1 -9 19 -24 26 -21 29 13 3 35 -3 39 -11 9z M2274 2648 c3 -13 6 -27 6 -31
0 -5 5 -5 11 -2 6 4 16 -1 24 -11 7 -11 17 -15 22 -11 4 5 0 15 -10 22 -10 7
-17 17 -16 21 4 21 -2 28 -11 14 -8 -13 -10 -12 -10 3 0 9 -5 17 -11 17 -7 0
-9 -9 -5 -22z M1670 2645 c0 -3 2 -5 5 -5 3 0 5 2 5 5 0 3 -2 5 -5 5 -3 0 -5
-2 -5 -5z M1908 2633 c-18 -9 -19 -12 -6 -13 9 0 19 4 23 10 3 5 12 7 19 4 8
-3 16 -2 19 3 8 13 -30 10 -55 -4z M2063 2643 c4 -3 10 -3 14 0 3 4 0 7 -7 7
-7 0 -10 -3 -7 -7z M2090 2645 c0 -3 2 -5 5 -5 3 0 5 2 5 5 0 3 -2 5 -5 5 -3
0 -5 -2 -5 -5z M2200 2645 c0 -3 2 -5 5 -5 3 0 5 2 5 5 0 3 -2 5 -5 5 -3 0 -5
-2 -5 -5z M1650 2635 c0 -3 2 -5 5 -5 3 0 5 2 5 5 0 3 -2 5 -5 5 -3 0 -5 -2
-5 -5z M1980 2635 c0 -3 2 -5 5 -5 3 0 5 2 5 5 0 3 -2 5 -5 5 -3 0 -5 -2 -5
-5z M2033 2633 c4 -3 10 -3 14 0 3 4 0 7 -7 7 -7 0 -10 -3 -7 -7z M2171 2633
c-1 -7 -9 -10 -18 -7 -16 5 -16 4 0 -6 21 -13 32 -8 24 12 -4 9 -6 9 -6 1z
M2080 2625 c0 -3 2 -5 5 -5 3 0 5 2 5 5 0 3 -2 5 -5 5 -3 0 -5 -2 -5 -5z
M2110 2625 c0 -3 2 -5 5 -5 3 0 5 2 5 5 0 3 -2 5 -5 5 -3 0 -5 -2 -5 -5z
M2195 2610 c3 -5 8 -10 11 -10 2 0 4 5 4 10 0 6 -5 10 -11 10 -5 0 -7 -4 -4
-10z M1610 2600 c0 -7 3 -10 7 -7 3 4 3 10 0 14 -4 3 -7 0 -7 -7z M1745 2574
c-8 -47 -2 -52 11 -8 6 19 8 37 4 39 -4 3 -11 -11 -15 -31z M1865 2600 c-11
-4 -25 -5 -32 -3 -6 3 -17 -5 -23 -18 -11 -20 -10 -21 14 -17 15 3 24 3 22 0
-6 -5 24 -31 37 -32 4 0 7 5 7 10 0 6 -7 10 -15 10 -8 0 -15 4 -15 10 0 5 8 6
18 3 14 -6 15 -4 4 9 -10 13 -10 17 0 21 7 2 11 7 8 9 -3 3 -14 2 -25 -2z
M1900 2600 c0 -5 5 -10 11 -10 5 0 7 5 4 10 -3 6 -8 10 -11 10 -2 0 -4 -4 -4
-10z M1950 2599 c-15 -4 18 -7 79 -8 57 -1 102 1 99 4 -8 8 -152 12 -178 4z
M2148 2580 c-2 -7 -44 -11 -105 -12 -56 -1 -107 -5 -114 -9 -6 -4 41 -7 105
-7 105 -1 117 1 126 19 7 11 7 19 1 19 -5 0 -11 -5 -13 -10z M2177 2571 c-3
-12 -1 -21 3 -21 15 0 23 21 12 32 -6 6 -11 2 -15 -11z M2235 2580 c-4 -6 -10
-8 -14 -5 -5 2 -8 -7 -8 -21 0 -16 2 -21 7 -14 4 7 13 9 19 6 6 -4 11 -2 11 3
0 6 5 11 10 11 6 0 10 -7 10 -15 0 -8 5 -15 10 -15 13 0 13 16 0 41 -12 21
-35 25 -45 9z M1780 2570 c0 -7 3 -10 7 -7 3 4 3 10 0 14 -4 3 -7 0 -7 -7z
M1903 2573 c4 -3 10 -3 14 0 3 4 0 7 -7 7 -7 0 -10 -3 -7 -7z M1650 2565 c0
-3 2 -5 5 -5 3 0 5 2 5 5 0 3 -2 5 -5 5 -3 0 -5 -2 -5 -5z M2490 2565 c0 -3 2
-5 5 -5 3 0 5 2 5 5 0 3 -2 5 -5 5 -3 0 -5 -2 -5 -5z M1590 2555 c0 -3 2 -5 5
-5 3 0 5 2 5 5 0 3 -2 5 -5 5 -3 0 -5 -2 -5 -5z M2316 2531 c1 -14 3 -30 3
-35 2 -17 14 4 17 28 1 14 -3 27 -10 29 -7 3 -11 -5 -10 -22z M1760 2529 c0
-11 5 -17 10 -14 6 3 10 13 10 21 0 8 -4 14 -10 14 -5 0 -10 -9 -10 -21z
M1885 2510 c3 -5 11 -10 16 -10 6 0 7 5 4 10 -3 6 -11 10 -16 10 -6 0 -7 -4
-4 -10z M1920 2511 c0 -16 15 -21 77 -26 l58 -4 -55 12 c-30 7 -61 16 -67 20
-8 5 -13 4 -13 -2z M2135 2512 c-11 -4 -21 -13 -23 -20 -3 -14 38 -7 48 8 3 4
12 10 20 13 22 8 -19 7 -45 -1z M1590 2495 c0 -3 2 -5 5 -5 3 0 5 2 5 5 0 3
-2 5 -5 5 -3 0 -5 -2 -5 -5z M2065 2490 c3 -5 10 -10 16 -10 5 0 9 5 9 10 0 6
-7 10 -16 10 -8 0 -12 -4 -9 -10z M1750 2485 c0 -3 2 -5 5 -5 3 0 5 2 5 5 0 3
-2 5 -5 5 -3 0 -5 -2 -5 -5z M2410 2475 c0 -3 2 -5 5 -5 3 0 5 2 5 5 0 3 -2 5
-5 5 -3 0 -5 -2 -5 -5z M2460 2475 c0 -3 2 -5 5 -5 3 0 5 2 5 5 0 3 -2 5 -5 5
-3 0 -5 -2 -5 -5z M2370 2448 c0 -19 2 -20 10 -8 13 19 13 30 0 30 -5 0 -10
-10 -10 -22z M1938 2453 c12 -2 22 -9 22 -14 0 -6 10 -9 23 -8 12 1 35 -3 50
-10 33 -13 49 -7 40 15 -4 11 -9 12 -19 3 -11 -9 -14 -8 -14 3 0 10 -16 14
-62 15 -35 0 -53 -1 -40 -4z M2108 2453 c-16 -2 -28 -9 -28 -15 0 -6 10 -8 23
-4 12 3 30 6 40 6 9 0 17 5 17 10 0 10 -3 10 -52 3z M2341 2444 c0 -11 3 -14
6 -6 3 7 2 16 -1 19 -3 4 -6 -2 -5 -13z M2410 2450 c0 -7 3 -10 7 -7 3 4 3 10
0 14 -4 3 -7 0 -7 -7z M1670 2435 c0 -3 2 -5 5 -5 3 0 5 2 5 5 0 3 -2 5 -5 5
-3 0 -5 -2 -5 -5z M1760 2430 c0 -7 3 -10 7 -7 3 4 3 10 0 14 -4 3 -7 0 -7 -7z
M2310 2435 c0 -3 2 -5 5 -5 3 0 5 2 5 5 0 3 -2 5 -5 5 -3 0 -5 -2 -5 -5z
M2410 2415 c0 -3 2 -5 5 -5 3 0 5 2 5 5 0 3 -2 5 -5 5 -3 0 -5 -2 -5 -5z
M1700 2400 c0 -7 3 -10 7 -7 3 4 3 10 0 14 -4 3 -7 0 -7 -7z M2314 2395 c8 -8
20 -15 27 -15 9 0 8 4 -1 15 -7 8 -19 15 -27 15 -12 0 -12 -2 1 -15z M1653
2393 c4 -3 10 -3 14 0 3 4 0 7 -7 7 -7 0 -10 -3 -7 -7z M1720 2395 c0 -3 2 -5
5 -5 3 0 5 2 5 5 0 3 -2 5 -5 5 -3 0 -5 -2 -5 -5z M1757 2394 c-8 -8 1 -24 12
-24 4 0 8 7 8 15 0 16 -9 20 -20 9z M2080 2395 c0 -3 2 -5 5 -5 3 0 5 2 5 5 0
3 -2 5 -5 5 -3 0 -5 -2 -5 -5z M2263 2393 c4 -3 10 -3 14 0 3 4 0 7 -7 7 -7 0
-10 -3 -7 -7z M1670 2375 c0 -3 2 -5 5 -5 3 0 5 2 5 5 0 3 -2 5 -5 5 -3 0 -5
-2 -5 -5z M1718 2373 c7 -3 16 -2 19 1 4 3 -2 6 -13 5 -11 0 -14 -3 -6 -6z
M2255 2360 c-3 -5 3 -10 15 -10 12 0 18 5 15 10 -3 6 -10 10 -15 10 -5 0 -12
-4 -15 -10z M2305 2360 c3 -5 14 -10 23 -10 15 0 15 2 2 10 -20 13 -33 13 -25
0z M2350 2360 c0 -7 3 -10 7 -7 3 4 3 10 0 14 -4 3 -7 0 -7 -7z M1708 2353 c7
-3 16 -2 19 1 4 3 -2 6 -13 5 -11 0 -14 -3 -6 -6z M1743 2343 c4 -3 10 -3 14
0 3 4 0 7 -7 7 -7 0 -10 -3 -7 -7z M1710 2335 c0 -3 2 -5 5 -5 3 0 5 2 5 5 0
3 -2 5 -5 5 -3 0 -5 -2 -5 -5z M1765 2329 c-11 -16 -1 -19 13 -3 7 8 8 14 3
14 -5 0 -13 -5 -16 -11z M2060 2320 c0 -5 7 -7 15 -4 8 4 15 8 15 10 0 2 -7 4
-15 4 -8 0 -15 -4 -15 -10z M2130 2325 c0 -3 2 -5 5 -5 3 0 5 2 5 5 0 3 -2 5
-5 5 -3 0 -5 -2 -5 -5z M2290 2315 c0 -8 0 -18 -1 -22 0 -4 4 -9 10 -11 6 -2
10 7 9 22 -2 27 -18 37 -18 11z M2320 2325 c0 -3 2 -5 5 -5 3 0 5 2 5 5 0 3
-2 5 -5 5 -3 0 -5 -2 -5 -5z M1723 2313 c4 -3 10 -3 14 0 3 4 0 7 -7 7 -7 0
-10 -3 -7 -7z M1813 2313 c4 -3 10 -3 14 0 3 4 0 7 -7 7 -7 0 -10 -3 -7 -7z
M1870 2315 c0 -3 2 -5 5 -5 3 0 5 2 5 5 0 3 -2 5 -5 5 -3 0 -5 -2 -5 -5z
M2170 2315 c0 -3 2 -5 5 -5 3 0 5 2 5 5 0 3 -2 5 -5 5 -3 0 -5 -2 -5 -5z
M2210 2315 c0 -3 2 -5 5 -5 3 0 5 2 5 5 0 3 -2 5 -5 5 -3 0 -5 -2 -5 -5z
M1783 2303 c4 -3 10 -3 14 0 3 4 0 7 -7 7 -7 0 -10 -3 -7 -7z M1980 2300 c0
-6 4 -9 9 -6 5 4 12 1 14 -4 3 -6 4 -5 3 2 -3 15 -26 23 -26 8z M2323 2303 c4
-3 10 -3 14 0 3 4 0 7 -7 7 -7 0 -10 -3 -7 -7z M1753 2293 c4 -3 10 -3 14 0 3
4 0 7 -7 7 -7 0 -10 -3 -7 -7z M2042 2288 c-8 -8 -8 -17 -1 -30 10 -19 11 -19
24 -1 8 10 15 21 15 24 0 13 -28 17 -38 7z M2166 2291 c-4 -5 -2 -20 3 -33 9
-21 10 -21 10 10 1 32 -3 39 -13 23z M1780 2285 c0 -20 16 -34 29 -26 9 6 10
11 2 15 -6 4 -11 4 -11 -1 0 -4 -5 -1 -10 7 -5 8 -10 11 -10 5z M1823 2283 c4
-3 10 -3 14 0 3 4 0 7 -7 7 -7 0 -10 -3 -7 -7z M1930 2280 c0 -7 3 -10 7 -7 3
4 3 10 0 14 -4 3 -7 0 -7 -7z M2201 2274 c0 -11 3 -14 6 -6 3 7 2 16 -1 19 -3
4 -6 -2 -5 -13z M1903 2273 c4 -3 10 -3 14 0 3 4 0 7 -7 7 -7 0 -10 -3 -7 -7z
M1960 2270 c0 -7 3 -10 7 -7 3 4 3 10 0 14 -4 3 -7 0 -7 -7z M2253 2273 c-7
-3 -13 -11 -13 -20 0 -12 2 -12 16 2 18 17 16 25 -3 18z M1835 2251 c6 -11 4
-13 -11 -8 -18 7 -18 6 1 -8 23 -18 36 -1 15 18 -10 9 -11 9 -5 -2z M1873
2253 c4 -3 10 -3 14 0 3 4 0 7 -7 7 -7 0 -10 -3 -7 -7z M2000 2243 c0 -13 5
-23 10 -23 13 0 13 11 0 30 -8 12 -10 11 -10 -7z M2075 2250 c-3 -5 -1 -10 4
-10 6 0 11 5 11 10 0 6 -2 10 -4 10 -3 0 -8 -4 -11 -10z M1913 2243 c4 -3 10
-3 14 0 3 4 0 7 -7 7 -7 0 -10 -3 -7 -7z M2121 2234 c0 -11 3 -14 6 -6 3 7 2
16 -1 19 -3 4 -6 -2 -5 -13z M2145 2240 c3 -5 8 -10 11 -10 3 0 2 5 -1 10 -3
6 -8 10 -11 10 -3 0 -2 -4 1 -10z M2270 2245 c0 -3 2 -5 5 -5 3 0 5 2 5 5 0 3
-2 5 -5 5 -3 0 -5 -2 -5 -5z M1483 2233 c4 -3 10 -3 14 0 3 4 0 7 -7 7 -7 0
-10 -3 -7 -7z M1870 2233 c1 -31 29 -41 135 -48 44 -3 81 -10 83 -15 2 -5 14
-2 27 6 13 9 29 13 35 9 5 -3 10 -1 10 4 0 6 9 11 21 11 23 0 55 27 45 38 -4
3 -10 2 -14 -4 -8 -12 -30 -20 -80 -29 -19 -3 -37 -6 -40 -7 -4 -1 -45 2 -92
7 -47 5 -91 8 -97 6 -7 -1 -13 5 -13 14 0 8 -4 15 -10 15 -5 0 -10 -3 -10 -7z
M1960 2235 c0 -3 2 -5 5 -5 3 0 5 2 5 5 0 3 -2 5 -5 5 -3 0 -5 -2 -5 -5z
M1458 2213 c7 -3 16 -2 19 1 4 3 -2 6 -13 5 -11 0 -14 -3 -6 -6z M2240 2210
c0 -7 3 -10 7 -7 3 4 3 10 0 14 -4 3 -7 0 -7 -7z M1393 2193 c4 -3 10 -3 14 0
3 4 0 7 -7 7 -7 0 -10 -3 -7 -7z M2500 2190 c0 -7 3 -10 7 -7 3 4 3 10 0 14
-4 3 -7 0 -7 -7z M1360 2185 c0 -3 2 -5 5 -5 3 0 5 2 5 5 0 3 -2 5 -5 5 -3 0
-5 -2 -5 -5z M1430 2185 c0 -3 2 -5 5 -5 3 0 5 2 5 5 0 3 -2 5 -5 5 -3 0 -5
-2 -5 -5z M2243 2173 c4 -3 10 -3 14 0 3 4 0 7 -7 7 -7 0 -10 -3 -7 -7z M2123
2163 c4 -3 10 -3 14 0 3 4 0 7 -7 7 -7 0 -10 -3 -7 -7z M2165 2160 c-3 -5 -1
-10 4 -10 6 0 11 5 11 10 0 6 -2 10 -4 10 -3 0 -8 -4 -11 -10z M2510 2165 c0
-3 2 -5 5 -5 3 0 5 2 5 5 0 3 -2 5 -5 5 -3 0 -5 -2 -5 -5z M1453 2153 c4 -3
10 -3 14 0 3 4 0 7 -7 7 -7 0 -10 -3 -7 -7z M1968 2152 c-16 -2 -28 -8 -28
-14 0 -6 11 -7 27 -3 47 11 47 23 1 17z M2240 2150 c0 -7 3 -10 7 -7 3 4 3 10
0 14 -4 3 -7 0 -7 -7z M2023 2143 c4 -3 10 -3 14 0 3 4 0 7 -7 7 -7 0 -10 -3
-7 -7z M2070 2145 c0 -3 2 -5 5 -5 3 0 5 2 5 5 0 3 -2 5 -5 5 -3 0 -5 -2 -5
-5z M2100 2140 c0 -7 3 -10 7 -7 3 4 3 10 0 14 -4 3 -7 0 -7 -7z M2000 2120
c0 -5 5 -10 11 -10 5 0 7 5 4 10 -3 6 -8 10 -11 10 -2 0 -4 -4 -4 -10z M2456
2114 c-3 -9 -4 -19 -1 -22 3 -3 6 1 6 9 1 8 5 1 9 -16 7 -28 8 -28 9 -5 1 35
-14 58 -23 34z M1130 2110 c-21 -7 -21 -8 -5 -9 11 0 27 4 35 9 18 11 5 11
-30 0z M1460 2115 c0 -3 2 -5 5 -5 3 0 5 2 5 5 0 3 -2 5 -5 5 -3 0 -5 -2 -5
-5z M2043 2113 c4 -3 10 -3 14 0 3 4 0 7 -7 7 -7 0 -10 -3 -7 -7z M2080 2110
c0 -5 4 -10 9 -10 6 0 13 5 16 10 3 6 -1 10 -9 10 -9 0 -16 -4 -16 -10z M1078
2093 c7 -3 16 -2 19 1 4 3 -2 6 -13 5 -11 0 -14 -3 -6 -6z M1040 2085 c0 -3 2
-5 5 -5 3 0 5 2 5 5 0 3 -2 5 -5 5 -3 0 -5 -2 -5 -5z M1430 2080 c19 -13 30
-13 30 0 0 6 -10 10 -22 10 -19 0 -20 -2 -8 -10z M993 2073 c9 -2 23 -2 30 0
6 3 -1 5 -18 5 -16 0 -22 -2 -12 -5z M1302 2059 c-29 -12 -51 -23 -49 -26 3
-2 22 3 43 12 22 9 57 20 79 25 35 7 36 8 10 8 -16 1 -54 -8 -83 -19z M1726
2067 c3 -10 9 -15 12 -12 3 3 0 11 -7 18 -10 9 -11 8 -5 -6z M1750 2075 c0 -3
2 -5 5 -5 3 0 5 2 5 5 0 3 -2 5 -5 5 -3 0 -5 -2 -5 -5z M2436 2064 c-8 -21 -8
-24 3 -24 5 0 11 9 14 20 6 24 -8 27 -17 4z M2583 2073 c4 -3 10 -3 14 0 3 4
0 7 -7 7 -7 0 -10 -3 -7 -7z M898 2063 c7 -3 16 -2 19 1 4 3 -2 6 -13 5 -11 0
-14 -3 -6 -6z M2610 2065 c0 -3 2 -5 5 -5 3 0 5 2 5 5 0 3 -2 5 -5 5 -3 0 -5
-2 -5 -5z M858 2053 c7 -3 16 -2 19 1 4 3 -2 6 -13 5 -11 0 -14 -3 -6 -6z
M1470 2055 c0 -3 2 -5 5 -5 3 0 5 2 5 5 0 3 -2 5 -5 5 -3 0 -5 -2 -5 -5z
M2550 2055 c0 -3 2 -5 5 -5 3 0 5 2 5 5 0 3 -2 5 -5 5 -3 0 -5 -2 -5 -5z
M2640 2056 c0 -2 7 -7 16 -10 8 -3 12 -2 9 4 -6 10 -25 14 -25 6z M808 2043
c7 -3 16 -2 19 1 4 3 -2 6 -13 5 -11 0 -14 -3 -6 -6z M1440 2045 c0 -3 2 -5 5
-5 3 0 5 2 5 5 0 3 -2 5 -5 5 -3 0 -5 -2 -5 -5z M1750 2045 c0 -3 2 -5 5 -5 3
0 5 2 5 5 0 3 -2 5 -5 5 -3 0 -5 -2 -5 -5z M2460 2040 c0 -7 3 -10 7 -7 3 4 3
10 0 14 -4 3 -7 0 -7 -7z M870 2035 c0 -3 2 -5 5 -5 3 0 5 2 5 5 0 3 -2 5 -5
5 -3 0 -5 -2 -5 -5z M1000 2036 c0 -2 9 -6 20 -9 11 -3 20 -1 20 4 0 5 -9 9
-20 9 -11 0 -20 -2 -20 -4z M2690 2035 c0 -3 2 -5 5 -5 3 0 5 2 5 5 0 3 -2 5
-5 5 -3 0 -5 -2 -5 -5z M900 2020 c-10 -7 1 -8 35 -4 28 4 52 8 54 10 10 9
-75 3 -89 -6z M1480 2025 c0 -3 2 -5 5 -5 3 0 5 2 5 5 0 3 -2 5 -5 5 -3 0 -5
-2 -5 -5z M1500 2025 c0 -3 2 -5 5 -5 3 0 5 2 5 5 0 3 -2 5 -5 5 -3 0 -5 -2
-5 -5z M2723 2023 c9 -2 23 -2 30 0 6 3 -1 5 -18 5 -16 0 -22 -2 -12 -5z
M2483 1975 c0 -27 2 -38 4 -22 2 15 2 37 0 50 -2 12 -4 0 -4 -28z M2583 2013
c4 -3 10 -3 14 0 3 4 0 7 -7 7 -7 0 -10 -3 -7 -7z M2788 2013 c7 -3 16 -2 19
1 4 3 -2 6 -13 5 -11 0 -14 -3 -6 -6z M710 2005 c0 -3 2 -5 5 -5 3 0 5 2 5 5
0 3 -2 5 -5 5 -3 0 -5 -2 -5 -5z M785 2000 c11 -5 34 -8 50 -8 l30 0 -30 8
c-16 4 -39 8 -50 8 l-20 1 20 -9z M870 2005 c0 -3 2 -5 5 -5 3 0 5 2 5 5 0 3
-2 5 -5 5 -3 0 -5 -2 -5 -5z M1135 2000 l-80 -6 75 -2 c41 -1 82 3 90 8 8 5
11 9 5 8 -5 -1 -46 -5 -90 -8z M1436 1984 c-4 -14 -5 -28 -3 -31 3 -2 8 8 11
23 4 14 5 28 3 31 -3 2 -8 -8 -11 -23z M1460 2005 c0 -3 2 -5 5 -5 3 0 5 2 5
5 0 3 -2 5 -5 5 -3 0 -5 -2 -5 -5z M1600 2005 c0 -3 2 -5 5 -5 3 0 5 2 5 5 0
3 -2 5 -5 5 -3 0 -5 -2 -5 -5z M1630 2005 c0 -3 2 -5 5 -5 3 0 5 2 5 5 0 3 -2
5 -5 5 -3 0 -5 -2 -5 -5z M2620 2005 c0 -3 2 -5 5 -5 3 0 5 2 5 5 0 3 -2 5 -5
5 -3 0 -5 -2 -5 -5z M2640 2005 c0 -3 2 -5 5 -5 3 0 5 2 5 5 0 3 -2 5 -5 5 -3
0 -5 -2 -5 -5z M684 1988 c-4 -7 -3 -8 4 -4 12 7 16 16 8 16 -3 0 -8 -5 -12
-12z M750 1995 c0 -3 2 -5 5 -5 3 0 5 2 5 5 0 3 -2 5 -5 5 -3 0 -5 -2 -5 -5z
M1750 1995 c0 -3 2 -5 5 -5 3 0 5 2 5 5 0 3 -2 5 -5 5 -3 0 -5 -2 -5 -5z
M2340 1995 c0 -3 2 -5 5 -5 3 0 5 2 5 5 0 3 -2 5 -5 5 -3 0 -5 -2 -5 -5z
M2870 1995 c0 -3 2 -5 5 -5 3 0 5 2 5 5 0 3 -2 5 -5 5 -3 0 -5 -2 -5 -5z M660
1985 c0 -3 2 -5 5 -5 3 0 5 2 5 5 0 3 -2 5 -5 5 -3 0 -5 -2 -5 -5z M2314 1978
c-4 -7 -3 -8 4 -4 12 7 16 16 8 16 -3 0 -8 -5 -12 -12z M2835 1980 c3 -5 10
-10 16 -10 5 0 9 5 9 10 0 6 -7 10 -16 10 -8 0 -12 -4 -9 -10z M711 1966 c-9
-11 -9 -16 0 -22 7 -4 9 -3 5 4 -3 5 0 12 6 15 7 2 10 7 7 11 -3 4 -12 0 -18
-8z M2920 1961 c14 -11 36 -20 50 -19 l25 1 -24 4 c-14 3 -36 12 -50 20 l-26
15 25 -21z M612 1946 c-16 -20 -16 -20 2 -6 10 8 25 15 33 16 24 4 27 13 4 11
-12 -1 -30 -10 -39 -21z M2603 1963 c4 -3 10 -3 14 0 3 4 0 7 -7 7 -7 0 -10
-3 -7 -7z M2690 1965 c0 -3 2 -5 5 -5 3 0 5 2 5 5 0 3 -2 5 -5 5 -3 0 -5 -2
-5 -5z M750 1946 c0 -8 -6 -17 -12 -20 -7 -3 -4 -4 7 -1 15 3 25 -5 39 -33 22
-44 71 -182 81 -232 5 -19 10 -30 12 -24 3 11 -8 56 -53 206 -9 31 -25 66 -35
77 -11 11 -19 25 -19 31 0 5 -4 10 -10 10 -5 0 -10 -6 -10 -14z M2710 1950 c0
-7 3 -10 7 -7 3 4 3 10 0 14 -4 3 -7 0 -7 -7z M2860 1950 c0 -7 3 -10 7 -7 3
4 3 10 0 14 -4 3 -7 0 -7 -7z M2410 1934 c0 -8 5 -12 10 -9 6 4 8 11 5 16 -9
14 -15 11 -15 -7z M2910 1945 c0 -3 2 -5 5 -5 3 0 5 2 5 5 0 3 -2 5 -5 5 -3 0
-5 -2 -5 -5z M630 1935 c0 -3 2 -5 5 -5 3 0 5 2 5 5 0 3 -2 5 -5 5 -3 0 -5 -2
-5 -5z M665 1930 c-16 -7 -17 -9 -3 -9 9 -1 20 4 23 9 7 11 7 11 -20 0z M1480
1935 c0 -3 2 -5 5 -5 3 0 5 2 5 5 0 3 -2 5 -5 5 -3 0 -5 -2 -5 -5z M3040 1935
c0 -3 2 -5 5 -5 3 0 5 2 5 5 0 3 -2 5 -5 5 -3 0 -5 -2 -5 -5z M2070 1925 c0
-3 2 -5 5 -5 3 0 5 2 5 5 0 3 -2 5 -5 5 -3 0 -5 -2 -5 -5z M2723 1923 c4 -3
10 -3 14 0 3 4 0 7 -7 7 -7 0 -10 -3 -7 -7z M2900 1925 c0 -3 2 -5 5 -5 3 0 5
2 5 5 0 3 -2 5 -5 5 -3 0 -5 -2 -5 -5z M2920 1925 c0 -3 2 -5 5 -5 3 0 5 2 5
5 0 3 -2 5 -5 5 -3 0 -5 -2 -5 -5z M2940 1925 c0 -3 2 -5 5 -5 3 0 5 2 5 5 0
3 -2 5 -5 5 -3 0 -5 -2 -5 -5z M1440 1910 c0 -7 3 -10 7 -7 3 4 3 10 0 14 -4
3 -7 0 -7 -7z M1820 1915 c0 -3 2 -5 5 -5 3 0 5 2 5 5 0 3 -2 5 -5 5 -3 0 -5
-2 -5 -5z M2240 1915 c0 -3 2 -5 5 -5 3 0 5 2 5 5 0 3 -2 5 -5 5 -3 0 -5 -2
-5 -5z M2460 1915 c0 -3 2 -5 5 -5 3 0 5 2 5 5 0 3 -2 5 -5 5 -3 0 -5 -2 -5
-5z M2630 1915 c0 -3 2 -5 5 -5 3 0 5 2 5 5 0 3 -2 5 -5 5 -3 0 -5 -2 -5 -5z
M2768 1903 c7 -3 16 -2 19 1 4 3 -2 6 -13 5 -11 0 -14 -3 -6 -6z M2865 1900
c-16 -7 -17 -9 -3 -9 9 -1 20 4 23 9 7 11 7 11 -20 0z M520 1871 c-26 -37 -52
-111 -40 -111 6 0 10 7 10 16 0 8 3 13 8 11 4 -3 8 9 9 25 1 17 9 38 16 47 18
21 29 41 23 41 -2 0 -14 -13 -26 -29z M2430 1895 c0 -3 2 -5 5 -5 3 0 5 2 5 5
0 3 -2 5 -5 5 -3 0 -5 -2 -5 -5z M2803 1893 c4 -3 10 -3 14 0 3 4 0 7 -7 7 -7
0 -10 -3 -7 -7z M3135 1890 c3 -5 11 -10 16 -10 6 0 7 5 4 10 -3 6 -11 10 -16
10 -6 0 -7 -4 -4 -10z M3170 1896 c0 -2 7 -7 16 -10 8 -3 12 -2 9 4 -6 10 -25
14 -25 6z M590 1880 l-35 -7 37 -2 c20 0 40 4 43 9 7 11 7 11 -45 0z M2390
1885 c0 -3 2 -5 5 -5 3 0 5 2 5 5 0 3 -2 5 -5 5 -3 0 -5 -2 -5 -5z M3210 1870
c0 -7 3 -10 7 -7 3 4 3 10 0 14 -4 3 -7 0 -7 -7z M2530 1865 c0 -3 2 -5 5 -5
3 0 5 2 5 5 0 3 -2 5 -5 5 -3 0 -5 -2 -5 -5z M2930 1860 c0 -7 3 -10 7 -7 3 4
3 10 0 14 -4 3 -7 0 -7 -7z M1445 1850 c3 -5 8 -10 11 -10 2 0 4 5 4 10 0 6
-5 10 -11 10 -5 0 -7 -4 -4 -10z M2386 1844 c-5 -14 -4 -15 9 -4 17 14 19 20
6 20 -5 0 -12 -7 -15 -16z M2426 1828 c-22 -16 -46 -26 -53 -23 -8 2 -11 0 -8
-5 3 -6 -1 -13 -11 -17 -15 -5 -15 -8 -2 -17 8 -6 18 -18 21 -26 5 -10 6 -9 4
5 -3 27 39 59 80 61 17 0 30 -3 27 -8 -7 -11 37 -70 100 -133 28 -27 49 -54
48 -59 -2 -5 4 -4 12 3 13 11 6 22 -54 81 -50 50 -72 80 -80 109 -15 58 -36
65 -84 29z m61 5 c-4 -3 -10 -3 -14 0 -3 4 0 7 7 7 7 0 10 -3 7 -7z m-30 -20
c-4 -3 -10 -3 -14 0 -3 4 0 7 7 7 7 0 10 -3 7 -7z M2550 1855 c0 -3 2 -5 5 -5
3 0 5 2 5 5 0 3 -2 5 -5 5 -3 0 -5 -2 -5 -5z M2870 1855 c0 -3 2 -5 5 -5 3 0
5 2 5 5 0 3 -2 5 -5 5 -3 0 -5 -2 -5 -5z M3180 1855 c0 -3 2 -5 5 -5 3 0 5 2
5 5 0 3 -2 5 -5 5 -3 0 -5 -2 -5 -5z M623 1843 c4 -3 10 -3 14 0 3 4 0 7 -7 7
-7 0 -10 -3 -7 -7z M3220 1845 c0 -3 2 -5 5 -5 3 0 5 2 5 5 0 3 -2 5 -5 5 -3
0 -5 -2 -5 -5z M3265 1840 c3 -5 8 -10 11 -10 3 0 2 5 -1 10 -3 6 -8 10 -11
10 -3 0 -2 -4 1 -10z M525 1829 c-4 -6 -5 -12 -2 -15 2 -3 7 2 10 11 7 17 1
20 -8 4z M1563 1833 c4 -3 10 -3 14 0 3 4 0 7 -7 7 -7 0 -10 -3 -7 -7z M1647
1806 c-74 -42 -104 -72 -112 -107 -4 -16 -14 -36 -22 -45 -22 -22 -7 -31 17
-9 11 10 20 28 20 40 0 23 32 59 43 48 4 -3 7 0 7 8 0 15 27 36 71 55 24 11
30 8 88 -52 l62 -64 34 22 c22 15 30 25 22 30 -18 12 -35 9 -33 -4 0 -7 -2
-14 -6 -15 -22 -8 -35 0 -51 29 -14 24 -15 28 -2 18 8 -7 15 -8 15 -2 0 5 -7
15 -15 22 -8 7 -12 16 -9 22 10 15 -17 38 -45 38 -14 0 -52 -15 -84 -34z m113
9 c0 -3 -2 -5 -5 -5 -3 0 -5 2 -5 5 0 3 2 5 5 5 3 0 5 -2 5 -5z m-10 -20 c19
-23 8 -25 -14 -4 -11 11 -15 19 -9 19 6 0 16 -7 23 -15z M1790 1835 c0 -3 2
-5 5 -5 3 0 5 2 5 5 0 3 -2 5 -5 5 -3 0 -5 -2 -5 -5z M1900 1835 c0 -3 2 -5 5
-5 3 0 5 2 5 5 0 3 -2 5 -5 5 -3 0 -5 -2 -5 -5z M2240 1835 c0 -3 2 -5 5 -5 3
0 5 2 5 5 0 3 -2 5 -5 5 -3 0 -5 -2 -5 -5z M2550 1835 c0 -3 2 -5 5 -5 3 0 5
2 5 5 0 3 -2 5 -5 5 -3 0 -5 -2 -5 -5z M2603 1833 c4 -3 10 -3 14 0 3 4 0 7
-7 7 -7 0 -10 -3 -7 -7z M1540 1825 c0 -3 2 -5 5 -5 3 0 5 2 5 5 0 3 -2 5 -5
5 -3 0 -5 -2 -5 -5z M2260 1825 c0 -3 2 -5 5 -5 3 0 5 2 5 5 0 3 -2 5 -5 5 -3
0 -5 -2 -5 -5z M3293 1823 c4 -3 10 -3 14 0 3 4 0 7 -7 7 -7 0 -10 -3 -7 -7z
M1516 1805 c-3 -8 -1 -15 4 -15 6 0 10 7 10 15 0 8 -2 15 -4 15 -2 0 -6 -7
-10 -15z M1910 1810 c0 -7 3 -10 7 -7 3 4 3 10 0 14 -4 3 -7 0 -7 -7z M2950
1810 c0 -7 3 -10 7 -7 3 4 3 10 0 14 -4 3 -7 0 -7 -7z M3320 1815 c0 -3 2 -5
5 -5 3 0 5 2 5 5 0 3 -2 5 -5 5 -3 0 -5 -2 -5 -5z M3294 1798 c-4 -7 -3 -8 4
-4 7 4 12 9 12 12 0 8 -9 4 -16 -8z M3347 1789 c7 -7 15 -10 18 -7 3 3 -2 9
-12 12 -14 6 -15 5 -6 -5z M563 1773 c4 -3 10 -3 14 0 3 4 0 7 -7 7 -7 0 -10
-3 -7 -7z M1670 1775 c0 -3 2 -5 5 -5 3 0 5 2 5 5 0 3 -2 5 -5 5 -3 0 -5 -2
-5 -5z M2300 1775 c0 -3 2 -5 5 -5 3 0 5 2 5 5 0 3 -2 5 -5 5 -3 0 -5 -2 -5
-5z M2453 1773 c4 -3 10 -3 14 0 3 4 0 7 -7 7 -7 0 -10 -3 -7 -7z M2567 1769
c7 -7 15 -10 18 -7 3 3 -2 9 -12 12 -14 6 -15 5 -6 -5z M2960 1773 c0 -4 9
-19 20 -33 16 -20 19 -21 13 -5 -8 22 -33 51 -33 38z M3170 1770 c0 -5 7 -10
16 -10 8 0 12 5 9 10 -3 6 -10 10 -16 10 -5 0 -9 -4 -9 -10z M3323 1773 c4 -3
10 -3 14 0 3 4 0 7 -7 7 -7 0 -10 -3 -7 -7z M1690 1765 c0 -3 2 -5 5 -5 3 0 5
2 5 5 0 3 -2 5 -5 5 -3 0 -5 -2 -5 -5z M2310 1760 c-9 -6 -10 -10 -3 -10 6 0
15 5 18 10 8 12 4 12 -15 0z M2600 1766 c0 -2 7 -7 16 -10 8 -3 12 -2 9 4 -6
10 -25 14 -25 6z M443 1753 c4 -3 10 -3 14 0 3 4 0 7 -7 7 -7 0 -10 -3 -7 -7z
M580 1755 c0 -3 2 -5 5 -5 3 0 5 2 5 5 0 3 -2 5 -5 5 -3 0 -5 -2 -5 -5z M2070
1755 c0 -3 2 -5 5 -5 3 0 5 2 5 5 0 3 -2 5 -5 5 -3 0 -5 -2 -5 -5z M1810 1735
c0 -8 4 -15 10 -15 5 0 7 7 4 15 -4 8 -8 15 -10 15 -2 0 -4 -7 -4 -15z M2583
1743 c4 -3 10 -3 14 0 3 4 0 7 -7 7 -7 0 -10 -3 -7 -7z M3399 1738 c-3 -28 -4
-32 -14 -48 -7 -12 -6 -13 6 -3 12 10 20 9 40 -4 23 -16 24 -16 7 3 -9 11 -21
31 -27 44 -7 19 -10 21 -12 8z M1500 1730 c0 -7 3 -10 7 -7 3 4 3 10 0 14 -4
3 -7 0 -7 -7z M2240 1735 c0 -3 2 -5 5 -5 3 0 5 2 5 5 0 3 -2 5 -5 5 -3 0 -5
-2 -5 -5z M2270 1720 c0 -5 5 -10 10 -10 6 0 10 5 10 10 0 6 -4 10 -10 10 -5
0 -10 -4 -10 -10z M2615 1720 c3 -5 8 -10 11 -10 3 0 2 5 -1 10 -3 6 -8 10
-11 10 -3 0 -2 -4 1 -10z M3170 1720 c0 -5 5 -10 10 -10 6 0 10 5 10 10 0 6
-4 10 -10 10 -5 0 -10 -4 -10 -10z M630 1715 c0 -3 2 -5 5 -5 3 0 5 2 5 5 0 3
-2 5 -5 5 -3 0 -5 -2 -5 -5z M1580 1715 c0 -3 2 -5 5 -5 3 0 5 2 5 5 0 3 -2 5
-5 5 -3 0 -5 -2 -5 -5z M3223 1693 c-14 -29 -8 -47 7 -23 9 13 14 50 8 50 -2
0 -9 -12 -15 -27z M790 1705 c0 -3 2 -5 5 -5 3 0 5 2 5 5 0 3 -2 5 -5 5 -3 0
-5 -2 -5 -5z M1560 1700 c0 -7 3 -10 7 -7 3 4 3 10 0 14 -4 3 -7 0 -7 -7z
M1880 1699 c0 -7 3 -9 7 -6 3 4 11 3 17 -2 18 -14 64 -22 70 -12 3 5 -10 12
-30 15 -19 4 -42 10 -50 13 -8 3 -14 -1 -14 -8z M404 1636 c1 -48 4 -62 13
-55 13 12 11 77 -4 103 -7 12 -9 0 -9 -48z M643 1693 c4 -3 10 -3 14 0 3 4 0
7 -7 7 -7 0 -10 -3 -7 -7z M2140 1684 c0 -8 -4 -12 -10 -9 -5 3 -10 -3 -10
-14 0 -12 -5 -21 -11 -21 -5 0 -7 -6 -3 -12 9 -16 -48 32 -59 50 -4 6 -13 12
-19 12 -7 0 2 -15 19 -32 17 -18 36 -43 42 -56 12 -22 13 -20 41 35 34 67 33
63 20 63 -5 0 -10 -7 -10 -16z M1580 1685 c0 -3 2 -5 5 -5 3 0 5 2 5 5 0 3 -2
5 -5 5 -3 0 -5 -2 -5 -5z M1760 1685 c0 -3 2 -5 5 -5 3 0 5 2 5 5 0 3 -2 5 -5
5 -3 0 -5 -2 -5 -5z M1864 1671 c20 -22 26 -25 26 -13 0 4 -10 13 -22 21 -23
14 -23 14 -4 -8z M2210 1685 c0 -3 2 -5 5 -5 3 0 5 2 5 5 0 3 -2 5 -5 5 -3 0
-5 -2 -5 -5z M2263 1683 c4 -3 10 -3 14 0 3 4 0 7 -7 7 -7 0 -10 -3 -7 -7z
M3010 1685 c0 -3 2 -5 5 -5 3 0 5 2 5 5 0 3 -2 5 -5 5 -3 0 -5 -2 -5 -5z M668
1673 c7 -3 16 -2 19 1 4 3 -2 6 -13 5 -11 0 -14 -3 -6 -6z M1990 1674 c0 -6
17 -26 38 -45 l37 -34 -35 40 c-19 22 -36 42 -37 44 -2 2 -3 0 -3 -5z M2231
1642 c-8 -20 -16 -43 -18 -49 -3 -7 -1 -13 5 -13 9 0 37 89 29 96 -2 2 -9 -13
-16 -34z M690 1650 c0 -5 5 -10 11 -10 5 0 7 5 4 10 -3 6 -8 10 -11 10 -2 0
-4 -4 -4 -10z M440 1645 c0 -3 2 -5 5 -5 3 0 5 2 5 5 0 3 -2 5 -5 5 -3 0 -5
-2 -5 -5z M460 1640 c0 -7 3 -10 7 -7 3 4 3 10 0 14 -4 3 -7 0 -7 -7z M3150
1640 c0 -7 3 -10 7 -7 3 4 3 10 0 14 -4 3 -7 0 -7 -7z M3192 1625 c-6 -14 -8
-25 -4 -25 4 0 12 11 19 25 6 14 8 25 4 25 -4 0 -13 -11 -19 -25z M3480 1630
c0 -7 3 -10 7 -7 3 4 3 10 0 14 -4 3 -7 0 -7 -7z M440 1610 c0 -7 3 -10 7 -7
3 4 3 10 0 14 -4 3 -7 0 -7 -7z M460 1615 c0 -3 2 -5 5 -5 3 0 5 2 5 5 0 3 -2
5 -5 5 -3 0 -5 -2 -5 -5z M881 1615 c1 -19 18 -51 18 -35 0 8 -4 22 -9 30 -5
8 -9 11 -9 5z M2010 1615 c0 -3 2 -5 5 -5 3 0 5 2 5 5 0 3 -2 5 -5 5 -3 0 -5
-2 -5 -5z M810 1605 c0 -3 2 -5 5 -5 3 0 5 2 5 5 0 3 -2 5 -5 5 -3 0 -5 -2 -5
-5z M1942 1576 c13 -19 27 -35 31 -36 12 0 -29 64 -43 68 -5 2 0 -12 12 -32z
M3133 1603 c4 -3 10 -3 14 0 3 4 0 7 -7 7 -7 0 -10 -3 -7 -7z M3474 1599 c-4
-7 -3 -9 3 -6 14 9 37 -19 28 -33 -4 -6 -2 -9 4 -8 5 2 17 -6 26 -17 9 -11 5
0 -9 25 -27 48 -40 58 -52 39z M2140 1595 c0 -3 2 -5 5 -5 3 0 5 2 5 5 0 3 -2
5 -5 5 -3 0 -5 -2 -5 -5z M3200 1575 c0 -3 2 -5 5 -5 3 0 5 2 5 5 0 3 -2 5 -5
5 -3 0 -5 -2 -5 -5z M3460 1575 c0 -3 2 -5 5 -5 3 0 5 2 5 5 0 3 -2 5 -5 5 -3
0 -5 -2 -5 -5z M2080 1560 c0 -7 3 -10 7 -7 3 4 3 10 0 14 -4 3 -7 0 -7 -7z
M3250 1560 c0 -7 3 -10 7 -7 3 4 3 10 0 14 -4 3 -7 0 -7 -7z M460 1555 c0 -3
2 -5 5 -5 3 0 5 2 5 5 0 3 -2 5 -5 5 -3 0 -5 -2 -5 -5z M890 1545 c0 -11 12
-48 27 -83 21 -50 24 -65 14 -72 -8 -5 -9 -10 -3 -14 6 -3 12 -3 15 1 2 5 2 3
1 -4 -2 -7 1 -15 6 -18 6 -4 10 -14 10 -23 0 -9 6 -29 14 -44 15 -28 56 -180
56 -207 1 -24 99 -219 100 -198 0 25 -30 87 -42 87 -6 0 -8 9 -5 21 3 12 3 18
0 15 -11 -11 -31 41 -47 123 -15 71 -52 186 -127 386 -10 28 -18 41 -19 30z
M3296 1535 c-13 -19 -13 -23 -2 -19 8 3 16 14 19 25 7 25 3 24 -17 -6z M3450
1555 c0 -3 2 -5 5 -5 3 0 5 2 5 5 0 3 -2 5 -5 5 -3 0 -5 -2 -5 -5z M3470 1555
c0 -3 2 -5 5 -5 3 0 5 2 5 5 0 3 -2 5 -5 5 -3 0 -5 -2 -5 -5z M3200 1545 c0
-3 2 -5 5 -5 3 0 5 2 5 5 0 3 -2 5 -5 5 -3 0 -5 -2 -5 -5z M400 1535 c0 -3 2
-5 5 -5 3 0 5 2 5 5 0 3 -2 5 -5 5 -3 0 -5 -2 -5 -5z M2200 1530 c0 -7 3 -10
7 -7 3 4 3 10 0 14 -4 3 -7 0 -7 -7z M3233 1533 c4 -3 10 -3 14 0 3 4 0 7 -7
7 -7 0 -10 -3 -7 -7z M3460 1535 c0 -3 2 -5 5 -5 3 0 5 2 5 5 0 3 -2 5 -5 5
-3 0 -5 -2 -5 -5z M720 1527 c0 -2 14 -13 30 -25 17 -13 30 -18 30 -13 0 6
-13 17 -30 26 -16 9 -30 14 -30 12z M820 1525 c0 -3 2 -5 5 -5 3 0 5 2 5 5 0
3 -2 5 -5 5 -3 0 -5 -2 -5 -5z M2150 1525 c0 -3 2 -5 5 -5 3 0 5 2 5 5 0 3 -2
5 -5 5 -3 0 -5 -2 -5 -5z M3104 1517 c-2 -7 -3 -65 -2 -128 l3 -114 5 128 c5
125 4 140 -6 114z M840 1510 c0 -5 5 -10 11 -10 5 0 7 5 4 10 -3 6 -8 10 -11
10 -2 0 -4 -4 -4 -10z M930 1515 c0 -3 2 -5 5 -5 3 0 5 2 5 5 0 3 -2 5 -5 5
-3 0 -5 -2 -5 -5z M2051 1504 c0 -11 3 -14 6 -6 3 7 2 16 -1 19 -3 4 -6 -2 -5
-13z M3227 1513 c-4 -3 -7 -16 -6 -27 0 -19 1 -19 10 3 10 24 8 36 -4 24z
M356 1459 c-14 -37 -16 -53 -7 -62 8 -8 11 -3 11 20 0 18 5 35 10 38 6 4 8 10
5 15 -3 5 -1 11 5 15 12 7 13 25 2 25 -4 0 -16 -23 -26 -51z M2000 1505 c0 -3
2 -5 5 -5 3 0 5 2 5 5 0 3 -2 5 -5 5 -3 0 -5 -2 -5 -5z M3578 1440 c20 -38 38
-68 39 -66 6 5 -60 136 -68 136 -3 0 10 -31 29 -70z M2020 1475 c0 -11 -3 -42
-6 -70 -3 -27 -1 -86 3 -130 l8 -80 5 130 c3 72 2 139 -2 150 l-7 20 -1 -20z
M790 1471 c0 -5 5 -13 10 -16 6 -3 10 -2 10 4 0 5 -4 13 -10 16 -5 3 -10 2
-10 -4z M871 1464 c0 -11 3 -14 6 -6 3 7 2 16 -1 19 -3 4 -6 -2 -5 -13z M3265
1460 c-4 -14 -10 -27 -14 -30 -3 -3 -12 -16 -20 -30 -8 -14 -23 -40 -34 -57
-10 -18 -15 -33 -10 -33 7 0 36 45 81 127 7 13 12 29 9 36 -2 7 -7 1 -12 -13z
M2077 1452 c-10 -10 -17 -27 -16 -38 1 -14 3 -13 8 6 4 15 15 26 29 28 12 2
22 8 22 13 0 15 -26 10 -43 -9z M3208 1455 c-4 -4 -4 -14 -1 -23 5 -11 3 -13
-6 -7 -10 5 -11 2 -6 -14 3 -11 2 -21 -3 -21 -10 0 -24 -41 -17 -49 8 -7 47
88 43 105 -2 9 -6 13 -10 9z M893 1435 c0 -8 4 -12 9 -9 5 3 6 10 3 15 -9 13
-12 11 -12 -6z M830 1433 c1 -11 50 -46 50 -36 0 9 -36 43 -45 43 -3 0 -5 -3
-5 -7z M2960 1435 c0 -3 2 -5 5 -5 3 0 5 2 5 5 0 3 -2 5 -5 5 -3 0 -5 -2 -5
-5z M3148 1433 c7 -3 16 -2 19 1 4 3 -2 6 -13 5 -11 0 -14 -3 -6 -6z M800
1420 c0 -7 3 -10 7 -7 3 4 3 10 0 14 -4 3 -7 0 -7 -7z M3023 1423 c4 -3 10 -3
14 0 3 4 0 7 -7 7 -7 0 -10 -3 -7 -7z M2142 1400 c0 -14 2 -19 5 -12 2 6 2 18
0 25 -3 6 -5 1 -5 -13z M900 1405 c0 -3 2 -5 5 -5 3 0 5 2 5 5 0 3 -2 5 -5 5
-3 0 -5 -2 -5 -5z M2110 1400 c0 -7 3 -10 7 -7 3 4 3 10 0 14 -4 3 -7 0 -7 -7z
M3134 1398 c-4 -7 -3 -8 4 -4 7 4 12 9 12 12 0 8 -9 4 -16 -8z M330 1383 c0
-4 5 -15 10 -23 8 -13 10 -13 10 2 0 9 -4 20 -10 23 -5 3 -10 3 -10 -2z M380
1385 c0 -3 2 -5 5 -5 3 0 5 2 5 5 0 3 -2 5 -5 5 -3 0 -5 -2 -5 -5z M630 1385
c0 -3 2 -5 5 -5 3 0 5 2 5 5 0 3 -2 5 -5 5 -3 0 -5 -2 -5 -5z M890 1383 c0 -5
12 -20 26 -34 24 -21 26 -22 16 -3 -13 25 -42 50 -42 37z M3360 1375 c0 -3 2
-5 5 -5 3 0 5 2 5 5 0 3 -2 5 -5 5 -3 0 -5 -2 -5 -5z M2098 1363 c6 -2 18 -2
25 0 6 3 1 5 -13 5 -14 0 -19 -2 -12 -5z M308 1309 c-11 -34 -19 -111 -23
-209 -3 -85 -10 -193 -15 -240 -27 -243 -31 -327 -26 -480 3 -90 11 -210 18
-266 l11 -103 418 0 418 -1 26 26 c14 14 24 29 21 32 -3 3 -14 -5 -25 -16 -18
-22 -21 -22 -425 -22 l-407 0 -8 22 c-5 13 -7 27 -4 31 3 4 0 13 -5 20 -6 7
-11 23 -11 37 -7 188 -10 282 -10 370 1 58 0 125 0 150 -1 25 3 54 9 65 16 35
28 143 16 155 -8 8 -8 13 0 18 11 7 29 186 23 227 -8 55 -2 165 10 188 7 14
11 31 9 38 -2 7 -11 -12 -20 -42z m2 -194 c0 -3 -2 -5 -5 -5 -3 0 -5 2 -5 5 0
3 2 5 5 5 3 0 5 -2 5 -5z M1070 1355 c0 -3 2 -5 5 -5 3 0 5 2 5 5 0 3 -2 5 -5
5 -3 0 -5 -2 -5 -5z M3120 1355 c0 -3 2 -5 5 -5 3 0 5 2 5 5 0 3 -2 5 -5 5 -3
0 -5 -2 -5 -5z M3620 1350 c0 -7 3 -10 7 -7 3 4 3 10 0 14 -4 3 -7 0 -7 -7z
M3130 1330 c0 -7 3 -10 7 -7 3 4 3 10 0 14 -4 3 -7 0 -7 -7z M1084 1310 c14
-74 16 -114 6 -100 -8 12 -9 9 -5 -10 3 -14 19 -88 35 -165 29 -133 30 -145
20 -240 -23 -210 -23 -230 -9 -242 12 -9 14 4 15 80 0 51 2 148 5 217 3 96 0
145 -15 210 -10 47 -22 121 -28 164 -5 44 -13 87 -19 95 -7 12 -8 10 -5 -9z
M3630 1320 c0 -5 5 -10 10 -10 6 0 10 5 10 10 0 6 -4 10 -10 10 -5 0 -10 -4
-10 -10z M796 1307 c3 -10 21 -25 38 -34 17 -8 27 -11 21 -6 -64 56 -66 57
-59 40z M3160 1315 c0 -3 2 -5 5 -5 3 0 5 2 5 5 0 3 -2 5 -5 5 -3 0 -5 -2 -5
-5z M3600 1315 c0 -3 2 -5 5 -5 3 0 5 2 5 5 0 3 -2 5 -5 5 -3 0 -5 -2 -5 -5z
M3170 1290 c0 -7 3 -10 7 -7 3 4 3 10 0 14 -4 3 -7 0 -7 -7z M3214 1278 c-4
-7 -3 -8 4 -4 7 4 12 9 12 12 0 8 -9 4 -16 -8z M3667 1279 c7 -7 15 -10 18 -7
3 3 -2 9 -12 12 -14 6 -15 5 -6 -5z M1020 1275 c0 -3 2 -5 5 -5 3 0 5 2 5 5 0
3 -2 5 -5 5 -3 0 -5 -2 -5 -5z M3131 1268 c0 -9 -4 -25 -7 -35 -5 -17 -5 -17
6 0 6 10 9 25 7 35 -4 15 -5 15 -6 0z M3156 1255 c-9 -26 -7 -32 5 -12 6 10 9
21 6 23 -2 3 -7 -2 -11 -11z M870 1251 c0 -11 62 -62 69 -56 2 3 -7 14 -20 25
-13 11 -30 24 -36 30 -8 6 -13 7 -13 1z M3188 1238 c-21 -33 -58 -106 -58
-115 0 -4 18 23 41 61 37 64 50 105 17 54z M3270 1250 c0 -7 3 -10 7 -7 3 4 3
10 0 14 -4 3 -7 0 -7 -7z M3691 1250 c0 -8 4 -22 9 -30 12 -18 12 -2 0 25 -6
13 -9 15 -9 5z M3090 1210 c0 -7 3 -10 7 -7 3 4 3 10 0 14 -4 3 -7 0 -7 -7z
M3610 1215 c0 -3 2 -5 5 -5 3 0 5 2 5 5 0 3 -2 5 -5 5 -3 0 -5 -2 -5 -5z
M3123 1196 c-1 -6 -9 -42 -18 -81 -29 -120 -33 -165 -17 -165 10 0 12 -8 8
-27 -11 -55 -16 -149 -7 -123 5 14 10 43 11 65 2 59 18 92 19 40 1 -27 4 -36
11 -29 13 13 -6 110 -22 120 -7 5 -9 -2 -4 -20 4 -18 3 -25 -4 -21 -13 8 -13
72 0 80 6 3 10 20 10 37 0 33 19 106 32 124 4 6 2 11 -5 11 -8 0 -14 -5 -14
-11z M3497 1184 c-15 -15 -24 -31 -21 -36 3 -5 7 -8 8 -6 52 74 56 85 13 42z
M870 1195 c0 -3 2 -5 5 -5 3 0 5 2 5 5 0 3 -2 5 -5 5 -3 0 -5 -2 -5 -5z M3590
1195 c0 -3 2 -5 5 -5 3 0 5 2 5 5 0 3 -2 5 -5 5 -3 0 -5 -2 -5 -5z M3710 1180
c6 -11 8 -26 4 -33 -5 -8 -4 -9 4 -2 13 11 5 55 -10 55 -5 0 -4 -9 2 -20z
M980 1145 c0 -3 2 -5 5 -5 3 0 5 2 5 5 0 3 -2 5 -5 5 -3 0 -5 -2 -5 -5z M990
1125 c0 -3 2 -5 5 -5 3 0 5 2 5 5 0 3 -2 5 -5 5 -3 0 -5 -2 -5 -5z M3446 1113
c-3 -10 -9 -25 -12 -33 -4 -8 3 -3 15 12 23 28 26 38 12 38 -5 0 -11 -8 -15
-17z M3545 1120 c-3 -6 1 -7 9 -4 18 7 21 14 7 14 -6 0 -13 -4 -16 -10z M3710
1110 c0 -6 7 -10 15 -10 8 0 15 2 15 4 0 2 -7 6 -15 10 -8 3 -15 1 -15 -4z
M3520 1085 c0 -3 2 -5 5 -5 3 0 5 2 5 5 0 3 -2 5 -5 5 -3 0 -5 -2 -5 -5z
M3746 1060 c6 -29 74 -137 74 -116 0 4 -11 22 -25 40 -14 18 -32 50 -40 72
l-15 39 6 -35z M3510 1065 c0 -3 2 -5 5 -5 3 0 5 2 5 5 0 3 -2 5 -5 5 -3 0 -5
-2 -5 -5z M2023 995 c0 -38 2 -53 4 -32 2 20 2 52 0 70 -2 17 -4 1 -4 -38z
M2160 1055 c0 -3 2 -5 5 -5 3 0 5 2 5 5 0 3 -2 5 -5 5 -3 0 -5 -2 -5 -5z
M3365 987 c-21 -34 -50 -73 -63 -87 -52 -54 -63 -75 -47 -96 13 -18 14 -18 8
4 -4 17 2 31 26 54 34 33 56 32 71 -4 8 -22 9 -22 9 5 1 17 -4 27 -13 27 -26
0 -26 17 -3 51 46 69 68 109 60 109 -4 0 -26 -28 -48 -63z M3493 1043 c4 -3
10 -3 14 0 3 4 0 7 -7 7 -7 0 -10 -3 -7 -7z M3710 1045 c0 -3 2 -5 5 -5 3 0 5
2 5 5 0 3 -2 5 -5 5 -3 0 -5 -2 -5 -5z M3258 983 c7 -3 16 -2 19 1 4 3 -2 6
-13 5 -11 0 -14 -3 -6 -6z M2080 965 c0 -3 2 -5 5 -5 3 0 5 2 5 5 0 3 -2 5 -5
5 -3 0 -5 -2 -5 -5z M790 955 c0 -3 2 -5 5 -5 3 0 5 2 5 5 0 3 -2 5 -5 5 -3 0
-5 -2 -5 -5z M2210 935 c0 -3 2 -5 5 -5 3 0 5 2 5 5 0 3 -2 5 -5 5 -3 0 -5 -2
-5 -5z M3048 933 c6 -2 18 -2 25 0 6 3 1 5 -13 5 -14 0 -19 -2 -12 -5z M2020
910 c0 -7 3 -10 7 -7 3 4 3 10 0 14 -4 3 -7 0 -7 -7z M2550 910 c0 -7 3 -10 7
-7 3 4 3 10 0 14 -4 3 -7 0 -7 -7z M2663 913 c15 -2 37 -2 50 0 12 2 0 4 -28
4 -27 0 -38 -2 -22 -4z M2983 913 c4 -3 10 -3 14 0 3 4 0 7 -7 7 -7 0 -10 -3
-7 -7z M3040 915 c0 -3 2 -5 5 -5 3 0 5 2 5 5 0 3 -2 5 -5 5 -3 0 -5 -2 -5 -5z
M3380 915 c0 -3 2 -5 5 -5 3 0 5 2 5 5 0 3 -2 5 -5 5 -3 0 -5 -2 -5 -5z M3835
895 c12 -70 42 -163 62 -195 13 -19 23 -30 23 -25 0 6 -7 20 -14 31 -8 12 -29
65 -46 120 -17 54 -28 86 -25 69z M2803 903 c15 -2 39 -2 55 0 15 2 2 4 -28 4
-30 0 -43 -2 -27 -4z M2928 903 c6 -2 18 -2 25 0 6 3 1 5 -13 5 -14 0 -19 -2
-12 -5z M3420 905 c0 -3 2 -5 5 -5 3 0 5 2 5 5 0 3 -2 5 -5 5 -3 0 -5 -2 -5
-5z M2023 845 c0 -27 2 -38 4 -22 2 15 2 37 0 50 -2 12 -4 0 -4 -28z M3240
875 c0 -3 2 -5 5 -5 3 0 5 2 5 5 0 3 -2 5 -5 5 -3 0 -5 -2 -5 -5z M3402 855
c-7 -14 -12 -31 -12 -38 1 -7 7 3 16 22 17 39 13 54 -4 16z M3683 873 c4 -3
10 -3 14 0 3 4 0 7 -7 7 -7 0 -10 -3 -7 -7z M2183 863 c4 -3 10 -3 14 0 3 4 0
7 -7 7 -7 0 -10 -3 -7 -7z M2500 865 c0 -3 2 -5 5 -5 3 0 5 2 5 5 0 3 -2 5 -5
5 -3 0 -5 -2 -5 -5z M2540 865 c0 -3 2 -5 5 -5 3 0 5 2 5 5 0 3 -2 5 -5 5 -3
0 -5 -2 -5 -5z M870 855 c0 -3 2 -5 5 -5 3 0 5 2 5 5 0 3 -2 5 -5 5 -3 0 -5
-2 -5 -5z M2078 853 c7 -3 16 -2 19 1 4 3 -2 6 -13 5 -11 0 -14 -3 -6 -6z
M3170 849 c0 -6 6 -9 14 -6 8 3 22 -3 32 -14 9 -10 12 -19 6 -19 -6 0 -13 -9
-17 -19 -12 -38 -82 -37 -72 0 6 24 -9 35 -17 13 -11 -29 -6 -44 18 -50 25 -6
26 -34 1 -34 -7 0 -18 -7 -25 -15 -25 -31 11 -15 47 20 24 24 39 32 44 24 4
-7 10 1 14 20 3 17 10 31 14 31 5 0 8 12 7 28 -1 23 -6 27 -33 29 -19 2 -33
-2 -33 -8z M2500 832 c0 -15 4 -20 16 -15 9 3 12 9 7 12 -4 3 -11 10 -15 15
-5 5 -8 0 -8 -12z M2543 843 c4 -3 10 -3 14 0 3 4 0 7 -7 7 -7 0 -10 -3 -7 -7z
M3600 845 c0 -3 2 -5 5 -5 3 0 5 2 5 5 0 3 -2 5 -5 5 -3 0 -5 -2 -5 -5z M3145
830 c-3 -5 -1 -10 4 -10 6 0 11 5 11 10 0 6 -2 10 -4 10 -3 0 -8 -4 -11 -10z
M2115 820 c-3 -6 4 -10 18 -10 27 0 42 -14 50 -45 4 -16 5 -15 6 6 2 41 -55
79 -74 49z M3345 808 c-6 -13 -17 -21 -25 -20 -8 2 -12 0 -8 -4 5 -4 -3 -22
-17 -39 -13 -18 -21 -36 -17 -41 4 -5 -1 -2 -11 5 -15 12 -17 12 -12 -1 3 -8
-1 -28 -10 -44 -8 -16 -15 -35 -15 -41 0 -7 -4 -13 -10 -13 -5 0 -10 -5 -10
-11 0 -5 -14 -27 -31 -49 -27 -33 -38 -39 -85 -45 -30 -3 -60 -13 -68 -21 -17
-16 -36 -19 -36 -4 0 5 -16 12 -35 16 -19 3 -35 8 -35 9 0 20 22 55 32 49 7
-4 8 -3 4 4 -5 8 0 12 12 12 11 0 23 7 26 16 5 13 4 14 -7 6 -8 -7 -17 -9 -20
-5 -4 3 2 13 13 20 11 8 17 19 14 25 -5 8 -1 9 10 5 9 -4 15 -3 12 2 -3 5 12
25 34 45 22 20 37 36 33 36 -4 0 -2 5 5 12 16 16 15 38 -2 38 -8 0 -17 -10
-20 -22 -3 -13 -31 -50 -61 -83 -30 -33 -69 -83 -87 -112 l-32 -52 -105 -1
c-58 -1 -151 -5 -206 -9 -71 -5 -32 -7 131 -4 219 2 233 2 254 -17 28 -25 27
-25 84 1 35 15 60 19 96 16 32 -3 55 0 67 8 15 11 21 11 33 0 8 -7 30 -16 48
-20 30 -6 32 -5 32 19 0 14 5 26 12 26 20 0 69 63 105 138 33 69 34 74 19 97
-9 14 -24 25 -34 24 -14 0 -13 -3 6 -16 29 -20 28 -32 -8 -105 -29 -57 -90
-128 -111 -128 -5 0 -8 -3 -8 -7 5 -33 -8 -37 -50 -14 -18 10 -29 10 -49 2
-34 -16 -36 -9 -10 25 23 29 108 173 108 183 0 3 14 19 31 37 20 20 29 40 27
54 l-3 21 -10 -23z M3750 820 c0 -7 3 -10 7 -7 3 4 3 10 0 14 -4 3 -7 0 -7 -7z
M2040 795 c0 -3 2 -5 5 -5 3 0 5 2 5 5 0 3 -2 5 -5 5 -3 0 -5 -2 -5 -5z M2085
790 c-3 -5 -1 -10 4 -10 6 0 11 5 11 10 0 6 -2 10 -4 10 -3 0 -8 -4 -11 -10z
M3280 795 c0 -3 2 -5 5 -5 3 0 5 2 5 5 0 3 -2 5 -5 5 -3 0 -5 -2 -5 -5z M3381
792 c0 -8 -10 -27 -22 -43 -23 -33 -18 -38 12 -10 13 12 19 27 16 43 -2 12 -5
17 -6 10z M3728 793 c7 -3 16 -2 19 1 4 3 -2 6 -13 5 -11 0 -14 -3 -6 -6z
M2120 785 c0 -3 2 -5 5 -5 3 0 5 2 5 5 0 3 -2 5 -5 5 -3 0 -5 -2 -5 -5z M2140
780 c0 -5 5 -10 11 -10 5 0 7 5 4 10 -3 6 -8 10 -11 10 -2 0 -4 -4 -4 -10z
M2022 760 c0 -14 2 -19 5 -12 2 6 2 18 0 25 -3 6 -5 1 -5 -13z M2040 775 c0
-3 2 -5 5 -5 3 0 5 2 5 5 0 3 -2 5 -5 5 -3 0 -5 -2 -5 -5z M2080 764 c0 -5 7
-18 15 -28 8 -11 15 -16 15 -10 0 5 -7 18 -15 28 -8 11 -15 16 -15 10z M2120
755 c0 -3 2 -5 5 -5 3 0 5 2 5 5 0 3 -2 5 -5 5 -3 0 -5 -2 -5 -5z M2143 753
c4 -3 10 -3 14 0 3 4 0 7 -7 7 -7 0 -10 -3 -7 -7z M2142 725 c-16 -9 -20 -15
-12 -20 7 -4 21 2 33 14 24 23 15 26 -21 6z M2510 730 c0 -7 3 -10 7 -7 3 4 3
10 0 14 -4 3 -7 0 -7 -7z M2065 720 c3 -5 8 -10 11 -10 3 0 2 5 -1 10 -3 6 -8
10 -11 10 -3 0 -2 -4 1 -10z M3410 725 c0 -3 2 -5 5 -5 3 0 5 2 5 5 0 3 -2 5
-5 5 -3 0 -5 -2 -5 -5z M2980 715 c0 -3 2 -5 5 -5 3 0 5 2 5 5 0 3 -2 5 -5 5
-3 0 -5 -2 -5 -5z M3296 670 c-29 -43 -33 -62 -13 -54 7 2 19 20 26 40 7 19
17 32 22 29 5 -4 9 1 9 9 0 27 -16 18 -44 -24z M270 690 c0 -7 3 -10 7 -7 3 4
3 10 0 14 -4 3 -7 0 -7 -7z M1990 680 c0 -7 3 -10 7 -7 3 4 3 10 0 14 -4 3 -7
0 -7 -7z M2070 680 c0 -5 5 -10 11 -10 5 0 7 5 4 10 -3 6 -8 10 -11 10 -2 0
-4 -4 -4 -10z M2510 685 c0 -3 2 -5 5 -5 3 0 5 2 5 5 0 3 -2 5 -5 5 -3 0 -5
-2 -5 -5z M3390 680 c0 -7 3 -10 7 -7 3 4 3 10 0 14 -4 3 -7 0 -7 -7z M2032
650 c0 -19 2 -27 5 -17 2 9 2 25 0 35 -3 9 -5 1 -5 -18z M3093 663 c4 -3 10
-3 14 0 3 4 0 7 -7 7 -7 0 -10 -3 -7 -7z M3880 655 c0 -3 2 -5 5 -5 3 0 5 2 5
5 0 3 -2 5 -5 5 -3 0 -5 -2 -5 -5z M3900 655 c0 -3 2 -5 5 -5 3 0 5 2 5 5 0 3
-2 5 -5 5 -3 0 -5 -2 -5 -5z M3921 650 c-4 -21 0 -104 5 -109 8 -9 9 5 3 64
-3 33 -7 53 -8 45z M2160 645 c0 -3 2 -5 5 -5 3 0 5 2 5 5 0 3 -2 5 -5 5 -3 0
-5 -2 -5 -5z M818 633 c-20 -5 -24 -28 -7 -38 17 -11 121 -34 149 -34 14 0 18
3 10 6 -8 2 -24 8 -35 13 -11 5 -41 11 -67 15 -50 6 -56 13 -36 33 7 7 10 11
8 11 -3 -1 -13 -3 -22 -6z M2000 635 c0 -3 2 -5 5 -5 3 0 5 2 5 5 0 3 -2 5 -5
5 -3 0 -5 -2 -5 -5z M995 606 c62 -29 71 -46 91 -179 15 -97 46 -187 64 -187
5 0 39 -20 76 -45 45 -31 73 -43 86 -39 20 6 26 2 94 -64 29 -29 52 -42 84
-47 25 -4 61 -13 80 -20 43 -15 230 -19 230 -5 0 6 -8 10 -18 10 -23 0 -32 8
-26 24 4 10 16 10 54 2 59 -13 75 -26 32 -26 -18 0 -32 -4 -32 -9 0 -12 733
-13 762 -1 29 11 20 13 -69 10 l-73 -2 0 104 c0 82 -4 109 -17 128 -19 26 -24
123 -11 190 l7 35 -15 -32 c-19 -45 -19 -148 0 -205 11 -31 16 -76 15 -130
l-1 -83 -217 -3 c-208 -4 -219 -3 -305 22 -106 31 -154 34 -152 9 4 -51 -234
-23 -304 35 -25 21 -28 27 -18 41 12 14 11 15 -6 1 -15 -11 -20 -12 -23 -3 -3
7 -11 13 -19 13 -9 0 -12 5 -9 10 4 6 -7 10 -25 10 -52 0 -96 29 -92 61 1 4
-7 5 -18 2 -20 -5 -69 25 -70 44 0 6 -7 18 -15 26 -16 16 -22 45 -27 127 -3
50 -1 54 21 60 21 5 22 7 7 19 -8 7 -13 18 -10 25 3 6 -3 0 -14 -13 l-19 -24
-11 45 c-14 55 -35 74 -92 82 l-45 6 50 -24z M1080 625 c0 -3 2 -5 5 -5 3 0 5
2 5 5 0 3 -2 5 -5 5 -3 0 -5 -2 -5 -5z M3310 625 c0 -3 2 -5 5 -5 3 0 5 2 5 5
0 3 -2 5 -5 5 -3 0 -5 -2 -5 -5z M2000 610 c0 -5 5 -10 11 -10 5 0 7 5 4 10
-3 6 -8 10 -11 10 -2 0 -4 -4 -4 -10z M1100 605 c0 -3 2 -5 5 -5 3 0 5 2 5 5
0 3 -2 5 -5 5 -3 0 -5 -2 -5 -5z M2022 598 c-8 -8 -8 -17 -1 -31 6 -10 9 -34
7 -53 -3 -21 1 -35 9 -38 11 -5 12 8 7 62 -8 78 -7 75 -22 60z M3080 605 c0
-3 2 -5 5 -5 3 0 5 2 5 5 0 3 -2 5 -5 5 -3 0 -5 -2 -5 -5z M2070 595 c0 -3 2
-5 5 -5 3 0 5 2 5 5 0 3 -2 5 -5 5 -3 0 -5 -2 -5 -5z M3515 590 c3 -5 14 -10
23 -10 15 0 15 2 2 10 -20 13 -33 13 -25 0z M3441 582 c-1 -7 -11 -17 -23 -22
-13 -5 -16 -9 -8 -9 23 -1 43 15 37 30 -4 11 -6 11 -6 1z M2050 575 c0 -3 2
-5 5 -5 3 0 5 2 5 5 0 3 -2 5 -5 5 -3 0 -5 -2 -5 -5z M3004 543 c-1 -13 -1
-23 0 -21 1 2 7 10 14 19 10 13 10 18 0 22 -8 3 -14 -5 -14 -20z M3080 566 c0
-3 9 -10 20 -16 11 -6 20 -8 20 -6 0 3 -9 10 -20 16 -11 6 -20 8 -20 6z M1180
555 c0 -3 2 -5 5 -5 3 0 5 2 5 5 0 3 -2 5 -5 5 -3 0 -5 -2 -5 -5z M2070 550
c0 -5 9 -10 20 -10 11 0 20 5 20 10 0 6 -9 10 -20 10 -11 0 -20 -4 -20 -10z
M2150 555 c0 -3 2 -5 5 -5 3 0 5 2 5 5 0 3 -2 5 -5 5 -3 0 -5 -2 -5 -5z M2193
553 c4 -3 10 -3 14 0 3 4 0 7 -7 7 -7 0 -10 -3 -7 -7z M2240 555 c0 -3 2 -5 5
-5 3 0 5 2 5 5 0 3 -2 5 -5 5 -3 0 -5 -2 -5 -5z M3460 549 c0 -6 25 -19 35
-19 1 0 5 6 8 14 4 10 -2 13 -19 12 -13 0 -24 -4 -24 -7z M3045 540 c3 -5 8
-10 11 -10 3 0 2 5 -1 10 -3 6 -8 10 -11 10 -3 0 -2 -4 1 -10z M3600 541 c0
-4 11 -18 25 -31 26 -25 32 -21 15 9 -10 20 -40 36 -40 22z M2240 530 c0 -7 3
-10 7 -7 3 4 3 10 0 14 -4 3 -7 0 -7 -7z M3390 535 c0 -3 2 -5 5 -5 3 0 5 2 5
5 0 3 -2 5 -5 5 -3 0 -5 -2 -5 -5z M870 525 c0 -3 2 -5 5 -5 3 0 5 2 5 5 0 3
-2 5 -5 5 -3 0 -5 -2 -5 -5z M1150 525 c0 -3 2 -5 5 -5 3 0 5 2 5 5 0 3 -2 5
-5 5 -3 0 -5 -2 -5 -5z M1180 525 c0 -3 2 -5 5 -5 3 0 5 2 5 5 0 3 -2 5 -5 5
-3 0 -5 -2 -5 -5z M3419 516 c6 -8 22 -16 34 -20 21 -5 21 -4 -3 14 -29 23
-48 26 -31 6z M3920 520 c0 -7 3 -10 7 -7 3 4 3 10 0 14 -4 3 -7 0 -7 -7z
M3945 520 c3 -5 8 -10 11 -10 3 0 2 5 -1 10 -3 6 -8 10 -11 10 -3 0 -2 -4 1
-10z M3033 513 c4 -3 10 -3 14 0 3 4 0 7 -7 7 -7 0 -10 -3 -7 -7z M3510 515
c0 -3 2 -5 5 -5 3 0 5 2 5 5 0 3 -2 5 -5 5 -3 0 -5 -2 -5 -5z M3530 508 c0 -9
17 -30 37 -47 39 -32 53 -38 53 -21 0 6 -5 10 -12 10 -6 0 -26 17 -45 38 -23
25 -33 32 -33 20z M3701 516 c9 -9 80 -56 85 -56 2 0 -11 14 -29 30 -19 17
-40 30 -47 30 -8 0 -11 -2 -9 -4z M3836 483 c15 -21 29 -40 31 -42 1 -2 1 9
-1 24 -2 19 -12 33 -31 42 l-28 15 29 -39z M1170 495 c-12 -14 -9 -16 26 -14
21 1 122 -1 224 -4 102 -3 165 -3 140 -1 -25 2 -103 9 -175 14 -71 6 -146 13
-165 16 -26 4 -40 1 -50 -11z M2240 500 c0 -7 3 -10 7 -7 3 4 3 10 0 14 -4 3
-7 0 -7 -7z M2990 505 c0 -3 2 -5 5 -5 3 0 5 2 5 5 0 3 -2 5 -5 5 -3 0 -5 -2
-5 -5z M3383 502 c-8 -5 -9 -13 -3 -22 6 -10 13 -11 19 -5 13 13 -1 36 -16 27z
m17 -17 c0 -3 -2 -5 -5 -5 -3 0 -5 2 -5 5 0 3 2 5 5 5 3 0 5 -2 5 -5z M920
495 c0 -3 2 -5 5 -5 3 0 5 2 5 5 0 3 -2 5 -5 5 -3 0 -5 -2 -5 -5z M1761 496
c2 -2 40 -6 84 -8 45 -3 67 -2 50 2 -30 8 -142 13 -134 6z M2175 490 c-19 -8
-19 -9 3 -9 12 -1 22 4 22 9 0 6 -1 10 -2 9 -2 0 -12 -4 -23 -9z M3970 496 c0
-2 8 -10 18 -17 15 -13 16 -12 3 4 -13 16 -21 21 -21 13z M430 485 c0 -3 2 -5
5 -5 3 0 5 2 5 5 0 3 -2 5 -5 5 -3 0 -5 -2 -5 -5z M1633 483 c9 -2 25 -2 35 0
9 3 1 5 -18 5 -19 0 -27 -2 -17 -5z M1931 486 c2 -2 20 -6 39 -10 25 -4 31 -3
20 4 -14 9 -69 15 -59 6z M2433 483 c9 -2 23 -2 30 0 6 3 -1 5 -18 5 -16 0
-22 -2 -12 -5z M3427 479 c7 -7 15 -10 18 -7 3 3 -2 9 -12 12 -14 6 -15 5 -6
-5z M3685 480 c3 -5 8 -10 11 -10 3 0 2 5 -1 10 -3 6 -8 10 -11 10 -3 0 -2 -4
1 -10z M470 475 c0 -3 2 -5 5 -5 3 0 5 2 5 5 0 3 -2 5 -5 5 -3 0 -5 -2 -5 -5z
M2070 475 c0 -3 2 -5 5 -5 3 0 5 2 5 5 0 3 -2 5 -5 5 -3 0 -5 -2 -5 -5z M3511
475 c1 -19 18 -51 18 -35 0 8 -4 22 -9 30 -5 8 -9 11 -9 5z M3653 473 c4 -3
10 -3 14 0 3 4 0 7 -7 7 -7 0 -10 -3 -7 -7z M3803 465 c0 -7 6 -11 14 -8 7 3
13 6 13 8 0 2 -6 5 -13 8 -8 3 -14 -1 -14 -8z M3896 467 c3 -10 9 -15 12 -12
3 3 0 11 -7 18 -10 9 -11 8 -5 -6z M2115 460 c28 -12 37 -12 30 0 -3 6 -16 10
-28 9 -21 0 -21 -1 -2 -9z M3600 465 c0 -3 2 -5 5 -5 3 0 5 2 5 5 0 3 -2 5 -5
5 -3 0 -5 -2 -5 -5z M2168 453 c6 -2 18 -2 25 0 6 3 1 5 -13 5 -14 0 -19 -2
-12 -5z M2234 448 c-4 -7 -3 -8 4 -4 7 4 12 9 12 12 0 8 -9 4 -16 -8z M3676
446 c3 -8 13 -17 21 -20 26 -10 25 0 -1 18 -20 13 -24 13 -20 2z M3723 453 c4
-3 10 -3 14 0 3 4 0 7 -7 7 -7 0 -10 -3 -7 -7z M3925 450 c3 -5 10 -10 16 -10
5 0 9 5 9 10 0 6 -7 10 -16 10 -8 0 -12 -4 -9 -10z M2290 440 c0 -5 7 -10 15
-10 8 0 15 5 15 10 0 6 -7 10 -15 10 -8 0 -15 -4 -15 -10z M3750 445 c0 -3 2
-5 5 -5 3 0 5 2 5 5 0 3 -2 5 -5 5 -3 0 -5 -2 -5 -5z M568 433 c7 -3 16 -2 19
1 4 3 -2 6 -13 5 -11 0 -14 -3 -6 -6z M2330 430 c0 -7 3 -10 7 -7 3 4 3 10 0
14 -4 3 -7 0 -7 -7z M3190 435 c0 -3 2 -5 5 -5 3 0 5 2 5 5 0 3 -2 5 -5 5 -3
0 -5 -2 -5 -5z M3785 427 c22 -18 41 -21 49 -9 2 4 -3 8 -12 8 -9 1 -26 5 -37
9 l-20 8 20 -16z M3880 433 c0 -6 9 -20 20 -33 11 -13 20 -20 20 -16 0 4 -9
19 -20 33 -11 14 -20 21 -20 16z M613 423 c9 -2 23 -2 30 0 6 3 -1 5 -18 5
-16 0 -22 -2 -12 -5z M3967 417 c-3 -7 3 -13 13 -13 10 0 16 6 13 13 -3 7 -9
13 -13 13 -4 0 -10 -6 -13 -13z M738 413 c6 -2 18 -2 25 0 6 3 1 5 -13 5 -14
0 -19 -2 -12 -5z M2110 415 c0 -3 2 -5 5 -5 3 0 5 2 5 5 0 3 -2 5 -5 5 -3 0
-5 -2 -5 -5z M3625 410 c4 -6 11 -8 16 -5 5 4 9 1 9 -4 0 -6 7 -11 15 -11 8 0
15 5 15 11 0 5 -4 8 -9 4 -5 -3 -12 -1 -16 5 -3 5 -13 10 -21 10 -8 0 -12 -5
-9 -10z M3535 400 c3 -5 8 -10 11 -10 3 0 2 5 -1 10 -3 6 -8 10 -11 10 -3 0
-2 -4 1 -10z M3731 375 c12 -19 25 -35 30 -35 10 0 -33 69 -43 70 -4 0 2 -16
13 -35z M873 385 c0 -7 6 -11 14 -8 7 3 13 6 13 8 0 2 -6 5 -13 8 -8 3 -14 -1
-14 -8z M640 375 c0 -3 2 -5 5 -5 3 0 5 2 5 5 0 3 -2 5 -5 5 -3 0 -5 -2 -5 -5z
M920 370 c20 -13 60 -13 60 0 0 6 -17 10 -37 10 -28 0 -34 -3 -23 -10z M1185
371 c-3 -5 -1 -12 5 -16 5 -3 10 1 10 9 0 18 -6 21 -15 7z M3550 370 c0 -7 3
-10 7 -7 3 4 3 10 0 14 -4 3 -7 0 -7 -7z M803 363 c4 -3 10 -3 14 0 3 4 0 7
-7 7 -7 0 -10 -3 -7 -7z M3630 360 c0 -5 5 -10 11 -10 5 0 7 5 4 10 -3 6 -8
10 -11 10 -2 0 -4 -4 -4 -10z M3920 365 c0 -3 2 -5 5 -5 3 0 5 2 5 5 0 3 -2 5
-5 5 -3 0 -5 -2 -5 -5z M3992 345 c0 -16 2 -22 5 -12 2 9 2 23 0 30 -3 6 -5
-1 -5 -18z M2950 340 c0 -7 3 -10 7 -7 3 4 3 10 0 14 -4 3 -7 0 -7 -7z M3560
345 c0 -3 2 -5 5 -5 3 0 5 2 5 5 0 3 -2 5 -5 5 -3 0 -5 -2 -5 -5z M3680 340
c0 -7 3 -10 7 -7 3 4 3 10 0 14 -4 3 -7 0 -7 -7z M875 330 c3 -5 18 -10 33 -9
24 0 25 1 7 9 -28 12 -47 12 -40 0z M3048 333 c7 -3 16 -2 19 1 4 3 -2 6 -13
5 -11 0 -14 -3 -6 -6z M1503 323 c4 -3 10 -3 14 0 3 4 0 7 -7 7 -7 0 -10 -3
-7 -7z M2130 325 c0 -3 2 -5 5 -5 3 0 5 2 5 5 0 3 -2 5 -5 5 -3 0 -5 -2 -5 -5z
M3571 325 c-1 -14 31 -97 46 -120 17 -25 17 -12 0 28 -31 72 -46 101 -46 92z
M1150 311 c0 -5 5 -13 10 -16 6 -3 10 -2 10 4 0 5 -4 13 -10 16 -5 3 -10 2
-10 -4z M3804 278 c21 -27 40 -48 43 -48 7 0 -16 36 -31 49 -9 8 -13 18 -9 25
3 6 3 8 -2 4 -4 -4 -15 -2 -24 5 -8 6 2 -9 23 -35z M3965 290 c9 -16 18 -30
21 -30 2 0 -2 14 -11 30 -9 17 -18 30 -21 30 -2 0 2 -13 11 -30z M2410 303 c0
-5 5 -15 10 -23 8 -12 10 -11 10 8 0 12 -4 22 -10 22 -5 0 -10 -3 -10 -7z
M2940 293 c0 -5 5 -15 10 -23 8 -12 10 -11 10 8 0 12 -4 22 -10 22 -5 0 -10
-3 -10 -7z M3930 285 c0 -3 2 -5 5 -5 3 0 5 2 5 5 0 3 -2 5 -5 5 -3 0 -5 -2
-5 -5z M2140 275 c0 -3 2 -5 5 -5 3 0 5 2 5 5 0 3 -2 5 -5 5 -3 0 -5 -2 -5 -5z
M3320 245 c0 -3 2 -5 5 -5 3 0 5 2 5 5 0 3 -2 5 -5 5 -3 0 -5 -2 -5 -5z M2940
198 c0 -26 4 -38 8 -30 8 12 4 72 -4 72 -2 0 -4 -19 -4 -42z M1256 218 c3 -5
10 -6 15 -3 13 9 11 12 -6 12 -8 0 -12 -4 -9 -9z M3200 225 c0 -3 2 -5 5 -5 3
0 5 2 5 5 0 3 -2 5 -5 5 -3 0 -5 -2 -5 -5z M1120 215 c0 -3 2 -5 5 -5 3 0 5 2
5 5 0 3 -2 5 -5 5 -3 0 -5 -2 -5 -5z M2270 210 c0 -7 3 -10 7 -7 3 4 3 10 0
14 -4 3 -7 0 -7 -7z M2550 205 c0 -3 2 -5 5 -5 3 0 5 2 5 5 0 3 -2 5 -5 5 -3
0 -5 -2 -5 -5z M280 185 c0 -3 2 -5 5 -5 3 0 5 2 5 5 0 3 -2 5 -5 5 -3 0 -5
-2 -5 -5z M2200 170 c0 -7 3 -10 7 -7 3 4 3 10 0 14 -4 3 -7 0 -7 -7z M2110
165 c0 -3 2 -5 5 -5 3 0 5 2 5 5 0 3 -2 5 -5 5 -3 0 -5 -2 -5 -5z M2150 165
c0 -3 2 -5 5 -5 3 0 5 2 5 5 0 3 -2 5 -5 5 -3 0 -5 -2 -5 -5z M2230 165 c0 -3
2 -5 5 -5 3 0 5 2 5 5 0 3 -2 5 -5 5 -3 0 -5 -2 -5 -5z M3920 165 c0 -3 2 -5
5 -5 3 0 5 2 5 5 0 3 -2 5 -5 5 -3 0 -5 -2 -5 -5z M1390 155 c0 -3 2 -5 5 -5
3 0 5 2 5 5 0 3 -2 5 -5 5 -3 0 -5 -2 -5 -5z M2788 123 c-10 -2 -18 -9 -18
-14 0 -12 2 -12 41 6 33 14 18 19 -23 8z M2932 100 c0 -14 2 -19 5 -12 2 6 2
18 0 25 -3 6 -5 1 -5 -13z M2390 105 c0 -3 2 -5 5 -5 3 0 5 2 5 5 0 3 -2 5 -5
5 -3 0 -5 -2 -5 -5z M3660 105 c0 -3 2 -5 5 -5 3 0 5 2 5 5 0 3 -2 5 -5 5 -3
0 -5 -2 -5 -5z M1364 88 c-4 -7 -3 -8 4 -4 7 4 12 9 12 12 0 8 -9 4 -16 -8z
M1300 85 c0 -3 2 -5 5 -5 3 0 5 2 5 5 0 3 -2 5 -5 5 -3 0 -5 -2 -5 -5z M1695
80 c-3 -6 1 -7 9 -4 18 7 21 14 7 14 -6 0 -13 -4 -16 -10z M2530 85 c0 -3 2
-5 5 -5 3 0 5 2 5 5 0 3 -2 5 -5 5 -3 0 -5 -2 -5 -5z M2583 83 c4 -3 10 -3 14
0 3 4 0 7 -7 7 -7 0 -10 -3 -7 -7z M2630 85 c0 -3 2 -5 5 -5 3 0 5 2 5 5 0 3
-2 5 -5 5 -3 0 -5 -2 -5 -5z M2653 83 c4 -3 10 -3 14 0 3 4 0 7 -7 7 -7 0 -10
-3 -7 -7z M2720 85 c0 -3 2 -5 5 -5 3 0 5 2 5 5 0 3 -2 5 -5 5 -3 0 -5 -2 -5
-5z M300 75 c0 -3 2 -5 5 -5 3 0 5 2 5 5 0 3 -2 5 -5 5 -3 0 -5 -2 -5 -5z
M1173 73 c4 -3 10 -3 14 0 3 4 0 7 -7 7 -7 0 -10 -3 -7 -7z M1920 75 c0 -3 2
-5 5 -5 3 0 5 2 5 5 0 3 -2 5 -5 5 -3 0 -5 -2 -5 -5z M2890 75 c0 -3 2 -5 5
-5 3 0 5 2 5 5 0 3 -2 5 -5 5 -3 0 -5 -2 -5 -5z M2950 75 c0 -3 2 -5 5 -5 3 0
5 2 5 5 0 3 -2 5 -5 5 -3 0 -5 -2 -5 -5z M1563 63 c4 -3 10 -3 14 0 3 4 0 7
-7 7 -7 0 -10 -3 -7 -7z M1594 58 c-4 -7 -3 -8 4 -4 12 7 16 16 8 16 -3 0 -8
-5 -12 -12z M1633 63 c4 -3 10 -3 14 0 3 4 0 7 -7 7 -7 0 -10 -3 -7 -7z M2921
42 l-1 -32 376 4 c206 2 378 7 381 10 4 3 -163 6 -370 6 l-376 0 -4 23 c-3 16
-5 13 -6 -11z M1690 55 c0 -3 2 -5 5 -5 3 0 5 2 5 5 0 3 -2 5 -5 5 -3 0 -5 -2
-5 -5z M2711 43 c-1 -9 -17 -13 -46 -13 -25 0 -45 -4 -45 -10 0 -13 250 -13
270 0 10 7 -14 10 -77 10 -64 0 -93 4 -96 13 -4 10 -6 10 -6 0z M1160 20 c0
-12 44 -12 80 0 20 6 14 8 -27 9 -29 1 -53 -3 -53 -9z M1280 20 c0 -5 9 -10
21 -10 11 0 17 4 14 10 -3 6 -13 10 -21 10 -8 0 -14 -4 -14 -10z M3694 23 c11
-11 306 -12 306 -2 0 5 -70 9 -157 9 -86 0 -153 -3 -149 -7z"/>
</g>
</svg>
