<svg version="1.1" id="Layer_1" xmlns="http://www.w3.org/2000/svg" xmlns:xlink="http://www.w3.org/1999/xlink" x="0px" y="0px"
	 width="100%" viewBox="0 0 224 224" enable-background="new 0 0 224 224" xml:space="preserve">
<path fill="#000000" opacity="1.000000" stroke="none" 
	d="
M124.714119,40.640923 
	C127.706833,38.801197 130.312607,37.002102 133.073990,35.486530 
	C135.550705,34.127197 137.421326,34.608768 138.474014,37.625214 
	C139.398331,40.273914 140.780319,42.762909 142.078171,45.578445 
	C136.044022,49.227306 130.141296,52.824535 125.156013,57.790192 
	C115.078926,67.827606 111.438683,80.480591 109.278671,93.998322 
	C107.379700,105.882408 109.573441,117.924072 107.334892,129.761017 
	C102.337296,156.187180 83.558792,175.048553 56.861614,175.353745 
	C51.866562,175.410828 51.024849,174.280151 51.885105,169.402695 
	C52.115185,168.098206 52.657803,166.791870 52.603683,165.505463 
	C52.468735,162.297867 54.163605,161.546143 56.946697,161.630157 
	C75.991409,162.205185 88.487427,148.156357 92.960648,132.256439 
	C94.144020,128.050171 92.742203,127.324944 89.054222,127.340897 
	C70.394661,127.421677 51.734291,127.417534 33.074955,127.311325 
	C30.970322,127.299347 27.762951,128.576401 27.034462,125.528885 
	C26.198467,122.031647 25.953096,118.170967 27.313595,114.718811 
	C27.971420,113.049622 30.295166,113.679276 31.905682,113.666336 
	C38.513889,113.613274 45.122772,113.644157 52.081936,113.644157 
	C51.630638,108.236229 48.521191,105.983253 44.705418,104.533569 
	C42.879856,103.839996 40.834843,103.510956 38.871803,103.427719 
	C27.973349,102.965652 27.971516,103.008865 27.054712,91.771393 
	C37.403122,86.050186 60.395226,90.765892 65.260475,108.187035 
	C65.659073,109.614311 66.013687,111.115669 66.748405,112.372330 
	C67.772194,114.123459 69.673302,113.692650 71.285751,113.508064 
	C73.520546,113.252258 73.660774,111.465157 73.614365,109.742302 
	C73.189987,93.991135 64.588371,83.256371 47.484936,81.442276 
	C44.394707,81.114494 41.160015,80.916733 38.066319,81.944489 
	C35.108669,82.927055 34.048492,81.551453 33.277512,78.756752 
	C30.847969,69.949966 30.701969,69.830482 39.312424,68.510857 
	C63.261993,64.840370 83.913414,80.553528 86.375214,103.246506 
	C86.642548,105.710785 87.178787,108.151192 87.348938,110.619308 
	C87.544777,113.460114 89.388550,113.629059 91.538055,113.649597 
	C93.778084,113.670990 95.677010,113.230606 95.564491,110.475548 
	C94.874710,93.585030 91.751160,77.733246 76.529366,67.248734 
	C70.764519,63.278008 64.307373,61.482376 57.331448,61.345181 
	C52.982403,61.259647 51.710320,58.866993 51.632023,52.008240 
	C51.584045,47.805645 54.137779,47.454464 57.224552,47.667618 
	C74.459328,48.857738 86.516281,53.878071 100.178497,72.232964 
	C101.677528,68.871834 103.131340,65.844048 104.377411,62.733059 
	C105.152054,60.799068 103.517990,59.724060 102.435661,58.492321 
	C97.539169,52.919891 90.926552,49.625572 84.827278,45.484455 
	C85.944321,41.254559 87.939606,37.682610 90.357834,34.049850 
	C97.795937,36.776398 104.000427,41.206268 109.535149,46.449108 
	C112.550079,49.305042 114.743423,50.225544 117.505974,46.502579 
	C119.316750,44.062267 121.987961,42.572945 124.714119,40.640923 
z"/>
<path fill="#000000" opacity="1.000000" stroke="none" 
	d="
M172.611542,82.490509 
	C159.955612,86.909172 154.185211,95.996246 153.404861,108.600128 
	C153.283340,110.562622 152.542648,113.168564 155.922211,113.609131 
	C158.941040,114.002686 160.411957,112.809280 161.141098,109.802246 
	C165.624069,91.314476 188.059921,85.997780 199.818085,91.609344 
	C199.855408,91.771759 199.943436,91.940941 199.922791,92.095619 
	C198.450455,103.125664 198.449738,103.125572 187.191010,103.379356 
	C180.966705,103.519669 176.629562,106.793190 175.222595,112.427048 
	C176.453125,113.992798 178.226227,113.601456 179.842285,113.619919 
	C184.341217,113.671326 188.841064,113.639992 193.340515,113.649147 
	C200.374649,113.663460 200.374649,113.666183 200.331970,120.830147 
	C200.293304,127.320107 200.293335,127.352158 193.607513,127.359123 
	C175.443008,127.378029 157.278458,127.367195 139.113937,127.368126 
	C137.307709,127.368217 135.501465,127.368134 132.926041,127.368134 
	C135.265259,140.195587 140.668961,150.252777 151.698242,156.766037 
	C157.222122,160.028122 163.079559,162.275574 169.673050,161.645340 
	C173.036713,161.323822 174.759354,162.590927 174.339203,166.142517 
	C174.319824,166.306274 174.337311,166.475952 174.350754,166.641815 
	C175.077087,175.607193 173.734146,176.705200 164.546066,175.185165 
	C149.610428,172.714279 137.420776,165.897293 128.886581,153.115646 
	C128.429153,152.430588 127.794479,151.863876 127.095352,151.076569 
	C124.626808,153.522049 124.033318,156.897369 122.786034,159.842239 
	C121.771919,162.236557 123.380722,164.150757 125.354103,165.731064 
	C129.631638,169.156570 133.647537,172.913696 138.562485,175.483932 
	C141.579147,177.061447 142.623337,179.014450 140.160583,182.156006 
	C138.577011,184.176041 138.521881,187.190491 136.176559,189.084961 
	C129.364746,185.994415 122.803047,182.378174 117.772743,176.751556 
	C114.379501,172.956039 112.128525,173.597610 109.006554,176.973511 
	C103.976768,182.412415 97.645958,186.057816 90.648483,188.879227 
	C90.158028,188.290543 89.678055,187.852325 89.363907,187.316818 
	C84.141342,178.414154 84.146545,178.412247 92.578377,172.744537 
	C108.811989,161.832596 116.010567,146.272705 117.874512,127.066139 
	C119.308914,112.285622 116.764923,97.201698 122.327126,82.668671 
	C130.054688,62.477985 147.743805,48.084850 169.232147,47.673874 
	C175.121765,47.561230 175.347076,48.673489 174.991913,54.443642 
	C174.625275,60.400284 172.055557,61.253819 166.678329,61.606506 
	C150.511978,62.666851 137.837570,74.861603 133.468201,92.685417 
	C132.169388,97.983696 131.361206,103.400230 131.320419,108.906532 
	C131.299606,111.715309 131.558640,113.762337 135.247757,113.713036 
	C138.490662,113.669693 139.534943,112.427132 139.703400,109.264824 
	C140.188217,100.163712 142.602493,91.627144 147.937271,84.052597 
	C154.224823,75.125282 162.999664,70.574860 173.556671,68.592255 
	C179.565140,67.463860 185.395523,67.964348 191.333405,68.631279 
	C194.612671,68.999596 195.832596,70.286736 194.785721,73.551216 
	C194.333878,74.960205 194.199402,76.475082 193.965042,77.948914 
	C193.385147,81.595612 191.830475,82.863289 187.825333,81.796310 
	C182.972565,80.503525 177.920334,81.406532 172.611542,82.490509 
z"/>
</svg>